<svg width="183" height="36" viewBox="0 0 183 36" fill="none" xmlns="http://www.w3.org/2000/svg">
<g clip-path="url(#clip0_201_444)">
<path d="M8.50192 24.47L8.3816 25.02C8.33147 25.24 8.14097 25.39 7.93042 25.39C7.90035 25.39 7.86024 25.39 7.83016 25.38L6.44655 25.08L6.15579 26.46C6.10566 26.68 5.91516 26.83 5.70461 26.83C5.67453 26.83 5.63443 26.83 5.60435 26.82L5.05291 26.7C4.80225 26.64 4.64184 26.4 4.69197 26.14L4.98273 24.76L3.59911 24.46C3.34846 24.4 3.18804 24.15 3.23817 23.9L3.35848 23.35C3.40862 23.13 3.59911 22.98 3.80966 22.98C3.83974 22.98 3.87985 22.98 3.90992 22.99L5.29354 23.29L5.5843 21.91C5.63443 21.69 5.82493 21.54 6.03548 21.54C6.06555 21.54 6.10566 21.54 6.13574 21.55L6.68718 21.67C6.93783 21.73 7.09825 21.98 7.04812 22.23L6.75736 23.61L8.14097 23.91C8.40165 23.97 8.56207 24.22 8.50192 24.47Z" fill="#D7954E"/>
<path d="M6.86751 20.37C5.85486 20.15 4.82217 20.33 3.94989 20.89C3.07761 21.45 2.48607 22.32 2.26549 23.33C1.82434 25.43 3.16785 27.51 5.26332 27.97C6.27596 28.19 7.30866 28.01 8.18094 27.45C9.05322 26.89 9.64476 26.02 9.86534 25.01C10.3065 22.91 8.96298 20.83 6.86751 20.37ZM8.72235 24.52L8.60204 25.07C8.53186 25.38 8.25112 25.61 7.93029 25.61C7.88015 25.61 7.83002 25.6 7.77989 25.59L6.61685 25.33L6.38625 26.5C6.31607 26.81 6.03534 27.04 5.7145 27.04C5.66437 27.04 5.61424 27.03 5.56411 27.02L5.01266 26.9C4.6417 26.82 4.40107 26.45 4.48128 26.08L4.73193 24.91L3.56889 24.65C3.19792 24.57 2.9573 24.2 3.03751 23.83L3.15782 23.28C3.228 22.97 3.50874 22.74 3.82957 22.74C3.87971 22.74 3.92984 22.74 3.97997 22.76L5.14301 23.02L5.39366 21.86C5.46384 21.54 5.74458 21.32 6.06541 21.32C6.11555 21.32 6.16568 21.33 6.21581 21.34L6.76725 21.46C7.13822 21.54 7.37885 21.91 7.29864 22.28L7.04798 23.45L8.21102 23.71C8.56194 23.78 8.80256 24.15 8.72235 24.52Z" fill="#D7954E"/>
<path d="M14.2067 24.81L11.7102 26.72C11.64 26.77 11.5598 26.8 11.4796 26.8C11.3592 26.8 11.249 26.75 11.1688 26.65L10.9983 26.43C10.868 26.26 10.898 26.02 11.0685 25.89L13.565 23.98C13.6352 23.93 13.7154 23.9 13.7956 23.9C13.9059 23.9 14.0262 23.95 14.1064 24.05L14.2769 24.27C14.4072 24.44 14.3771 24.68 14.2067 24.81Z" fill="#D7954E"/>
<path d="M16.8737 25.39L14.3772 27.3C14.307 27.35 14.2268 27.38 14.1466 27.38C14.0262 27.38 13.916 27.33 13.8357 27.23L13.6653 27.01C13.535 26.84 13.565 26.6 13.7355 26.47L16.232 24.56C16.3022 24.51 16.3824 24.48 16.4626 24.48C16.5729 24.48 16.6932 24.53 16.7734 24.63L16.9439 24.85C17.0742 25.02 17.0441 25.27 16.8737 25.39Z" fill="#D7954E"/>
<path d="M21.165 27.55C21.1049 27.83 20.9344 28.07 20.6938 28.23C20.4532 28.38 20.1624 28.44 19.8817 28.37C19.3002 28.24 18.9292 27.66 19.0495 27.08C19.1097 26.8 19.2801 26.56 19.5207 26.4C19.6912 26.29 19.8917 26.23 20.0922 26.23C20.1724 26.23 20.2526 26.24 20.3228 26.26C20.9144 26.39 21.2853 26.97 21.165 27.55Z" fill="#D7954E"/>
<path d="M23.0702 30.28C23.01 30.56 22.8396 30.8 22.5989 30.96C22.3583 31.11 22.0675 31.17 21.7868 31.1C21.2755 30.99 20.9346 30.53 20.9346 30.03C20.9346 29.96 20.9446 29.88 20.9546 29.8C21.0148 29.52 21.1852 29.28 21.4259 29.12C21.5963 29.01 21.7968 28.95 21.9973 28.95C22.0776 28.95 22.1578 28.9599 22.228 28.98C22.8195 29.11 23.1905 29.69 23.0702 30.28Z" fill="#D7954E"/>
<path d="M24.0225 25.77C23.9623 26.05 23.7918 26.2899 23.5512 26.4499C23.3106 26.5999 23.0198 26.6599 22.7391 26.5899C22.1576 26.4599 21.7866 25.8799 21.9069 25.3C21.9671 25.02 22.1375 24.78 22.3782 24.62C22.5486 24.51 22.7491 24.45 22.9496 24.45C23.0299 24.45 23.1101 24.46 23.1802 24.48C23.7718 24.61 24.1428 25.19 24.0225 25.77Z" fill="#D7954E"/>
<path d="M25.8672 28.59C25.807 28.87 25.6366 29.11 25.3959 29.27C25.1553 29.43 24.8645 29.48 24.5838 29.41C24.0023 29.28 23.6313 28.7 23.7516 28.12C23.8118 27.84 23.9822 27.6 24.2229 27.44C24.4635 27.29 24.7543 27.23 25.035 27.3C25.6165 27.43 25.9875 28.01 25.8672 28.59Z" fill="#D7954E"/>
<path d="M27.271 30.7099C26.3485 33.4599 23.7718 35.2899 20.9144 35.2899C20.4331 35.2899 19.9418 35.2399 19.4505 35.1299C17.345 34.6599 15.6707 33.2699 14.7884 31.4599L11.8206 30.7999C10.6375 31.7699 9.14361 32.3299 7.54945 32.3299C7.06819 32.3299 6.57691 32.2799 6.08563 32.1699C2.54638 31.3899 0.240362 27.9699 0.801828 24.4399C0.882038 27.6099 3.11788 30.4499 6.33628 31.1599C6.83759 31.2699 7.34893 31.3299 7.85024 31.3299C9.41432 31.3299 10.9483 30.7899 12.1715 29.8099L14.9287 30.4199C15.8912 32.3099 17.6258 33.6499 19.7012 34.1099C20.2025 34.2199 20.7138 34.2799 21.2151 34.2799C22.7792 34.2799 24.3233 33.7399 25.5465 32.7599C26.2583 32.1899 26.8398 31.4999 27.271 30.7099Z" fill="#D7954E"/>
<path d="M8.50192 24.47L8.3816 25.02C8.33147 25.24 8.14097 25.39 7.93042 25.39C7.90035 25.39 7.86024 25.39 7.83016 25.38L6.44655 25.08L6.15579 26.46C6.10566 26.68 5.91516 26.83 5.70461 26.83C5.67453 26.83 5.63443 26.83 5.60435 26.82L5.05291 26.7C4.80225 26.64 4.64184 26.4 4.69197 26.14L4.98273 24.76L3.59911 24.46C3.34846 24.4 3.18804 24.15 3.23817 23.9L3.35848 23.35C3.40862 23.13 3.59911 22.98 3.80966 22.98C3.83974 22.98 3.87985 22.98 3.90992 22.99L5.29354 23.29L5.5843 21.91C5.63443 21.69 5.82493 21.54 6.03548 21.54C6.06555 21.54 6.10566 21.54 6.13574 21.55L6.68718 21.67C6.93783 21.73 7.09825 21.98 7.04812 22.23L6.75736 23.61L8.14097 23.91C8.40165 23.97 8.56207 24.22 8.50192 24.47Z" fill="#F3C247"/>
<path d="M6.86751 20.37C5.85486 20.15 4.82217 20.33 3.94989 20.89C3.07761 21.45 2.48607 22.32 2.26549 23.33C1.82434 25.43 3.16785 27.51 5.26332 27.97C6.27596 28.19 7.30866 28.01 8.18094 27.45C9.05322 26.89 9.64476 26.02 9.86534 25.01C10.3065 22.91 8.96298 20.83 6.86751 20.37ZM8.72235 24.52L8.60204 25.07C8.53186 25.38 8.25112 25.61 7.93029 25.61C7.88015 25.61 7.83002 25.6 7.77989 25.59L6.61686 25.33L6.38625 26.5C6.31607 26.81 6.03534 27.04 5.7145 27.04C5.66437 27.04 5.61424 27.03 5.56411 27.02L5.01267 26.9C4.6417 26.82 4.40107 26.45 4.48128 26.08L4.73193 24.91L3.56889 24.65C3.19793 24.57 2.9573 24.2 3.03751 23.83L3.15782 23.28C3.228 22.97 3.50874 22.74 3.82958 22.74C3.87971 22.74 3.92984 22.74 3.97997 22.76L5.14301 23.02L5.39366 21.86C5.46384 21.54 5.74458 21.32 6.06541 21.32C6.11555 21.32 6.16568 21.33 6.21581 21.34L6.76725 21.46C7.13822 21.54 7.37885 21.91 7.29864 22.28L7.04798 23.45L8.21102 23.71C8.56194 23.78 8.80256 24.15 8.72235 24.52Z" fill="#F3C247"/>
<path d="M14.2067 24.81L11.7102 26.72C11.64 26.77 11.5598 26.8 11.4796 26.8C11.3592 26.8 11.249 26.75 11.1688 26.65L10.9983 26.43C10.868 26.26 10.898 26.02 11.0685 25.89L13.565 23.98C13.6352 23.93 13.7154 23.9 13.7956 23.9C13.9059 23.9 14.0262 23.95 14.1064 24.05L14.2769 24.27C14.4072 24.44 14.3771 24.68 14.2067 24.81Z" fill="#F3C247"/>
<path d="M16.8737 25.39L14.3772 27.3C14.307 27.35 14.2268 27.38 14.1466 27.38C14.0262 27.38 13.916 27.33 13.8357 27.23L13.6653 27.01C13.535 26.84 13.565 26.6 13.7355 26.47L16.232 24.56C16.3022 24.51 16.3824 24.48 16.4626 24.48C16.5729 24.48 16.6932 24.53 16.7734 24.63L16.9439 24.85C17.0742 25.02 17.0441 25.27 16.8737 25.39Z" fill="#F3C247"/>
<path d="M21.165 27.55C21.1049 27.83 20.9344 28.07 20.6938 28.23C20.4532 28.38 20.1624 28.44 19.8817 28.37C19.3002 28.24 18.9292 27.66 19.0495 27.08C19.1097 26.8 19.2801 26.56 19.5207 26.4C19.6912 26.29 19.8917 26.23 20.0922 26.23C20.1724 26.23 20.2526 26.24 20.3228 26.26C20.9144 26.39 21.2853 26.97 21.165 27.55Z" fill="#F3C247"/>
<path d="M23.0697 30.28C23.0095 30.56 22.8391 30.8 22.5984 30.96C22.3578 31.11 22.067 31.17 21.7863 31.1C21.275 30.99 20.9341 30.53 20.9341 30.03C20.9341 29.96 20.9441 29.88 20.9541 29.8C21.0143 29.52 21.1847 29.28 21.4254 29.12C21.5958 29.01 21.7963 28.95 21.9969 28.95C22.0771 28.95 22.1573 28.9599 22.2275 28.98C22.819 29.11 23.19 29.69 23.0697 30.28Z" fill="#F3C247"/>
<path d="M24.0225 25.77C23.9623 26.05 23.7918 26.2899 23.5512 26.4499C23.3106 26.5999 23.0198 26.6599 22.7391 26.5899C22.1576 26.4599 21.7866 25.8799 21.9069 25.3C21.9671 25.02 22.1375 24.78 22.3782 24.62C22.5486 24.51 22.7491 24.45 22.9496 24.45C23.0299 24.45 23.1101 24.46 23.1802 24.48C23.7718 24.61 24.1428 25.19 24.0225 25.77Z" fill="#F3C247"/>
<path d="M25.8672 28.59C25.807 28.87 25.6366 29.11 25.3959 29.27C25.1553 29.43 24.8645 29.48 24.5838 29.41C24.0023 29.28 23.6313 28.7 23.7516 28.12C23.8118 27.84 23.9822 27.6 24.2229 27.44C24.4635 27.29 24.7543 27.23 25.035 27.3C25.6165 27.43 25.9875 28.01 25.8672 28.59Z" fill="#F3C247"/>
<path d="M23.8719 21.07C23.5912 21.38 23.3104 21.63 23.0297 21.85C22.9896 21.88 22.9595 21.9 22.9294 21.93C22.8893 21.96 22.8592 21.98 22.8191 22.01C21.8967 22.67 21.0044 22.94 20.0319 23.2C19.6108 23.56 18.8889 23.88 17.5955 23.88C17.5554 23.88 17.5253 23.88 17.4852 23.88C16.4926 23.87 15.8409 23.68 15.4198 23.47C15.3597 23.46 15.3196 23.46 15.2895 23.45C15.2293 23.46 15.099 23.48 14.9085 23.48C14.4372 23.48 13.4346 23.37 12.051 22.67C9.9756 21.61 8.85266 20.17 8.36138 18.83C8.35135 18.79 8.3313 18.75 8.32128 18.71C8.31125 18.67 8.2912 18.63 8.28117 18.59C8.17088 18.23 8.1007 17.87 8.07062 17.54C7.96033 17.53 7.84002 17.53 7.72973 17.53C4.87227 17.53 2.29554 19.35 1.37313 22.1C1.31297 22.29 1.25281 22.48 1.20268 22.68C1.19266 22.74 1.1726 22.79 1.16258 22.85C1.1325 22.99 1.11245 23.12 1.09239 23.26C0.561007 26.78 2.857 30.16 6.38622 30.94C6.8775 31.05 7.36879 31.1 7.85005 31.1C9.43418 31.1 10.9381 30.54 12.1212 29.57L15.089 30.23C15.9813 32.03 17.6456 33.43 19.7511 33.9C20.2424 34.01 20.7337 34.06 21.215 34.06C24.0524 34.06 26.609 32.27 27.5515 29.55C27.6217 29.36 27.6718 29.16 27.7219 28.96C27.742 28.88 27.7621 28.81 27.7721 28.73C27.8022 28.61 27.8222 28.49 27.8423 28.37C28.3235 25.29 26.6491 22.31 23.8719 21.07ZM10.0859 25.05C9.85528 26.12 9.22363 27.04 8.30122 27.63C7.6395 28.06 6.8775 28.28 6.10549 28.28C5.8047 28.28 5.51394 28.25 5.21316 28.18C3.28813 27.75 1.96467 26.03 1.96467 24.13C1.96467 23.85 1.99475 23.56 2.05491 23.28C2.28551 22.21 2.91716 21.29 3.83957 20.7C4.76198 20.11 5.85483 19.91 6.92764 20.15C9.1334 20.64 10.5571 22.84 10.0859 25.05ZM11.8505 26.9C11.7402 26.98 11.6199 27.02 11.4795 27.02C11.289 27.02 11.1086 26.93 10.9983 26.78L10.8278 26.56C10.6273 26.29 10.6774 25.91 10.9381 25.71L13.4346 23.8C13.5449 23.72 13.6652 23.68 13.8056 23.68C13.9961 23.68 14.1766 23.77 14.2869 23.92L14.4573 24.14C14.6578 24.41 14.6077 24.79 14.347 24.99L11.8505 26.9ZM17.014 25.57L14.5175 27.48C14.4072 27.56 14.2869 27.6 14.1465 27.6C13.956 27.6 13.7755 27.51 13.6652 27.36L13.4948 27.14C13.2943 26.87 13.3444 26.49 13.6051 26.29L16.1016 24.38C16.2119 24.3 16.3322 24.26 16.4726 24.26C16.6631 24.26 16.8435 24.35 16.9538 24.5L17.1243 24.72C17.3248 24.99 17.2747 25.37 17.014 25.57ZM21.6962 25.26C21.7664 24.92 21.9669 24.63 22.2577 24.44C22.5484 24.25 22.8994 24.19 23.2402 24.26C23.9421 24.42 24.3933 25.11 24.2429 25.81C24.1727 26.15 23.9722 26.44 23.6814 26.63C23.4708 26.77 23.2302 26.84 22.9896 26.84C22.8994 26.84 22.7991 26.83 22.7089 26.81C21.997 26.65 21.5458 25.96 21.6962 25.26ZM19.8414 28.59C19.1395 28.44 18.6884 27.74 18.8387 27.04C18.9089 26.7 19.1095 26.41 19.4002 26.22C19.691 26.03 20.0419 25.97 20.3828 26.05C21.0846 26.2 21.5358 26.9 21.3854 27.6C21.3152 27.94 21.1147 28.23 20.8239 28.42C20.6134 28.56 20.3728 28.62 20.1221 28.62C20.0319 28.62 19.9316 28.61 19.8414 28.59ZM23.2803 30.32C23.2102 30.66 23.0096 30.95 22.7189 31.14C22.5083 31.28 22.2677 31.35 22.017 31.35C21.9268 31.35 21.8265 31.34 21.7363 31.32C21.0345 31.17 20.5833 30.47 20.7337 29.77C20.7738 29.6 20.834 29.44 20.9342 29.3C21.0345 29.16 21.1548 29.04 21.2952 28.95C21.5859 28.76 21.9368 28.7 22.2777 28.77C22.9796 28.92 23.4307 29.62 23.2803 30.32ZM26.0877 28.64C26.0175 28.98 25.817 29.27 25.5262 29.46C25.3157 29.6 25.075 29.67 24.8244 29.67C24.7341 29.67 24.6339 29.66 24.5436 29.64C23.8418 29.49 23.3906 28.79 23.541 28.09C23.5811 27.92 23.6413 27.76 23.7416 27.62C23.8418 27.48 23.9621 27.36 24.1025 27.27C24.3933 27.08 24.7442 27.02 25.0851 27.1C25.7869 27.24 26.228 27.93 26.0877 28.64Z" fill="#F3C247"/>
<path d="M20.3825 26.05C20.0416 25.97 19.6907 26.04 19.4 26.22C19.1092 26.41 18.9087 26.7 18.8385 27.04C18.6881 27.74 19.1393 28.44 19.8411 28.59C19.9313 28.61 20.0316 28.62 20.1218 28.62C20.3625 28.62 20.6031 28.55 20.8237 28.42C21.1144 28.23 21.315 27.94 21.3851 27.6C21.5355 26.9 21.0844 26.2 20.3825 26.05ZM21.1646 27.55C21.1044 27.83 20.934 28.07 20.6933 28.23C20.4527 28.38 20.162 28.44 19.8812 28.37C19.2997 28.24 18.9287 27.66 19.049 27.08C19.1092 26.8 19.2796 26.56 19.5203 26.4C19.6907 26.29 19.8912 26.23 20.0918 26.23C20.172 26.23 20.2522 26.24 20.3224 26.26C20.9139 26.39 21.2849 26.97 21.1646 27.55Z" fill="#3E2E2E"/>
<path d="M24.0225 25.7701C23.9623 26.0501 23.7918 26.2901 23.5512 26.4501C23.3106 26.6001 23.0198 26.6601 22.7391 26.5901C22.1576 26.4601 21.7866 25.8801 21.9069 25.3001C21.9671 25.0201 22.1375 24.7801 22.3782 24.6201C22.5486 24.5101 22.7491 24.4501 22.9496 24.4501C23.0299 24.4501 23.1101 24.4601 23.1802 24.4801C23.7718 24.6101 24.1428 25.1901 24.0225 25.7701Z" fill="#39AD36"/>
<path d="M23.2404 24.2601C22.8996 24.1901 22.5486 24.2501 22.2579 24.4401C21.9671 24.6301 21.7666 24.9201 21.6964 25.2601C21.546 25.9601 21.9972 26.6601 22.699 26.8101C22.7893 26.8301 22.8895 26.8401 22.9798 26.8401C23.2204 26.8401 23.461 26.7701 23.6716 26.6301C23.9623 26.4401 24.1629 26.1501 24.233 25.8101C24.3935 25.1101 23.9423 24.4201 23.2404 24.2601ZM24.0225 25.7701C23.9623 26.0501 23.7919 26.2901 23.5513 26.4501C23.3106 26.6001 23.0199 26.6601 22.7391 26.5901C22.1576 26.4601 21.7866 25.8801 21.907 25.3001C21.9671 25.0201 22.1376 24.7801 22.3782 24.6201C22.5486 24.5101 22.7492 24.4501 22.9497 24.4501C23.0299 24.4501 23.1101 24.4601 23.1803 24.4801C23.7718 24.6101 24.1428 25.1901 24.0225 25.7701Z" fill="#3E2E2E"/>
<path d="M22.278 28.7701C21.9371 28.7001 21.5862 28.7601 21.2955 28.9501C21.1451 29.0401 21.0248 29.1601 20.9345 29.3001C20.8443 29.4401 20.7741 29.6001 20.734 29.7701C20.5836 30.4701 21.0348 31.1701 21.7366 31.3201C21.8269 31.3401 21.9271 31.3501 22.0174 31.3501C22.258 31.3501 22.4986 31.2801 22.7192 31.1401C23.0099 30.9501 23.2105 30.6601 23.2807 30.3201C23.431 29.6201 22.9799 28.9201 22.278 28.7701ZM23.0701 30.2801C23.0099 30.5601 22.8395 30.8001 22.5989 30.9601C22.3582 31.1101 22.0675 31.1701 21.7868 31.1001C21.2754 30.9901 20.9345 30.5301 20.9345 30.0301C20.9345 29.9601 20.9446 29.8801 20.9546 29.8001C21.0147 29.5201 21.1852 29.2801 21.4258 29.1201C21.5963 29.0101 21.7968 28.9501 21.9973 28.9501C22.0775 28.9501 22.1577 28.9601 22.2279 28.9801C22.8194 29.1101 23.1904 29.6901 23.0701 30.2801Z" fill="#3E2E2E"/>
<path d="M23.0702 30.2801C23.01 30.5601 22.8395 30.8001 22.5989 30.9601C22.3583 31.1101 22.0675 31.1701 21.7868 31.1001C21.2755 30.9901 20.9346 30.5301 20.9346 30.0301C20.9346 29.9601 20.9446 29.8801 20.9546 29.8001C21.0148 29.5201 21.1852 29.2801 21.4259 29.1201C21.5963 29.0101 21.7968 28.9501 21.9973 28.9501C22.0776 28.9501 22.1578 28.9601 22.228 28.9801C22.8195 29.1101 23.1905 29.6901 23.0702 30.2801Z" fill="#E5AE1D"/>
<path d="M21.165 27.55C21.1049 27.83 20.9344 28.07 20.6938 28.23C20.4532 28.38 20.1624 28.44 19.8817 28.37C19.3002 28.24 18.9292 27.66 19.0495 27.08C19.1097 26.8 19.2801 26.56 19.5207 26.4C19.6912 26.29 19.8917 26.23 20.0922 26.23C20.1724 26.23 20.2526 26.24 20.3228 26.26C20.9144 26.39 21.2853 26.97 21.165 27.55Z" fill="#CB2C23"/>
<path d="M25.8672 28.59C25.807 28.87 25.6366 29.11 25.396 29.27C25.1553 29.43 24.8646 29.48 24.5838 29.41C24.0023 29.28 23.6313 28.7 23.7516 28.12C23.8118 27.84 23.9823 27.6 24.2229 27.44C24.4635 27.29 24.7543 27.23 25.035 27.3C25.6165 27.43 25.9875 28.01 25.8672 28.59Z" fill="#1780C2"/>
<path d="M25.0852 27.08C24.7443 27.01 24.3934 27.07 24.1026 27.25C23.9522 27.34 23.8319 27.46 23.7417 27.6C23.6514 27.74 23.5812 27.9 23.5411 28.07C23.3907 28.77 23.8419 29.47 24.5438 29.62C24.634 29.64 24.7342 29.65 24.8245 29.65C25.0651 29.65 25.3057 29.58 25.5263 29.44C25.8171 29.25 26.0176 28.96 26.0878 28.62C26.2282 27.93 25.787 27.24 25.0852 27.08ZM25.8672 28.59C25.8071 28.87 25.6366 29.11 25.396 29.27C25.1553 29.43 24.8646 29.48 24.5839 29.41C24.0023 29.28 23.6314 28.7 23.7517 28.12C23.8118 27.84 23.9823 27.6 24.2229 27.44C24.4635 27.29 24.7543 27.23 25.035 27.3C25.6166 27.43 25.9875 28.01 25.8672 28.59Z" fill="#3E2E2E"/>
<path d="M14.2067 24.81L11.7102 26.72C11.64 26.77 11.5598 26.8 11.4796 26.8C11.3592 26.8 11.249 26.75 11.1688 26.65L10.9983 26.43C10.868 26.26 10.898 26.02 11.0685 25.89L13.565 23.98C13.6352 23.93 13.7154 23.9 13.7956 23.9C13.9059 23.9 14.0262 23.95 14.1064 24.05L14.2769 24.27C14.4072 24.44 14.3771 24.68 14.2067 24.81Z" fill="#CB2C23"/>
<path d="M14.4576 24.13L14.2871 23.91C14.1668 23.76 13.9964 23.67 13.8059 23.67C13.6755 23.67 13.5452 23.71 13.4349 23.79L10.9384 25.7C10.6777 25.9 10.6276 26.28 10.8281 26.55L10.9985 26.77C11.1189 26.92 11.2893 27.01 11.4798 27.01C11.6101 27.01 11.7405 26.97 11.8508 26.89L14.3473 24.98C14.608 24.78 14.6581 24.4 14.4576 24.13ZM14.2069 24.81L11.7104 26.72C11.6402 26.77 11.56 26.8 11.4798 26.8C11.3595 26.8 11.2492 26.75 11.169 26.65L10.9985 26.43C10.8682 26.26 10.8983 26.02 11.0687 25.89L13.5652 23.98C13.6354 23.93 13.7156 23.9 13.7958 23.9C13.9061 23.9 14.0264 23.95 14.1067 24.05L14.2771 24.27C14.4074 24.44 14.3774 24.68 14.2069 24.81Z" fill="#3E2E2E"/>
<path d="M16.8737 25.39L14.3772 27.3C14.307 27.35 14.2268 27.38 14.1466 27.38C14.0262 27.38 13.916 27.33 13.8357 27.23L13.6653 27.01C13.535 26.84 13.565 26.6 13.7355 26.47L16.232 24.56C16.3022 24.51 16.3824 24.48 16.4626 24.48C16.5729 24.48 16.6932 24.53 16.7734 24.63L16.9439 24.85C17.0742 25.02 17.0441 25.27 16.8737 25.39Z" fill="#3BA93E"/>
<path d="M17.1246 24.72L16.9541 24.5C16.8338 24.35 16.6634 24.26 16.4729 24.26C16.3425 24.26 16.2122 24.3 16.1019 24.38L13.6054 26.3C13.3447 26.5 13.2946 26.88 13.4951 27.15L13.6655 27.37C13.7858 27.52 13.9563 27.61 14.1468 27.61C14.2771 27.61 14.4075 27.57 14.5178 27.49L17.0143 25.58C17.275 25.37 17.3251 24.99 17.1246 24.72ZM16.8739 25.39L14.3774 27.3C14.3072 27.35 14.227 27.38 14.1468 27.38C14.0265 27.38 13.9162 27.33 13.836 27.23L13.6655 27.01C13.5352 26.84 13.5653 26.6 13.7357 26.47L16.2322 24.56C16.3024 24.51 16.3826 24.48 16.4628 24.48C16.5731 24.48 16.6934 24.53 16.7736 24.63L16.9441 24.85C17.0744 25.02 17.0444 25.27 16.8739 25.39Z" fill="#3E2E2E"/>
<path d="M8.50192 24.47L8.3816 25.02C8.33147 25.24 8.14097 25.39 7.93042 25.39C7.90035 25.39 7.86024 25.39 7.83016 25.38L6.44655 25.08L6.15579 26.46C6.10566 26.68 5.91516 26.83 5.70461 26.83C5.67453 26.83 5.63443 26.83 5.60435 26.82L5.05291 26.7C4.80225 26.64 4.64184 26.4 4.69197 26.14L4.98273 24.76L3.59911 24.46C3.34846 24.4 3.18804 24.15 3.23817 23.9L3.35848 23.35C3.40862 23.13 3.59911 22.98 3.80966 22.98C3.83974 22.98 3.87985 22.98 3.90992 22.99L5.29354 23.29L5.5843 21.91C5.63443 21.69 5.82493 21.54 6.03548 21.54C6.06555 21.54 6.10566 21.54 6.13574 21.55L6.68718 21.67C6.93783 21.73 7.09825 21.98 7.04812 22.23L6.75736 23.61L8.14097 23.91C8.40165 23.97 8.56207 24.22 8.50192 24.47Z" fill="#D7954E"/>
<path d="M6.86751 20.37C5.85486 20.15 4.82217 20.33 3.94989 20.89C3.07761 21.45 2.48607 22.32 2.26549 23.33C1.82434 25.43 3.16785 27.51 5.26332 27.97C6.27596 28.19 7.30866 28.01 8.18094 27.45C9.05322 26.89 9.64476 26.02 9.86534 25.01C10.3065 22.91 8.96298 20.83 6.86751 20.37ZM8.72235 24.52L8.60204 25.07C8.53186 25.38 8.25112 25.61 7.93029 25.61C7.88015 25.61 7.83002 25.6 7.77989 25.59L6.61686 25.33L6.38625 26.5C6.31607 26.81 6.03534 27.04 5.7145 27.04C5.66437 27.04 5.61424 27.03 5.56411 27.02L5.01267 26.9C4.6417 26.82 4.40107 26.45 4.48128 26.08L4.73193 24.91L3.56889 24.65C3.19793 24.57 2.9573 24.2 3.03751 23.83L3.15782 23.28C3.228 22.97 3.50874 22.74 3.82958 22.74C3.87971 22.74 3.92984 22.74 3.97997 22.76L5.14301 23.02L5.39366 21.86C5.46384 21.54 5.74458 21.32 6.06541 21.32C6.11555 21.32 6.16568 21.33 6.21581 21.34L6.76725 21.46C7.13822 21.54 7.37885 21.91 7.29864 22.28L7.04798 23.45L8.21102 23.71C8.56194 23.78 8.80256 24.15 8.72235 24.52Z" fill="#D7954E"/>
<path d="M6.91755 20.15C5.84475 19.91 4.7519 20.11 3.82949 20.7C2.90708 21.29 2.27543 22.21 2.04483 23.28C1.98467 23.57 1.95459 23.85 1.95459 24.13C1.95459 26.03 3.27805 27.75 5.20307 28.18C5.50386 28.25 5.79462 28.28 6.0954 28.28C6.86742 28.28 7.62941 28.06 8.29114 27.63C9.21355 27.04 9.8452 26.12 10.0758 25.05C10.5571 22.84 9.13334 20.64 6.91755 20.15ZM9.86525 25.01C9.64467 26.03 9.05313 26.89 8.18085 27.45C7.30857 28.01 6.27588 28.19 5.26323 27.97C3.16776 27.51 1.82425 25.43 2.2654 23.33C2.48598 22.31 3.07752 21.45 3.9498 20.89C4.82208 20.33 5.85478 20.15 6.86742 20.37C8.96289 20.83 10.3064 22.91 9.86525 25.01Z" fill="#3E2E2E"/>
<path d="M8.50192 24.47L8.3816 25.02C8.33147 25.24 8.14097 25.39 7.93042 25.39C7.90035 25.39 7.86024 25.39 7.83016 25.38L6.44655 25.08L6.15579 26.46C6.10566 26.68 5.91516 26.83 5.70461 26.83C5.67453 26.83 5.63443 26.83 5.60435 26.82L5.05291 26.7C4.80225 26.64 4.64184 26.4 4.69197 26.14L4.98273 24.76L3.59911 24.46C3.34846 24.4 3.18804 24.15 3.23817 23.9L3.35848 23.35C3.40862 23.13 3.59911 22.98 3.80966 22.98C3.83974 22.98 3.87985 22.98 3.90992 22.99L5.29354 23.29L5.5843 21.91C5.63443 21.69 5.82493 21.54 6.03548 21.54C6.06555 21.54 6.10566 21.54 6.13574 21.55L6.68718 21.67C6.93783 21.73 7.09825 21.98 7.04812 22.23L6.75736 23.61L8.14097 23.91C8.40165 23.97 8.56207 24.22 8.50192 24.47Z" fill="#906967"/>
<path d="M8.1909 23.7001L7.02786 23.4401L7.27852 22.2701C7.35873 21.9001 7.1181 21.5301 6.74713 21.4501L6.19569 21.3301C6.14556 21.3201 6.09543 21.3101 6.0453 21.3101C5.72446 21.3101 5.44372 21.5401 5.37354 21.8501L5.12289 23.0101L3.95985 22.7501C3.90972 22.7401 3.85959 22.7301 3.80946 22.7301C3.48862 22.7301 3.20788 22.9601 3.1377 23.2701L3.01739 23.8201C2.93718 24.1901 3.17781 24.5601 3.54878 24.6401L4.71181 24.9001L4.46116 26.0701C4.38095 26.4401 4.62158 26.8101 4.99255 26.8901L5.54399 27.0101C5.59412 27.0201 5.64425 27.0301 5.69438 27.0301C6.01522 27.0301 6.29595 26.8001 6.36613 26.4901L6.61679 25.3301L7.77983 25.5901C7.82996 25.6001 7.88009 25.6101 7.93022 25.6101C8.25106 25.6101 8.53179 25.3801 8.60197 25.0701L8.72229 24.5201C8.8025 24.1501 8.56187 23.7801 8.1909 23.7001ZM8.50171 24.4701L8.3814 25.0201C8.33127 25.2401 8.14077 25.3901 7.93022 25.3901C7.90014 25.3901 7.86004 25.3901 7.82996 25.3801L6.44634 25.0801L6.15558 26.4601C6.10545 26.6801 5.91496 26.8301 5.70441 26.8301C5.67433 26.8301 5.63422 26.8301 5.60414 26.8201L5.0527 26.7001C4.80205 26.6401 4.64163 26.4001 4.69176 26.1401L4.98252 24.7601L3.59891 24.4601C3.34825 24.4001 3.18783 24.1501 3.23796 23.9001L3.35828 23.3501C3.40841 23.1301 3.59891 22.9801 3.80946 22.9801C3.83953 22.9801 3.87964 22.9801 3.90972 22.9901L5.29333 23.2901L5.58409 21.9101C5.63422 21.6901 5.82472 21.5401 6.03527 21.5401C6.06535 21.5401 6.10545 21.5401 6.13553 21.5501L6.68697 21.6701C6.93763 21.7301 7.09805 21.9801 7.04792 22.2301L6.75716 23.6101L8.14077 23.9101C8.40145 23.9701 8.56187 24.2201 8.50171 24.4701Z" fill="#3E2E2E"/>
<path d="M5.875 22.22L6.67709 22.4L6.35626 21.91L5.875 22.22Z" fill="#DCD6C1"/>
<path d="M3.89994 24.16L4.07038 23.36L3.5791 23.67L3.89994 24.16Z" fill="#DCD6C1"/>
<path d="M7.61963 24.9801L7.79007 24.1801L8.11091 24.6701L7.61963 24.9801Z" fill="#DCD6C1"/>
<path d="M5.08301 25.9301L5.8851 26.1101L5.40385 26.4201L5.08301 25.9301Z" fill="#DCD6C1"/>
<path d="M15.5402 12.95C15.3297 12.33 14.8785 11.82 14.287 11.53C13.936 11.36 13.5651 11.28 13.1941 11.28C12.2817 11.28 11.3994 11.79 10.9683 12.65C10.6775 13.24 10.6374 13.91 10.848 14.53C11.0585 15.15 11.5097 15.66 12.1013 15.95C13.3244 16.55 14.8184 16.05 15.4199 14.83C15.7107 14.24 15.7508 13.57 15.5402 12.95ZM13.7255 14C13.6754 14.1 13.5952 14.19 13.5049 14.24C13.4147 14.3 13.3044 14.33 13.1941 14.33C13.1039 14.33 13.0136 14.31 12.9334 14.27C12.7931 14.2 12.6828 14.08 12.6326 13.93C12.5825 13.78 12.5925 13.62 12.6627 13.48C12.8031 13.19 13.164 13.07 13.4548 13.21C13.5952 13.28 13.7054 13.4 13.7556 13.55C13.8057 13.7 13.7957 13.86 13.7255 14Z" fill="#E8DCCD"/>
<path d="M21.6364 18.47C20.8644 18.55 20.2127 18.25 20.1626 17.82C20.1225 17.38 20.704 16.97 21.476 16.89C22.248 16.81 22.8997 17.11 22.9499 17.54C22.99 17.98 22.3984 18.4 21.6364 18.47Z" fill="#E8DCCD"/>
<path d="M22.8698 13.15C22.6593 12.52 22.2081 12.02 21.6166 11.73C21.2656 11.56 20.8947 11.48 20.5237 11.48C19.6113 11.48 18.729 11.99 18.2979 12.85C18.0071 13.44 17.967 14.11 18.1776 14.73C18.3881 15.36 18.8393 15.86 19.4308 16.15C20.654 16.75 22.1479 16.25 22.7495 15.03C23.0403 14.44 23.0804 13.77 22.8698 13.15ZM21.0551 14.2C21.005 14.3 20.9247 14.39 20.8345 14.44C20.7443 14.5 20.634 14.53 20.5237 14.53C20.4335 14.53 20.3432 14.51 20.263 14.47C20.1227 14.4 20.0124 14.28 19.9622 14.13C19.9121 13.98 19.9221 13.82 19.9923 13.68C20.1327 13.39 20.4936 13.27 20.7844 13.41C20.9247 13.48 21.035 13.6 21.0852 13.75C21.1353 13.9 21.1253 14.06 21.0551 14.2Z" fill="#E8DCCD"/>
<path d="M25.0052 15.64C25.0052 15.64 24.4036 13.14 24.0928 11.98C24.0126 11.94 23.9324 11.87 23.8421 11.77C23.6917 11.88 23.4712 11.99 23.1804 11.99C22.629 11.99 22.0575 11.59 21.4659 10.81C21.3456 10.93 21.1752 11.04 20.9546 11.04C20.7541 11.04 20.5535 10.94 20.3731 10.74C20.2227 10.89 19.9921 11.06 19.7214 11.06C19.4507 11.06 19.21 10.9 18.9995 10.59C18.6385 10.97 17.8565 11.64 16.8338 11.64C16.6233 11.64 16.4027 11.61 16.1922 11.55C15.2497 11.29 14.8486 10.77 14.6882 10.42C14.608 10.47 14.5078 10.5 14.3975 10.5C14.1969 10.5 14.0165 10.39 13.846 10.18C13.7558 10.21 13.6455 10.24 13.5051 10.24C13.3046 10.24 13.0339 10.18 12.7632 9.90002C12.5727 10.1 12.2318 10.36 11.7205 10.36C11.4598 10.36 11.1791 10.29 10.8983 10.15C10.8382 10.29 10.7279 10.42 10.5574 10.51C10.5775 10.78 10.5173 11.21 9.94584 11.49L9.92579 11.5H9.90574C9.89571 11.5 9.85561 11.51 9.8155 11.51C9.43451 12.61 8.40181 15.71 8.29152 16.81C8.2815 16.96 8.27147 17.13 8.2815 17.3C8.2815 17.34 8.2815 17.37 8.29152 17.41C8.29152 17.45 8.30155 17.48 8.30155 17.52C8.33163 17.85 8.40181 18.21 8.53215 18.59C8.54218 18.63 8.56223 18.67 8.57226 18.71C8.58228 18.75 8.60233 18.79 8.62239 18.83C9.09362 20.05 10.1464 21.41 12.1516 22.44C13.4751 23.11 14.4175 23.23 14.9088 23.23C14.969 23.23 15.0191 23.23 15.0592 23.23C14.7785 23.02 14.6882 22.83 14.6782 22.81C14.6582 22.75 14.6782 22.69 14.7384 22.66C14.7985 22.64 14.8587 22.66 14.8888 22.72C14.8888 22.72 14.8988 22.73 14.9088 22.76C14.9489 22.83 15.0793 23 15.36 23.17C15.4001 23.19 15.4402 23.22 15.4903 23.24C15.5906 23.29 15.7109 23.35 15.8613 23.4C16.0518 23.46 16.2824 23.52 16.5531 23.57C16.8238 23.61 17.1346 23.64 17.4855 23.65C18.2676 23.66 18.829 23.56 19.2401 23.4C19.4206 23.33 19.571 23.25 19.7013 23.16C19.7815 23.1 19.8617 23.05 19.9219 22.99C20.1625 22.77 20.2929 22.53 20.3931 22.36C20.4132 22.33 20.4232 22.3 20.4433 22.28C20.4533 22.25 20.4733 22.23 20.4834 22.21C20.5134 22.16 20.5836 22.14 20.6338 22.18C20.6839 22.21 20.7039 22.28 20.6638 22.33C20.6438 22.37 20.6137 22.42 20.5836 22.47C20.5235 22.59 20.4433 22.73 20.3229 22.89C21.0849 22.68 21.8068 22.43 22.5387 21.93C22.5788 21.9 22.6189 21.88 22.659 21.85C22.6992 21.82 22.7393 21.8 22.7693 21.77C23.0601 21.55 23.3509 21.29 23.6516 20.98C23.6817 20.95 23.7018 20.92 23.7318 20.89C23.7619 20.86 23.782 20.83 23.8121 20.8C23.9324 20.66 24.0627 20.52 24.183 20.36C25.8474 18.29 25.0052 15.64 25.0052 15.64ZM10.768 12.55C11.4297 11.22 13.054 10.67 14.3874 11.33C15.0391 11.65 15.5204 12.2 15.751 12.88C15.9816 13.56 15.9315 14.29 15.6106 14.93C15.1394 15.88 14.1769 16.43 13.1843 16.43C12.7833 16.43 12.3722 16.34 11.9912 16.15C11.3395 15.83 10.8582 15.28 10.6276 14.6C10.397 13.92 10.4472 13.19 10.768 12.55ZM12.7131 18.25C12.703 18.25 12.703 18.25 12.7131 18.25C12.6028 18.27 12.4825 18.28 12.3622 18.29C12.312 18.29 12.2619 18.29 12.2118 18.29C11.8709 18.28 11.5701 18.19 11.3395 18.07C11.2492 18.02 11.169 17.96 11.0989 17.9C10.9485 17.77 10.8683 17.61 10.8783 17.44C10.8983 17 11.52 16.68 12.2819 16.71C13.0339 16.74 13.6355 17.12 13.6154 17.56C13.5954 17.88 13.2244 18.15 12.7131 18.25ZM19.4607 18.61C19.4507 18.64 19.2802 19.26 18.5684 19.54C18.5082 19.57 18.438 19.59 18.3578 19.61C18.3077 19.62 18.2576 19.63 18.1974 19.64C18.1573 19.65 18.1172 19.65 18.0771 19.66C18.0269 19.66 17.9868 19.67 17.9467 19.67C17.7061 19.67 17.5156 19.6 17.3752 19.51C17.3552 19.5 17.3452 19.49 17.3251 19.48C17.3051 19.47 17.285 19.45 17.275 19.44C17.2549 19.43 17.2449 19.41 17.2249 19.4C17.2148 19.39 17.2048 19.38 17.1948 19.37C17.1547 19.32 17.1146 19.28 17.0845 19.23C17.0644 19.19 17.0344 19.16 17.0243 19.12C17.0143 19.15 16.9943 19.18 16.9742 19.2C16.9541 19.23 16.9341 19.27 16.904 19.3C16.884 19.33 16.8539 19.36 16.8238 19.4C16.6634 19.57 16.4228 19.71 16.0718 19.71C16.0017 19.71 15.9315 19.71 15.8513 19.69C15.1494 19.58 14.8085 19.17 14.6582 18.91C14.6281 18.86 14.608 18.82 14.598 18.78C14.5779 18.73 14.5679 18.69 14.5579 18.69C14.5579 18.68 14.5579 18.67 14.5579 18.66C14.5579 18.61 14.588 18.57 14.6381 18.55C14.6983 18.53 14.7584 18.57 14.7785 18.63C14.7785 18.64 14.7885 18.67 14.8085 18.72C14.8286 18.76 14.8486 18.8 14.8787 18.85C14.9088 18.89 14.9389 18.94 14.979 18.98C15.1394 19.18 15.4201 19.4 15.8914 19.47C16.2022 19.52 16.4228 19.45 16.5732 19.33C16.6133 19.3 16.6433 19.27 16.6734 19.24C16.7035 19.21 16.7336 19.18 16.7536 19.14C16.8739 18.98 16.904 18.81 16.904 18.8V18.79L16.7937 17.37C16.5531 17.33 16.2824 17.14 16.0819 16.97C15.7209 16.67 15.2497 16.1 15.2998 15.81C15.37 15.39 15.8813 15.16 16.7035 15.18C16.9441 15.16 18.057 15.1 18.1673 15.59C18.2776 16.08 17.5858 17.17 17.0344 17.36C17.0243 17.36 17.0243 17.36 17.0143 17.37L17.1146 18.79C17.1146 18.8 17.1246 18.8 17.1246 18.81C17.1246 18.83 17.2048 19.13 17.4655 19.32C17.6058 19.42 17.8064 19.49 18.0871 19.46C18.1072 19.46 18.1372 19.45 18.1573 19.45C19.0396 19.29 19.2301 18.61 19.2401 18.58C19.2602 18.52 19.3203 18.49 19.3805 18.5C19.4406 18.49 19.4707 18.55 19.4607 18.61ZM21.6364 18.47C20.8644 18.55 20.2127 18.25 20.1625 17.82C20.1224 17.38 20.7039 16.97 21.476 16.89C22.248 16.81 22.8997 17.11 22.9498 17.54C22.9899 17.98 22.3984 18.4 21.6364 18.47ZM22.9398 15.13C22.4686 16.08 21.506 16.63 20.5134 16.63C20.1124 16.63 19.7013 16.54 19.3203 16.35C18.6686 16.03 18.1874 15.48 17.9568 14.8C17.7262 14.12 17.7763 13.39 18.0871 12.75C18.7488 11.42 20.3731 10.87 21.7066 11.53C22.3583 11.85 22.8395 12.4 23.0701 13.08C23.3108 13.76 23.2606 14.48 22.9398 15.13Z" fill="#E8DCCD"/>
<path d="M12.2319 2.76995C11.7306 2.92995 11.5101 3.36995 11.4499 3.73995C11.4298 3.73995 11.3998 3.72995 11.3797 3.72995C11.3697 3.72995 11.3597 3.72995 11.3496 3.72995C11.1992 3.72995 11.0789 3.77995 10.9887 3.88995C10.9185 3.97995 10.8784 4.07995 10.8584 4.17995H10.8483C10.7581 4.17995 10.6779 4.20995 10.6077 4.23995C10.4373 4.06995 10.1565 3.84995 9.80561 3.84995C9.73542 3.84995 9.65521 3.85995 9.58503 3.87995C9.22409 3.97995 8.97343 4.17995 8.83307 4.46995C8.68267 4.77995 8.70273 5.13995 8.75286 5.39995H8.73281C8.4621 5.39995 8.2315 5.49995 8.07108 5.67995C8.01092 5.73995 7.97081 5.81995 7.93071 5.88995C7.92068 5.85995 7.91066 5.82995 7.90063 5.78995C7.89061 5.76995 7.89061 5.74995 7.88058 5.72995C7.86053 5.66995 7.84047 5.60995 7.82042 5.54995C7.46951 4.46995 7.14867 3.00995 7.30909 1.91995C7.31911 1.87995 7.31911 1.83995 7.32914 1.78995C7.33917 1.73995 7.34919 1.68995 7.35922 1.63995C7.36924 1.58995 7.37927 1.53995 7.39932 1.49995C7.40935 1.44995 7.4294 1.40995 7.43943 1.35995C7.44945 1.31995 7.46951 1.28995 7.47953 1.24995C7.48956 1.22995 7.49958 1.19995 7.50961 1.17995V1.16995C7.51964 1.15995 7.51964 1.13995 7.52966 1.12995C7.53969 1.11995 7.53969 1.09995 7.54972 1.08995C7.55974 1.06995 7.56977 1.05995 7.57979 1.03995C7.58982 1.01995 7.60987 0.989951 7.6199 0.969951C7.62992 0.949951 7.64998 0.929951 7.67003 0.909951C7.68006 0.899951 7.69008 0.889951 7.70011 0.869951C7.71013 0.849951 7.72016 0.839951 7.74021 0.819951C7.76026 0.799951 7.77029 0.779951 7.79034 0.769951C7.80037 0.759951 7.8104 0.749951 7.82042 0.739951C7.82042 0.739951 7.82042 0.739951 7.83045 0.739951C7.84047 0.729951 7.86053 0.709951 7.87055 0.699951C7.87055 0.699951 7.87055 0.699951 7.88058 0.699951C8.06105 0.709951 10.327 0.749951 12.2319 2.76995Z" fill="#E8DCCD"/>
<path d="M7.90039 5.78992C7.91042 5.81992 7.92044 5.85992 7.93047 5.88992C7.93047 5.85992 7.91042 5.81992 7.90039 5.78992Z" fill="#3E2E2E"/>
<path d="M11.3797 3.72999C11.3697 3.72999 11.3597 3.72999 11.3496 3.72999C11.1992 3.72999 11.0789 3.77999 10.9887 3.88999C10.9185 3.97999 10.8784 4.07999 10.8584 4.17999H10.8483C10.7581 4.17999 10.6779 4.20999 10.6077 4.23999C10.4373 4.06999 10.1565 3.84999 9.80561 3.84999C9.73542 3.84999 9.65521 3.85999 9.58503 3.87999C9.22409 3.97999 8.97343 4.17999 8.83307 4.46999C8.68267 4.77999 8.70273 5.13999 8.75286 5.39999H8.7328C8.4621 5.39999 8.2315 5.49999 8.07108 5.67999C8.01092 5.73999 7.97081 5.81999 7.93071 5.88999C7.92068 5.85999 7.91066 5.82999 7.90063 5.78999C7.89061 5.76999 7.89061 5.74999 7.88058 5.72999C7.86053 5.66999 7.84047 5.60999 7.82042 5.54999C7.46951 4.46999 7.14867 3.00999 7.30909 1.91999C7.31911 1.87999 7.31911 1.83999 7.32914 1.78999C7.33917 1.73999 7.34919 1.68999 7.35922 1.63999C7.36924 1.58999 7.37927 1.53999 7.39932 1.49999C7.40935 1.44999 7.4294 1.40999 7.43943 1.35999C7.44945 1.31999 7.46951 1.28999 7.47953 1.24999C7.48956 1.22999 7.49958 1.19999 7.50961 1.17999V1.16999C7.51964 1.15999 7.51964 1.13999 7.52966 1.12999C7.53969 1.11999 7.53969 1.09999 7.54972 1.08999C7.55974 1.06999 7.56977 1.05999 7.57979 1.03999C7.58982 1.01999 7.60987 0.98999 7.6199 0.96999C7.62992 0.94999 7.64998 0.92999 7.67003 0.90999C7.68006 0.89999 7.69008 0.88999 7.70011 0.86999C7.71013 0.84999 7.72016 0.83999 7.74021 0.81999C7.76026 0.79999 7.77029 0.77999 7.79034 0.76999C7.80037 0.75999 7.8104 0.74999 7.82042 0.73999C7.82042 0.73999 7.82042 0.73999 7.83045 0.73999C8.38189 1.05999 10.0663 2.06999 11.3797 3.72999Z" fill="#E38569"/>
<path d="M27.4012 1.86006C26.2482 1.92006 24.5337 3.45006 23.5311 4.46006C23.4809 4.15006 23.3807 3.85006 23.2102 3.67006C22.9796 3.42006 22.7189 3.26006 22.4482 3.20006C23.3205 2.46006 24.7242 1.56006 26.3184 1.56006C26.5891 1.56006 26.8698 1.59006 27.1606 1.65006C27.1505 1.63006 27.2909 1.64006 27.4012 1.86006Z" fill="#E8DCCD"/>
<path d="M12.8134 8.86004C12.7633 8.95004 12.6129 8.97004 12.4625 8.90004C12.3121 8.83004 12.2319 8.69004 12.282 8.60004C12.3321 8.51004 12.4825 8.49004 12.6329 8.56004C12.7733 8.63004 12.8535 8.77004 12.8134 8.86004Z" fill="#D6BA9B"/>
<path d="M24.5441 10.26C24.3435 10.36 24.153 10.4 23.9826 10.4C23.5414 10.4 23.2306 10.15 23.2206 10.14C23.1705 10.1 23.1705 10.03 23.2106 9.98005C23.2507 9.93005 23.3209 9.93004 23.371 9.97004C23.391 9.99004 23.8623 10.36 24.4638 10.07C25.0454 9.78004 24.895 9.14004 24.895 9.12004C24.8849 9.06004 24.915 9.00004 24.9752 8.98004C25.0353 8.97004 25.0955 9.00004 25.1155 9.06004C25.1556 9.34004 25.1356 9.96004 24.5441 10.26Z" fill="#D6BA9B"/>
<path d="M27.8121 23.89C27.1304 22.57 26.0776 21.47 24.7943 20.74C26.5288 18.5 25.8069 15.83 25.6966 15.45C25.6465 15.22 25.3457 13.98 25.065 12.88C25.1752 12.91 25.2755 12.93 25.3858 12.93C25.5963 12.93 26.0074 12.86 26.2982 12.38C26.5388 11.99 26.5589 11.65 26.5188 11.4C26.8697 11.15 27.2106 10.71 27.2406 9.94C27.2707 9.22 27.0501 8.61 26.6391 8.19C26.9098 7.68 26.9599 7.14 26.7895 6.63C27.0401 6.3 27.2607 5.94 27.4412 5.54C28.0127 4.34 28.153 3.15 28.1931 2.7C28.2433 2.04 28.133 1.56 27.8422 1.24C27.6818 1.06 27.4712 0.95 27.2607 0.91C26.9499 0.85 26.629 0.82 26.3082 0.82C25.0549 0.82 23.7315 1.31 22.4682 2.25C22.2877 2.38 22.1173 2.52 21.9368 2.67C21.6561 2.7 21.4054 2.8 21.1848 2.92C20.874 2.61 20.4629 2.45 20.0017 2.45C19.9115 2.45 19.8213 2.46 19.731 2.47C19.3901 1.81 18.6582 0.85 17.2145 0.62C17.0741 0.6 16.9337 0.59 16.7934 0.59C15.8509 0.59 15.0789 1.14 14.6478 2.08C14.4673 2.02 14.2968 1.98 14.1164 1.98C13.7855 1.98 13.4647 2.1 13.194 2.32C13.0335 2.26 12.8531 2.22 12.6826 2.21C11.9407 1.44 11.0784 0.86 10.1159 0.47C8.97293 0.02 8.06055 0 7.8901 0H7.87005H7.78984H7.6194L7.48906 0.11L7.41887 0.17C6.67694 0.8 6.41626 1.94 6.62681 3.57C6.7772 4.73 7.13814 5.79 7.31861 6.3C7.30859 6.38 7.30859 6.46 7.29856 6.53C6.89751 7.17 6.80728 7.76 7.01783 8.28C7.11809 8.54 7.29856 8.77 7.53919 8.94V8.97C7.47903 9.05 7.41887 9.15 7.36874 9.25C7.05793 9.84 7.11809 10.41 7.51914 10.77C7.79987 11.02 8.12071 11.15 8.4616 11.15C8.51173 11.15 8.57189 11.15 8.62202 11.14C8.67215 11.19 8.72228 11.23 8.77241 11.26C8.81251 11.42 8.8827 11.56 8.97293 11.68C8.98296 11.69 8.98296 11.69 8.99299 11.7C8.52175 13.09 7.66953 15.72 7.56927 16.78C7.56927 16.8 7.56927 16.81 7.56927 16.83H7.22838V16.85C5.72445 16.95 4.26063 17.52 3.07754 18.47C1.74405 19.54 0.811618 21.05 0.460702 22.73C0.430623 22.85 0.410571 22.98 0.390519 23.12C0.300283 23.4 0.220074 23.68 0.159916 23.96C-0.692309 28 1.88442 32 5.92497 32.89C6.45636 33.01 7.0078 33.07 7.53919 33.07C9.13335 33.07 10.7075 32.55 11.9808 31.59L14.2968 32.1C15.3496 34.01 17.1543 35.37 19.2899 35.84C19.8213 35.96 20.3727 36.02 20.9041 36.02C22.5885 36.02 24.2328 35.44 25.5462 34.39C26.8797 33.32 27.8121 31.81 28.1631 30.13C28.1931 30.01 28.2132 29.88 28.2332 29.74C28.3235 29.46 28.4037 29.18 28.4638 28.9C28.8348 27.2 28.5942 25.43 27.8121 23.89ZM26.3082 1.55C26.5789 1.55 26.8596 1.58 27.1504 1.64C27.1504 1.64 27.3008 1.65 27.4011 1.86C27.4813 2 27.5414 2.25 27.5113 2.7C27.4612 3.39 27.1905 5.13 26.1277 6.41C26.1177 6.4 26.1077 6.39 26.0977 6.37C25.7467 5.9 25.3156 5.8 25.0048 5.8C24.8344 5.8 24.684 5.83 24.5637 5.86C24.5436 5.83 24.5336 5.81 24.5135 5.78C24.4433 5.69 24.3431 5.64 24.2528 5.62C24.2528 5.52 24.2228 5.43 24.1726 5.36C24.1225 5.29 24.0222 5.21 23.8418 5.21C23.7616 5.21 23.6713 5.23 23.5811 5.26C23.5811 5.03 23.5711 4.74 23.5209 4.45C23.4708 4.14 23.3705 3.84 23.2001 3.66C22.9695 3.41 22.7088 3.25 22.4381 3.19C23.3104 2.45 24.714 1.55 26.3082 1.55ZM22.1373 3.16H22.1273C22.1273 3.16 22.1273 3.16 22.1373 3.16ZM7.32864 1.8C7.33866 1.75 7.34869 1.7 7.35872 1.65C7.36874 1.6 7.37877 1.55 7.39882 1.51C7.40885 1.46 7.4289 1.42 7.43893 1.37C7.44895 1.33 7.46901 1.3 7.47903 1.26C7.48906 1.24 7.49908 1.21 7.50911 1.19V1.18C7.51914 1.17 7.51914 1.15 7.52916 1.14C7.53919 1.13 7.53919 1.11 7.54922 1.1C7.55924 1.08 7.56927 1.07 7.57929 1.05C7.58932 1.03 7.60937 1 7.6194 0.98C7.62942 0.96 7.64948 0.94 7.66953 0.92C7.67956 0.91 7.68958 0.9 7.69961 0.88C7.70963 0.86 7.71966 0.85 7.73971 0.83C7.75976 0.81 7.76979 0.79 7.78984 0.78C7.79987 0.77 7.8099 0.76 7.81992 0.75C7.81992 0.75 7.81992 0.75 7.82995 0.75C7.83997 0.74 7.86003 0.72 7.87005 0.71C7.87005 0.71 7.87005 0.71 7.88008 0.71C8.05052 0.71 10.3164 0.75 12.2214 2.76C11.7201 2.92 11.4995 3.36 11.4394 3.73C11.4193 3.73 11.3892 3.72 11.3692 3.72C11.3592 3.72 11.3491 3.72 11.3391 3.72C11.1887 3.72 11.0684 3.77 10.9782 3.88C10.908 3.97 10.8679 4.07 10.8478 4.17H10.8378C10.7476 4.17 10.6674 4.2 10.5972 4.23C10.4267 4.06 10.146 3.84 9.79508 3.84C9.7249 3.84 9.64469 3.85 9.5745 3.87C9.21356 3.97 8.96291 4.17 8.82254 4.46C8.67215 4.77 8.6922 5.13 8.74233 5.39H8.72228C8.45157 5.39 8.22097 5.49 8.06055 5.67C8.00039 5.73 7.96029 5.81 7.92018 5.88C7.91016 5.85 7.90013 5.82 7.8901 5.78C7.88008 5.76 7.88008 5.74 7.87005 5.72C7.85 5.66 7.82995 5.6 7.8099 5.54C7.45898 4.46 7.13814 3 7.29856 1.91C7.31861 1.88 7.31861 1.84 7.32864 1.8ZM8.47162 10.43C8.33126 10.43 8.17084 10.38 8.00039 10.23C7.62942 9.9 8.29115 9.14 8.29115 9.14C8.29115 9.14 8.15079 8.82 8.43152 8.56C8.43152 8.56 6.93762 8.27 8.02045 6.72C8.02045 6.72 8.01042 6.6 8.02045 6.44C8.02045 6.37 8.03047 6.3 8.05052 6.22C8.11068 5.93 8.28113 5.63 8.72228 5.63C8.82254 5.63 8.93283 5.64 9.05314 5.68C9.05314 5.68 8.53178 4.42 9.64469 4.11C9.69482 4.1 9.75498 4.09 9.80511 4.09C10.2362 4.09 10.5871 4.57 10.5871 4.57C10.5871 4.57 10.6874 4.41 10.8478 4.41C10.918 4.41 10.9882 4.44 11.0784 4.51C11.0784 4.51 10.9782 3.96 11.3391 3.96C11.3993 3.96 11.4795 3.98 11.5797 4.02C11.5998 4.03 11.6198 4.04 11.6399 4.05C11.6399 4.05 11.6198 3.13 12.4019 2.97C12.442 2.96 12.4821 2.96 12.5322 2.95C12.5623 2.95 12.5824 2.95 12.6124 2.95H12.6325C12.6425 2.95 12.6626 2.95 12.6726 2.95C13.1037 2.97 13.3343 3.32 13.3343 3.32C13.3343 3.32 13.4747 2.98 13.7855 2.81C13.7855 2.82 13.7855 2.83 13.7855 2.84L13.8557 3.49C13.8657 3.55 13.9058 3.59 13.966 3.59H13.976C14.0362 3.58 14.0863 3.53 14.0763 3.47L14.0061 2.82C14.0061 2.79 13.986 2.76 13.9559 2.74C14.0061 2.73 14.0662 2.72 14.1264 2.72C14.2166 2.72 14.3069 2.74 14.4071 2.77C14.3971 2.79 14.3971 2.81 14.3971 2.83L14.4673 3.48C14.4773 3.54 14.5174 3.58 14.5776 3.58H14.5876C14.6478 3.57 14.6879 3.52 14.6879 3.46L14.6277 2.88C14.7681 2.96 14.9084 3.08 15.0689 3.24C15.0689 3.24 15.2995 1.33 16.8034 1.33C16.9036 1.33 17.0039 1.34 17.1142 1.36C18.8989 1.64 19.32 3.37 19.32 3.37C19.32 3.37 19.6408 3.2 20.0118 3.2C20.3727 3.2 20.7838 3.36 21.0144 3.99C21.0144 3.99 21.3653 3.59 21.8566 3.45C21.9268 3.43 21.9869 3.42 22.0571 3.41C22.0872 3.41 22.1273 3.4 22.1574 3.4C22.1774 3.4 22.1975 3.4 22.2276 3.4C22.4882 3.42 22.769 3.54 23.0497 3.83C23.2201 4.01 23.3004 4.34 23.3405 4.67C23.3906 5.15 23.3605 5.63 23.3605 5.63C23.3605 5.63 23.6513 5.46 23.8518 5.46C23.9922 5.46 24.0924 5.55 24.0122 5.84C24.0122 5.84 24.0222 5.84 24.0323 5.84C24.1225 5.84 24.4634 5.86 24.4032 6.2C24.4032 6.2 24.6739 6.05 25.0148 6.05C25.3156 6.05 25.6665 6.16 25.9573 6.57C25.9673 6.58 25.9773 6.59 25.9773 6.61C25.9874 6.62 25.9874 6.63 25.9974 6.63C26.0074 6.64 26.0074 6.65 26.0174 6.67C26.0375 6.7 26.0576 6.74 26.0776 6.77C26.5188 7.68 25.5863 8.43 25.5863 8.43C25.5863 8.43 26.599 8.57 26.5488 9.95C26.5087 11.08 25.466 11.08 25.466 11.08C25.466 11.08 26.1077 11.41 25.7167 12.04C25.6164 12.19 25.5161 12.25 25.4059 12.25C25.075 12.25 24.7441 11.7 24.7441 11.7C24.7441 11.7 24.5937 11.86 24.3932 11.86C24.3631 11.86 24.323 11.86 24.2929 11.85C24.2528 11.84 24.2027 11.82 24.1626 11.79C24.1125 11.75 24.0523 11.7 23.9922 11.62C23.9621 11.58 23.932 11.53 23.9019 11.47C23.9019 11.47 23.6613 11.82 23.2001 11.82C22.789 11.82 22.2175 11.54 21.4956 10.49C21.4956 10.49 21.2951 10.87 20.9843 10.87C20.8139 10.87 20.6234 10.76 20.4128 10.43C20.4128 10.43 20.1221 10.89 19.7511 10.89C19.5405 10.89 19.2999 10.74 19.0693 10.26C19.0693 10.26 18.1669 11.47 16.8635 11.47C16.673 11.47 16.4825 11.45 16.282 11.39C14.9185 11.01 14.8182 10.07 14.8182 10.07C14.8182 10.07 14.6578 10.33 14.4272 10.33C14.2868 10.33 14.1264 10.24 13.9559 9.95C13.9559 9.95 13.7855 10.08 13.5449 10.08C13.3343 10.08 13.0636 9.98 12.7929 9.61C12.7929 9.61 12.462 10.2 11.7602 10.2C11.4895 10.2 11.1687 10.11 10.7877 9.87C10.7877 9.87 10.8077 10.33 10.3365 10.42C10.3365 10.42 10.5671 10.98 9.92542 11.32C9.90537 11.33 9.89534 11.34 9.87529 11.35C9.87529 11.35 9.84521 11.36 9.79508 11.36C9.765 11.36 9.7249 11.36 9.68479 11.34C9.55445 11.3 9.43414 11.15 9.51435 10.73C9.51435 10.73 9.45419 10.75 9.37398 10.75C9.22359 10.75 9.00301 10.67 9.0732 10.19C9.05314 10.15 8.80249 10.43 8.47162 10.43ZM8.29115 16.84C8.39141 15.74 9.43414 12.63 9.81513 11.54C9.86526 11.54 9.89534 11.53 9.90537 11.53H9.92542L9.94547 11.52C10.527 11.24 10.5871 10.81 10.5571 10.54C10.7275 10.45 10.8378 10.32 10.898 10.18C11.1787 10.32 11.4594 10.39 11.7201 10.39C12.2214 10.39 12.5723 10.13 12.7628 9.93C13.0335 10.2 13.3042 10.27 13.5048 10.27C13.6351 10.27 13.7554 10.24 13.8457 10.21C14.0061 10.42 14.1966 10.53 14.3971 10.53C14.5074 10.53 14.6077 10.5 14.6879 10.45C14.8583 10.8 15.2594 11.32 16.1918 11.58C16.4023 11.64 16.6229 11.67 16.8335 11.67C17.8561 11.67 18.6382 11 18.9991 10.62C19.2097 10.93 19.4503 11.09 19.721 11.09C20.0017 11.09 20.2223 10.92 20.3727 10.77C20.5532 10.97 20.7437 11.07 20.9542 11.07C21.1748 11.07 21.3452 10.96 21.4656 10.84C22.0571 11.62 22.6286 12.02 23.18 12.02C23.4708 12.02 23.6914 11.91 23.8418 11.8C23.922 11.9 24.0122 11.96 24.0924 12.01C24.4133 13.17 25.0048 15.67 25.0048 15.67C25.0048 15.67 25.847 18.32 24.1827 20.39C24.0523 20.55 23.932 20.69 23.8117 20.83C23.7816 20.86 23.7616 20.89 23.7315 20.92C23.7014 20.95 23.6813 20.98 23.6513 21.01C23.3505 21.33 23.0597 21.59 22.769 21.8C22.7289 21.83 22.6888 21.86 22.6587 21.88C22.6186 21.91 22.5785 21.94 22.5384 21.96C21.8065 22.45 21.0946 22.7 20.3226 22.92C20.4429 22.77 20.5231 22.62 20.5833 22.5C20.6133 22.45 20.6434 22.4 20.6635 22.36C20.6935 22.31 20.6835 22.24 20.6334 22.21C20.5833 22.18 20.5131 22.19 20.483 22.24C20.473 22.26 20.4529 22.29 20.4429 22.31C20.4329 22.34 20.4128 22.36 20.3928 22.39C20.2925 22.57 20.1622 22.8 19.9215 23.02C19.8614 23.08 19.7812 23.14 19.701 23.19C19.5706 23.28 19.4202 23.36 19.2397 23.43C18.8287 23.59 18.2672 23.69 17.4852 23.68C17.1242 23.68 16.8134 23.65 16.5527 23.6C16.282 23.56 16.0514 23.5 15.8609 23.43C15.7206 23.38 15.5902 23.33 15.49 23.27C15.4398 23.25 15.3997 23.22 15.3596 23.2C15.0789 23.03 14.9485 22.87 14.9084 22.79C14.8984 22.77 14.8884 22.76 14.8884 22.75C14.8583 22.69 14.7981 22.67 14.738 22.69C14.6778 22.71 14.6578 22.78 14.6778 22.84C14.6879 22.86 14.7781 23.05 15.0588 23.26C15.0187 23.26 14.9686 23.26 14.9084 23.26C14.4172 23.26 13.4747 23.15 12.1512 22.47C10.136 21.44 9.09325 20.09 8.62202 18.86C8.60196 18.82 8.59194 18.78 8.57189 18.74C8.56186 18.7 8.54181 18.66 8.53178 18.62C8.40144 18.24 8.33126 17.88 8.30118 17.55C8.30118 17.51 8.29115 17.48 8.29115 17.44C8.29115 17.4 8.29115 17.36 8.28113 17.33C8.2711 17.16 8.2711 16.99 8.29115 16.84ZM20.9141 35.29C20.4329 35.29 19.9416 35.24 19.4503 35.13C17.3448 34.66 15.6704 33.27 14.7881 31.46L11.8204 30.8C10.6373 31.77 9.14338 32.33 7.54922 32.33C7.06796 32.33 6.57668 32.28 6.08539 32.17C2.54615 31.39 0.240126 27.97 0.801592 24.44C0.881802 27.61 3.11764 30.45 6.33605 31.16C6.83736 31.27 7.34869 31.33 7.85 31.33C9.41409 31.33 10.9481 30.79 12.1713 29.81L14.9285 30.42C15.891 32.31 17.6255 33.65 19.701 34.11C20.2023 34.22 20.7136 34.28 21.2149 34.28C22.779 34.28 24.323 33.74 25.5462 32.76C26.2481 32.2 26.8296 31.5 27.2707 30.72C26.3483 33.47 23.7716 35.29 20.9141 35.29ZM27.8422 28.37C27.8222 28.49 27.8021 28.61 27.772 28.73C27.752 28.81 27.742 28.89 27.7219 28.96C27.6718 29.16 27.6116 29.35 27.5515 29.55C26.609 32.27 24.0523 34.06 21.2149 34.06C20.7336 34.06 20.2424 34.01 19.7511 33.9C17.6456 33.43 15.9712 32.04 15.0889 30.23L12.1212 29.57C10.9381 30.54 9.43414 31.1 7.85 31.1C7.36874 31.1 6.87746 31.05 6.38618 30.94C2.86699 30.16 0.57099 26.78 1.09235 23.26C1.1124 23.12 1.13246 22.99 1.16254 22.85C1.17256 22.79 1.19261 22.73 1.20264 22.68C1.25277 22.48 1.3029 22.29 1.37308 22.1C2.29549 19.35 4.87222 17.53 7.72969 17.53C7.83997 17.53 7.95026 17.53 8.07058 17.54C8.10066 17.87 8.17084 18.23 8.28113 18.59C8.29115 18.63 8.30118 18.67 8.32123 18.71C8.33126 18.75 8.35131 18.79 8.36134 18.83C8.85262 20.17 9.97555 21.62 12.051 22.67C13.4346 23.38 14.4372 23.48 14.9084 23.48C15.0989 23.48 15.2293 23.46 15.2894 23.45C15.3195 23.45 15.3596 23.46 15.4198 23.47C15.8409 23.68 16.4926 23.86 17.4852 23.88C17.5253 23.88 17.5553 23.88 17.5955 23.88C18.8888 23.88 19.6107 23.56 20.0318 23.2C21.0044 22.94 21.8967 22.68 22.8191 22.01C22.8592 21.98 22.8893 21.96 22.9294 21.93C22.9595 21.9 22.9996 21.88 23.0296 21.85C23.3104 21.63 23.5911 21.37 23.8718 21.07C26.6491 22.31 28.3235 25.29 27.8422 28.37Z" fill="#3E2E2E"/>
<path d="M27.5119 2.69998C27.4618 3.38998 27.1911 5.12998 26.1283 6.40998C26.1183 6.39998 26.1082 6.38998 26.0982 6.36998C25.7473 5.89998 25.3162 5.79998 25.0054 5.79998C24.8349 5.79998 24.6845 5.82998 24.5642 5.85998C24.5442 5.82998 24.5341 5.80998 24.5141 5.77998C24.4439 5.68998 24.3436 5.63998 24.2534 5.61998C24.2534 5.51998 24.2233 5.42998 24.1732 5.35998C24.1231 5.28998 24.0228 5.20998 23.8423 5.20998C23.7621 5.20998 23.6719 5.22998 23.5816 5.25998C23.5816 5.02998 23.5716 4.73998 23.5215 4.44998C24.5241 3.43998 26.2386 1.90998 27.3916 1.84998C27.4818 1.99998 27.542 2.24998 27.5119 2.69998Z" fill="#E38569"/>
<path d="M25.5767 8.41006C25.5767 8.41006 26.5192 7.66006 26.068 6.75006C26.048 6.72006 26.0279 6.68006 26.0079 6.65006C25.9978 6.64006 25.9978 6.63006 25.9878 6.61006C25.9878 6.60006 25.9778 6.59006 25.9677 6.59006C25.9577 6.58006 25.9477 6.56006 25.9477 6.55006C25.6569 6.14006 25.306 6.03006 25.0052 6.03006C24.6643 6.03006 24.3936 6.18006 24.3936 6.18006C24.4538 5.85006 24.1129 5.82006 24.0227 5.82006C24.0126 5.82006 24.0026 5.82006 24.0026 5.82006C24.0828 5.53006 23.9826 5.44006 23.8422 5.44006C23.6417 5.44006 23.3509 5.61006 23.3509 5.61006C23.3509 5.61006 23.391 5.13006 23.3309 4.65006C23.2908 4.32006 23.2105 3.99006 23.0401 3.81006C22.7594 3.51006 22.4786 3.39006 22.218 3.38006C22.1979 3.38006 22.1779 3.38006 22.1478 3.38006C22.1177 3.38006 22.0776 3.38006 22.0475 3.39006C21.9773 3.40006 21.9071 3.41006 21.847 3.43006C21.3557 3.56006 21.0048 3.97006 21.0048 3.97006C20.7742 3.34006 20.3631 3.18006 20.0022 3.18006C19.6312 3.18006 19.3104 3.35006 19.3104 3.35006C19.3104 3.35006 18.8893 1.62006 17.1046 1.34006C16.9943 1.32006 16.8941 1.31006 16.7938 1.31006C15.2899 1.31006 15.0593 3.22006 15.0593 3.22006C14.8988 3.06006 14.7585 2.94006 14.6181 2.86006L14.6783 3.44006C14.6883 3.50006 14.6382 3.56006 14.578 3.56006H14.568C14.5078 3.56006 14.4677 3.52006 14.4577 3.46006L14.3875 2.81006C14.3875 2.79006 14.3875 2.77006 14.3975 2.75006C14.2973 2.71006 14.207 2.70006 14.1168 2.70006C14.0566 2.70006 14.0065 2.71006 13.9464 2.72006C13.9764 2.74006 13.9865 2.77006 13.9965 2.80006L14.0667 3.45006C14.0767 3.51006 14.0266 3.57006 13.9664 3.57006H13.9564C13.8962 3.57006 13.8561 3.53006 13.8461 3.47006L13.7759 2.82006C13.7759 2.81006 13.7759 2.80006 13.7759 2.79006C13.4751 2.96006 13.3247 3.30006 13.3247 3.30006C13.3247 3.30006 13.0941 2.95006 12.663 2.93006C12.653 2.93006 12.6329 2.93006 12.6229 2.93006H12.6028C12.5728 2.93006 12.5527 2.93006 12.5226 2.93006C12.4725 2.93006 12.4324 2.94006 12.3923 2.95006C11.6103 3.11006 11.6303 4.03006 11.6303 4.03006C11.6103 4.02006 11.5902 4.01006 11.5702 4.00006C11.4699 3.96006 11.3997 3.94006 11.3295 3.94006C10.9686 3.94006 11.0688 4.49006 11.0688 4.49006C10.9786 4.42006 10.9084 4.39006 10.8382 4.39006C10.6778 4.39006 10.5776 4.55006 10.5776 4.55006C10.5776 4.55006 10.2266 4.07006 9.79552 4.07006C9.74539 4.07006 9.69526 4.08006 9.6351 4.09006C8.52219 4.41006 9.04355 5.66006 9.04355 5.66006C8.91321 5.63006 8.80293 5.61006 8.71269 5.61006C8.27154 5.61006 8.10109 5.91006 8.04094 6.20006C8.02088 6.28006 8.01086 6.35006 8.01086 6.42006C8.00083 6.58006 8.01086 6.70006 8.01086 6.70006C6.918 8.25006 8.42193 8.54006 8.42193 8.54006C8.1412 8.80006 8.28156 9.12006 8.28156 9.12006C8.28156 9.12006 7.61984 9.88006 7.9908 10.2101C8.15122 10.3601 8.31164 10.4101 8.46204 10.4101C8.7929 10.4101 9.04355 10.1301 9.04355 10.1301C8.97337 10.6101 9.19395 10.6901 9.34434 10.6901C9.42455 10.6901 9.48471 10.6701 9.48471 10.6701C9.39447 11.0901 9.52481 11.2401 9.65515 11.2801C9.69526 11.2901 9.73536 11.3001 9.76544 11.3001C9.81557 11.3001 9.84565 11.2901 9.84565 11.2901C9.8657 11.2801 9.87573 11.2701 9.89578 11.2601C10.5274 10.9201 10.3069 10.3601 10.3069 10.3601C10.7781 10.2701 10.758 9.81006 10.758 9.81006C11.139 10.0501 11.4599 10.1401 11.7306 10.1401C12.4324 10.1401 12.7633 9.55006 12.7633 9.55006C13.0239 9.92006 13.2947 10.0201 13.5152 10.0201C13.7559 10.0201 13.9263 9.89006 13.9263 9.89006C14.0967 10.1801 14.2572 10.2701 14.3975 10.2701C14.6281 10.2701 14.7886 10.0101 14.7886 10.0101C14.7886 10.0101 14.8988 10.9401 16.2524 11.3301C16.4529 11.3901 16.6434 11.4101 16.8339 11.4101C18.1373 11.4101 19.0397 10.2001 19.0397 10.2001C19.2703 10.6801 19.5109 10.8301 19.7214 10.8301C20.0924 10.8301 20.3832 10.3701 20.3832 10.3701C20.5937 10.7001 20.7942 10.8101 20.9547 10.8101C21.2655 10.8101 21.466 10.4301 21.466 10.4301C22.1879 11.4801 22.7694 11.7601 23.1704 11.7601C23.6316 11.7601 23.8723 11.4101 23.8723 11.4101C23.9024 11.4701 23.9324 11.5201 23.9625 11.5601C24.0126 11.6401 24.0728 11.6901 24.133 11.7301C24.1831 11.7601 24.2232 11.7801 24.2633 11.7901C24.2934 11.8001 24.3335 11.8001 24.3636 11.8001C24.5641 11.8001 24.7145 11.6401 24.7145 11.6401C24.7145 11.6401 25.0453 12.1901 25.3762 12.1901C25.4865 12.1901 25.5868 12.1301 25.687 11.9801C26.078 11.3501 25.4364 11.0201 25.4364 11.0201C25.4364 11.0201 26.4691 11.0201 26.5192 9.89006C26.5793 8.54006 25.5767 8.41006 25.5767 8.41006ZM10.7179 8.12006C10.6477 8.12006 9.93588 8.11006 9.59499 7.74006C9.4446 7.58006 9.41452 7.42006 9.42455 7.28006C9.42455 7.24006 9.43458 7.20006 9.4446 7.17006C9.45463 7.13006 9.47468 7.10006 9.48471 7.07006C9.51478 7.01006 9.55489 6.96006 9.59499 6.92006C9.6351 6.88006 9.70528 6.88006 9.75541 6.92006C9.79552 6.96006 9.79552 7.03006 9.75541 7.08006C9.74539 7.09006 9.71531 7.12006 9.69526 7.16006C9.6752 7.19006 9.66518 7.22006 9.65515 7.26006C9.64513 7.30006 9.64512 7.34006 9.64512 7.38006C9.65515 7.45006 9.68523 7.52006 9.75541 7.60006C10.0361 7.91006 10.7079 7.91006 10.7179 7.91006C10.7781 7.91006 10.8282 7.96006 10.8282 8.02006C10.8282 8.07006 10.7781 8.12006 10.7179 8.12006ZM12.3923 9.26006C12.3923 9.27006 12.3823 9.28006 12.3823 9.29006C12.292 9.48006 11.9712 9.52006 11.6804 9.37006C11.6103 9.34006 11.5501 9.29006 11.4899 9.25006C11.4498 9.21006 11.4097 9.18006 11.3797 9.14006C11.3496 9.10006 11.3295 9.07006 11.3095 9.03006C11.2694 8.94006 11.2694 8.85006 11.3095 8.77006C11.3997 8.58006 11.7205 8.54006 12.0113 8.69006C12.1918 8.78006 12.3221 8.91006 12.3722 9.04006C12.3823 9.08006 12.3923 9.11006 12.4023 9.15006C12.4023 9.19006 12.4023 9.22006 12.3923 9.26006ZM12.8134 8.86006C12.7633 8.95006 12.6129 8.97006 12.4625 8.90006C12.3121 8.83006 12.2319 8.69006 12.282 8.60006C12.3321 8.51006 12.4825 8.49006 12.6329 8.56006C12.7733 8.63006 12.8535 8.77006 12.8134 8.86006ZM12.9638 5.70006C12.7232 5.85006 12.5126 5.92006 12.3221 5.92006C12.2219 5.92006 12.1216 5.90006 12.0414 5.86006C11.9511 5.81006 11.8709 5.75006 11.8208 5.67006C11.8008 5.64006 11.7807 5.61006 11.7606 5.58006C11.7406 5.55006 11.7205 5.51006 11.7105 5.48006C11.6203 5.29006 11.6103 5.11006 11.6103 5.10006C11.6002 5.04006 11.6504 4.98006 11.7105 4.98006C11.7707 4.97006 11.8308 5.02006 11.8308 5.08006C11.8308 5.08006 11.8409 5.19006 11.881 5.31006C11.891 5.35006 11.911 5.38006 11.9211 5.42006C11.9411 5.45006 11.9612 5.49006 11.9812 5.52006C12.0213 5.58006 12.0815 5.63006 12.1416 5.66006C12.3121 5.75006 12.5527 5.70006 12.8535 5.51006C12.9036 5.48006 12.9738 5.49006 13.0039 5.55006C13.0239 5.60006 13.0139 5.67006 12.9638 5.70006ZM16.3125 8.31006C16.2925 8.34006 16.2524 8.36006 16.2223 8.36006C16.2022 8.36006 16.1822 8.35006 16.1621 8.34006L15.731 8.05006C15.5907 8.15006 15.4102 8.24006 15.1996 8.29006L14.949 8.79006C14.9289 8.83006 14.8888 8.85006 14.8487 8.85006C14.8287 8.85006 14.8186 8.85006 14.7986 8.84006C14.7485 8.81006 14.7184 8.75006 14.7485 8.69006L14.9289 8.33006C14.8988 8.33006 14.8587 8.33006 14.8287 8.33006C14.7184 8.33006 14.588 8.32006 14.4577 8.29006C13.1142 8.02006 13.2345 7.04006 13.2345 7.03006C13.2445 6.97006 13.2947 6.93006 13.3648 6.94006C13.425 6.95006 13.4651 7.00006 13.4551 7.07006C13.4551 7.10006 13.3648 7.85006 14.4978 8.09006C15.0192 8.20006 15.4002 8.04006 15.6508 7.85006L15.6608 7.84006C15.8914 7.66006 16.0118 7.47006 16.0218 7.45006C16.0519 7.40006 16.122 7.38006 16.1722 7.41006C16.2223 7.44006 16.2424 7.51006 16.2123 7.56006C16.2123 7.56006 16.112 7.73006 15.9115 7.91006L16.2825 8.16006C16.3326 8.19006 16.3426 8.26006 16.3125 8.31006ZM21.8169 6.14006C21.8069 6.17006 21.7768 6.19006 21.7568 6.20006C21.7267 6.22006 21.6866 6.23006 21.6465 6.23006C21.6064 6.23006 21.5663 6.23006 21.5261 6.22006C21.476 6.21006 21.4259 6.19006 21.3758 6.17006C21.1853 6.08006 21.075 5.91006 21.1351 5.80006C21.1752 5.72006 21.2855 5.69006 21.4058 5.72006C21.4459 5.73006 21.486 5.74006 21.5261 5.75006C21.5462 5.76006 21.5562 5.76006 21.5763 5.77006C21.6064 5.78006 21.6364 5.80006 21.6565 5.82006C21.7969 5.92006 21.867 6.05006 21.8169 6.14006ZM21.9472 5.24006C21.8871 5.35006 21.7467 5.41006 21.5763 5.40006C21.5362 5.40006 21.4961 5.40006 21.456 5.39006C21.4159 5.38006 21.3758 5.38006 21.3357 5.36006C21.2755 5.34006 21.2153 5.32006 21.1552 5.29006C20.8143 5.13006 20.6238 4.83006 20.7241 4.64006C20.7942 4.49006 21.0148 4.44006 21.2655 4.50006C21.3056 4.51006 21.3357 4.52006 21.3758 4.53006C21.4159 4.54006 21.456 4.56006 21.486 4.58006C21.4961 4.58006 21.4961 4.59006 21.5061 4.59006C21.847 4.75006 22.0475 5.05006 21.9472 5.24006ZM24.544 10.2601C24.3435 10.3601 24.153 10.4001 23.9826 10.4001C23.5414 10.4001 23.2306 10.1501 23.2206 10.1401C23.1704 10.1001 23.1704 10.0301 23.2105 9.98006C23.2507 9.93006 23.3208 9.93006 23.371 9.97006C23.391 9.99006 23.8623 10.3601 24.4638 10.0701C25.0453 9.78006 24.8949 9.14006 24.8949 9.12006C24.8849 9.06006 24.915 9.00006 24.9752 8.98006C25.0353 8.97006 25.0955 9.00006 25.1155 9.06006C25.1556 9.34006 25.1356 9.96006 24.544 10.2601Z" fill="#D6BA9B"/>
<path d="M21.8169 6.14003C21.8069 6.17003 21.7768 6.19003 21.7567 6.20003C21.7267 6.22003 21.6866 6.23003 21.6464 6.23003C21.6063 6.23003 21.5662 6.23003 21.5261 6.22003C21.476 6.21003 21.4259 6.19003 21.3757 6.17003C21.1852 6.08003 21.075 5.91003 21.1351 5.80003C21.1752 5.72003 21.2855 5.69003 21.4058 5.72003C21.4459 5.73003 21.486 5.74003 21.5261 5.75003C21.5462 5.76003 21.5562 5.76003 21.5763 5.77003C21.6063 5.78003 21.6364 5.80003 21.6565 5.82003C21.7968 5.92003 21.867 6.05003 21.8169 6.14003Z" fill="#E8DCCD"/>
<path d="M15.5402 12.9499C15.3297 12.3299 14.8785 11.8199 14.287 11.5299C13.936 11.3599 13.5651 11.2799 13.1941 11.2799C12.2817 11.2799 11.3994 11.7899 10.9683 12.6499C10.6775 13.2399 10.6374 13.9099 10.848 14.5299C11.0585 15.1499 11.5097 15.6599 12.1013 15.9499C13.3244 16.5499 14.8184 16.0499 15.4199 14.8299C15.7107 14.2399 15.7508 13.5699 15.5402 12.9499ZM13.7255 13.9999C13.6754 14.0999 13.5952 14.1899 13.5049 14.2399C13.4147 14.2999 13.3044 14.3299 13.1941 14.3299C13.1039 14.3299 13.0136 14.3099 12.9334 14.2699C12.7931 14.1999 12.6828 14.0799 12.6326 13.9299C12.5825 13.7799 12.5925 13.6199 12.6627 13.4799C12.8031 13.1899 13.164 13.0699 13.4548 13.2099C13.5952 13.2799 13.7054 13.3999 13.7556 13.5499C13.8057 13.6999 13.7957 13.8599 13.7255 13.9999Z" fill="white"/>
<path d="M15.751 12.88C15.5204 12.2 15.0291 11.65 14.3875 11.33C13.054 10.67 11.4297 11.22 10.768 12.55C10.4472 13.19 10.397 13.92 10.6276 14.6C10.8582 15.28 11.3495 15.83 11.9912 16.15C12.3722 16.34 12.7833 16.43 13.1843 16.43C14.1769 16.43 15.1394 15.88 15.6106 14.93C15.9315 14.28 15.9816 13.56 15.751 12.88ZM15.4101 14.83C14.8085 16.05 13.3146 16.55 12.0915 15.95C11.4999 15.66 11.0487 15.15 10.8382 14.53C10.6276 13.91 10.6677 13.24 10.9585 12.65C11.3896 11.78 12.2719 11.28 13.1843 11.28C13.5553 11.28 13.9262 11.36 14.2772 11.53C14.8687 11.82 15.3199 12.33 15.5304 12.95C15.751 13.57 15.7109 14.24 15.4101 14.83Z" fill="#3E2E2E"/>
<path d="M22.8693 13.15C22.6588 12.52 22.2076 12.02 21.6161 11.73C21.2651 11.56 20.8942 11.48 20.5232 11.48C19.6108 11.48 18.7285 11.99 18.2974 12.85C18.0066 13.44 17.9665 14.11 18.1771 14.73C18.3876 15.36 18.8388 15.86 19.4304 16.15C20.6535 16.75 22.1474 16.25 22.749 15.03C23.0398 14.44 23.0799 13.77 22.8693 13.15ZM21.0546 14.2C21.0045 14.3 20.9243 14.39 20.834 14.44C20.7438 14.5 20.6335 14.53 20.5232 14.53C20.433 14.53 20.3427 14.51 20.2625 14.47C20.1222 14.4 20.0119 14.28 19.9617 14.13C19.9116 13.98 19.9216 13.82 19.9918 13.68C20.1322 13.39 20.4931 13.27 20.7839 13.41C20.9243 13.48 21.0345 13.6 21.0847 13.75C21.1348 13.9 21.1248 14.06 21.0546 14.2Z" fill="white"/>
<path d="M23.0801 13.08C22.8495 12.4 22.3582 11.85 21.7165 11.53C20.383 10.87 18.7588 11.42 18.0971 12.75C17.7762 13.39 17.7261 14.12 17.9667 14.8C18.1973 15.48 18.6886 16.03 19.3303 16.35C19.7113 16.54 20.1224 16.63 20.5234 16.63C21.516 16.63 22.4785 16.08 22.9497 15.13C23.2606 14.48 23.3107 13.76 23.0801 13.08ZM22.7492 15.03C22.1477 16.25 20.6537 16.75 19.4306 16.15C18.839 15.86 18.3878 15.35 18.1773 14.73C17.9667 14.11 18.0068 13.44 18.2976 12.85C18.7287 11.98 19.611 11.48 20.5234 11.48C20.8944 11.48 21.2653 11.56 21.6163 11.73C22.2078 12.02 22.659 12.53 22.8695 13.15C23.0801 13.77 23.04 14.44 22.7492 15.03Z" fill="#3E2E2E"/>
<path d="M13.7257 14C13.6756 14.1 13.5954 14.19 13.5052 14.24C13.4149 14.3 13.3046 14.33 13.1944 14.33C13.1041 14.33 13.0139 14.31 12.9337 14.27C12.7933 14.2 12.683 14.08 12.6329 13.93C12.5828 13.78 12.5928 13.62 12.663 13.48C12.8033 13.19 13.1643 13.07 13.455 13.21C13.5954 13.28 13.7057 13.4 13.7558 13.55C13.806 13.7 13.7959 13.86 13.7257 14Z" fill="#3E2E2E"/>
<path d="M21.0549 14.2C21.0047 14.3 20.9245 14.39 20.8343 14.44C20.744 14.5 20.6338 14.53 20.5235 14.53C20.4332 14.53 20.343 14.51 20.2628 14.47C20.1224 14.4 20.0121 14.28 19.962 14.13C19.9119 13.98 19.9219 13.82 19.9921 13.68C20.1324 13.39 20.4934 13.27 20.7841 13.41C20.9245 13.48 21.0348 13.6 21.0849 13.75C21.1351 13.9 21.125 14.06 21.0549 14.2Z" fill="#3E2E2E"/>
<path d="M17.0244 17.34C17.0143 17.34 17.0143 17.34 17.0043 17.35C16.9642 17.36 16.9241 17.37 16.884 17.37C16.8539 17.37 16.8138 17.37 16.7837 17.36C16.5431 17.32 16.2724 17.13 16.0719 16.96C15.7109 16.66 15.2397 16.09 15.2898 15.8C15.36 15.38 15.8713 15.15 16.6935 15.17C16.9341 15.15 18.047 15.09 18.1573 15.58C18.2676 16.07 17.5758 17.16 17.0244 17.34Z" fill="#3E2E2E"/>
<path d="M19.4609 18.61C19.4509 18.64 19.2804 19.26 18.5686 19.54C18.5084 19.57 18.4382 19.59 18.358 19.61C18.3079 19.62 18.2578 19.63 18.1976 19.64C18.1575 19.65 18.1174 19.65 18.0773 19.66C18.0272 19.66 17.9871 19.67 17.947 19.67C17.7063 19.67 17.5158 19.6 17.3755 19.51C17.3554 19.5 17.3454 19.49 17.3253 19.48C17.3053 19.47 17.2852 19.45 17.2752 19.44C17.2552 19.43 17.2451 19.41 17.2251 19.4C17.215 19.39 17.205 19.38 17.195 19.37C17.1549 19.32 17.1148 19.28 17.0847 19.23C17.0647 19.19 17.0346 19.16 17.0245 19.12C17.0145 19.15 16.9945 19.18 16.9744 19.2C16.9544 19.23 16.9343 19.27 16.9042 19.3C16.8842 19.33 16.8541 19.36 16.824 19.4C16.6636 19.57 16.423 19.71 16.0721 19.71C16.0019 19.71 15.9317 19.71 15.8515 19.69C15.1497 19.58 14.8088 19.17 14.6584 18.91C14.6283 18.86 14.6082 18.82 14.5982 18.78C14.5782 18.73 14.5681 18.69 14.5581 18.69C14.5581 18.68 14.5581 18.67 14.5581 18.66C14.5581 18.61 14.5882 18.57 14.6383 18.55C14.6985 18.53 14.7586 18.57 14.7787 18.63C14.7787 18.64 14.7887 18.67 14.8088 18.72C14.8288 18.76 14.8489 18.8 14.8789 18.85C14.909 18.89 14.9391 18.94 14.9792 18.98C15.1396 19.18 15.4204 19.4 15.8916 19.47C16.2024 19.52 16.423 19.45 16.5734 19.33C16.6135 19.3 16.6436 19.27 16.6736 19.24C16.7037 19.21 16.7338 19.18 16.7538 19.14C16.8742 18.98 16.9042 18.81 16.9042 18.8V18.79L16.7939 17.37C16.824 17.38 16.8641 17.38 16.8942 17.38C16.9343 17.38 16.9744 17.37 17.0145 17.36L17.1148 18.78C17.1148 18.79 17.1248 18.79 17.1248 18.8C17.1248 18.82 17.205 19.12 17.4657 19.31C17.6061 19.41 17.8066 19.48 18.0873 19.45C18.1074 19.45 18.1375 19.44 18.1575 19.44C19.0398 19.28 19.2303 18.6 19.2403 18.57C19.2604 18.51 19.3205 18.48 19.3807 18.49C19.4409 18.49 19.4709 18.55 19.4609 18.61Z" fill="#3E2E2E"/>
<path d="M21.6364 18.47C20.8644 18.55 20.2127 18.25 20.1626 17.82C20.1225 17.38 20.704 16.97 21.476 16.89C22.248 16.81 22.8997 17.11 22.9499 17.54C22.99 17.98 22.3984 18.4 21.6364 18.47Z" fill="#E38569"/>
<path d="M13.6054 17.55C13.5954 17.88 13.2244 18.15 12.7131 18.25C12.6028 18.27 12.4825 18.28 12.3622 18.29C12.312 18.29 12.2619 18.29 12.2118 18.29C11.8709 18.28 11.5701 18.19 11.3395 18.07C11.2492 18.02 11.169 17.96 11.0989 17.9C10.9485 17.77 10.8683 17.61 10.8783 17.44C10.8983 17 11.52 16.68 12.2819 16.71C13.0239 16.73 13.6255 17.11 13.6054 17.55Z" fill="#E38569"/>
<path d="M12.9637 5.70004C12.7231 5.85004 12.5125 5.92004 12.322 5.92004C12.2218 5.92004 12.1215 5.90004 12.0413 5.86004C11.9511 5.81004 11.8709 5.75004 11.8207 5.67004C11.8007 5.64004 11.7806 5.61004 11.7606 5.58004C11.7405 5.55004 11.7205 5.51004 11.7104 5.48004C11.6202 5.29004 11.6102 5.11004 11.6102 5.10004C11.6001 5.04004 11.6503 4.98004 11.7104 4.98004C11.7706 4.97004 11.8307 5.02004 11.8307 5.08004C11.8307 5.08004 11.8408 5.19004 11.8809 5.31004C11.8909 5.35004 11.911 5.38004 11.921 5.42004C11.941 5.45004 11.9611 5.49004 11.9811 5.52004C12.0212 5.58004 12.0814 5.63004 12.1416 5.66004C12.312 5.75004 12.5526 5.70004 12.8534 5.51004C12.9035 5.48004 12.9737 5.49004 13.0038 5.55004C13.0239 5.60004 13.0138 5.67004 12.9637 5.70004Z" fill="#3E2E2E"/>
<path d="M24.5441 10.26C24.3435 10.36 24.153 10.4 23.9826 10.4C23.5414 10.4 23.2306 10.15 23.2206 10.14C23.1705 10.1 23.1705 10.03 23.2106 9.98005C23.2507 9.93005 23.3209 9.93004 23.371 9.97004C23.391 9.99004 23.8623 10.36 24.4638 10.07C25.0454 9.78004 24.895 9.14004 24.895 9.12004C24.8849 9.06004 24.915 9.00004 24.9752 8.98004C25.0353 8.97004 25.0955 9.00004 25.1155 9.06004C25.1556 9.34004 25.1356 9.96004 24.5441 10.26Z" fill="#3E2E2E"/>
<path d="M10.8283 8.01001C10.8283 8.07001 10.7781 8.12001 10.718 8.12001C10.6478 8.12001 9.93593 8.11001 9.59504 7.74001C9.44465 7.58001 9.41457 7.42002 9.4246 7.28002C9.4246 7.24002 9.43462 7.20001 9.44465 7.17001C9.45468 7.13001 9.47473 7.10001 9.48476 7.07001C9.51483 7.01001 9.55494 6.96001 9.59504 6.92001C9.63515 6.88001 9.70533 6.88001 9.75546 6.92001C9.79557 6.96001 9.79557 7.03002 9.75546 7.08002C9.74544 7.09002 9.71536 7.12001 9.69531 7.16001C9.67525 7.19001 9.66523 7.22001 9.6552 7.26001C9.64518 7.30001 9.64517 7.34002 9.64517 7.38002C9.6552 7.45002 9.68528 7.52001 9.75546 7.60001C10.0362 7.91001 10.708 7.91001 10.718 7.91001C10.7781 7.90001 10.8283 7.95001 10.8283 8.01001Z" fill="#3E2E2E"/>
<path d="M12.4022 9.14996C12.4022 9.18996 12.4022 9.22996 12.3922 9.25996C12.3922 9.26996 12.3822 9.27996 12.3822 9.28996C12.2919 9.47996 11.9711 9.51996 11.6803 9.36996C11.6102 9.33996 11.55 9.28996 11.4898 9.24996C11.4497 9.20996 11.4096 9.17996 11.3796 9.13996C11.3495 9.09996 11.3294 9.06996 11.3094 9.02996C11.2693 8.93996 11.2693 8.84995 11.3094 8.76995C11.3996 8.57995 11.7204 8.53995 12.0112 8.68995C12.1917 8.77995 12.322 8.90996 12.3722 9.03996C12.3922 9.07996 12.4022 9.10996 12.4022 9.14996Z" fill="#E8DCCD"/>
<path d="M21.9472 5.23997C21.887 5.34997 21.7466 5.40997 21.5762 5.39997C21.5361 5.39997 21.496 5.39997 21.4559 5.38997C21.4158 5.37997 21.3757 5.37997 21.3356 5.35997C21.2754 5.33997 21.2152 5.31997 21.1551 5.28997C20.8142 5.12997 20.6237 4.82997 20.724 4.63997C20.7941 4.48997 21.0147 4.43997 21.2654 4.49997C21.3055 4.50997 21.3356 4.51997 21.3757 4.52997C21.4158 4.53997 21.4559 4.55997 21.486 4.57997C21.496 4.57997 21.496 4.58997 21.506 4.58997C21.8469 4.74997 22.0474 5.04997 21.9472 5.23997Z" fill="#E8DCCD"/>
<path d="M12.8134 8.86004C12.7633 8.95004 12.6129 8.97004 12.4625 8.90004C12.3121 8.83004 12.2319 8.69004 12.282 8.60004C12.3321 8.51004 12.4825 8.49004 12.6329 8.56004C12.7733 8.63004 12.8535 8.77004 12.8134 8.86004Z" fill="#E8DCCD"/>
<path d="M16.3123 8.31001C16.2922 8.34001 16.2521 8.36001 16.222 8.36001C16.202 8.36001 16.1819 8.35001 16.1619 8.34001L15.7307 8.05001C15.5904 8.15001 15.4099 8.24001 15.1994 8.29001L14.9487 8.79001C14.9286 8.83001 14.8885 8.85001 14.8484 8.85001C14.8284 8.85001 14.8184 8.85001 14.7983 8.84001C14.7482 8.81001 14.7181 8.75001 14.7482 8.69001L14.9286 8.33001C14.8986 8.33001 14.8585 8.33001 14.8284 8.33001C14.7181 8.33001 14.5878 8.32001 14.4574 8.29001C13.1139 8.02001 13.2342 7.04001 13.2342 7.03001C13.2442 6.97001 13.2944 6.93001 13.3646 6.94001C13.4247 6.95001 13.4648 7.00001 13.4548 7.07001C13.4548 7.10001 13.3646 7.85001 14.4975 8.09001C15.0189 8.20001 15.3999 8.04001 15.6505 7.85001L15.6606 7.84001C15.8912 7.66001 16.0115 7.47001 16.0215 7.45001C16.0516 7.40001 16.1218 7.38001 16.1719 7.41001C16.222 7.44001 16.2421 7.51001 16.212 7.56001C16.212 7.56001 16.1117 7.73001 15.9112 7.91001L16.2822 8.16001C16.3323 8.19001 16.3423 8.26001 16.3123 8.31001Z" fill="#3E2E2E"/>
<path d="M38.2898 21.8504C39.0718 21.8504 39.6333 21.7104 39.9642 21.4404C40.295 21.1704 40.4655 20.8404 40.4655 20.4504C40.4655 20.1004 40.3351 19.8104 40.0744 19.6004C39.8138 19.3904 39.4227 19.2004 38.9114 19.0404L37.7784 18.6904C37.1568 18.5004 36.5954 18.2904 36.094 18.0604C35.5927 17.8304 35.1616 17.5604 34.8107 17.2404C34.4598 16.9204 34.179 16.5504 33.9785 16.1104C33.778 15.6704 33.6777 15.1504 33.6777 14.5304C33.6777 13.2904 34.149 12.3104 35.0914 11.5904C36.0339 10.8704 37.3373 10.5104 39.0117 10.5104C39.6433 10.5104 40.2349 10.5504 40.7763 10.6404C41.3177 10.7304 41.7789 10.8704 42.1599 11.0504C42.5409 11.2304 42.8517 11.4604 43.0723 11.7304C43.2928 12.0004 43.4031 12.3104 43.4031 12.6604C43.4031 13.0004 43.3129 13.3004 43.1525 13.5604C42.982 13.8204 42.7815 14.0404 42.5609 14.2104C42.22 13.9704 41.7689 13.7704 41.2074 13.6104C40.6459 13.4504 40.0343 13.3704 39.3626 13.3704C38.6507 13.3704 38.1294 13.4804 37.7885 13.7004C37.4476 13.9204 37.2771 14.2004 37.2771 14.5404C37.2771 14.8404 37.3874 15.0604 37.608 15.2204C37.8286 15.3804 38.1795 15.5304 38.6507 15.7004L39.8539 16.1004C40.5457 16.3404 41.1573 16.5904 41.6887 16.8604C42.21 17.1304 42.6512 17.4404 43.0121 17.7904C43.363 18.1404 43.6337 18.5404 43.8142 18.9904C43.9947 19.4404 44.0849 19.9504 44.0849 20.5304C44.0849 21.1504 43.9646 21.7104 43.7139 22.2204C43.4733 22.7304 43.1024 23.1704 42.6311 23.5404C42.1499 23.9104 41.5583 24.2004 40.8565 24.4004C40.1547 24.6104 39.3425 24.7104 38.4301 24.7104C37.7484 24.7104 37.1167 24.6504 36.5452 24.5404C35.9637 24.4304 35.4724 24.2704 35.0513 24.0604C34.6302 23.8504 34.2994 23.6004 34.0487 23.3004C33.8081 23.0004 33.6777 22.6504 33.6777 22.2704C33.6777 21.8704 33.788 21.5404 34.0186 21.2704C34.2492 21.0004 34.4999 20.7904 34.7806 20.6304C35.1817 20.9504 35.683 21.2404 36.2745 21.4904C36.856 21.7304 37.5378 21.8504 38.2898 21.8504Z" fill="#FF4008"/>
<path d="M54.051 23.69C53.5798 23.99 52.9882 24.22 52.2964 24.39C51.6046 24.56 50.8326 24.64 49.9904 24.64C49.1883 24.64 48.4664 24.55 47.8147 24.39C47.163 24.22 46.6016 23.95 46.1404 23.58C45.6791 23.21 45.3082 22.75 45.0575 22.19C44.7968 21.63 44.6665 20.95 44.6665 20.15V13.71C44.8269 13.67 45.0475 13.62 45.3082 13.58C45.5789 13.54 45.8696 13.51 46.2005 13.51C46.8622 13.51 47.3435 13.62 47.6343 13.84C47.925 14.06 48.0654 14.48 48.0654 15.1V20.13C48.0654 20.79 48.2358 21.27 48.5767 21.56C48.9176 21.85 49.3989 21.99 50.0205 21.99C50.4015 21.99 50.7223 21.96 50.983 21.89C51.2437 21.82 51.4342 21.75 51.5745 21.68V13.71C51.7249 13.67 51.9255 13.62 52.1962 13.58C52.4669 13.54 52.7576 13.51 53.0885 13.51C53.7502 13.51 54.2315 13.62 54.5323 13.84C54.833 14.06 54.9734 14.48 54.9734 15.1V22.1C54.9634 22.79 54.6626 23.32 54.051 23.69Z" fill="#FF4008"/>
<path d="M61.4702 24.6401C61.0892 24.6401 60.7282 24.6101 60.4074 24.5401C60.0866 24.4701 59.7858 24.3901 59.5151 24.2901V28.2501C59.3647 28.2901 59.1642 28.3401 58.8935 28.3801C58.6228 28.4201 58.332 28.4501 58.0011 28.4501C57.3394 28.4501 56.8581 28.3401 56.5574 28.1201C56.2566 27.9001 56.1162 27.4801 56.1162 26.8601V15.9001C56.1162 15.5201 56.1964 15.2001 56.3568 14.9601C56.5173 14.7201 56.7479 14.5001 57.0486 14.3101C57.4898 14.0301 58.0613 13.8001 58.7531 13.6101C59.4449 13.4301 60.2169 13.3301 61.0591 13.3301C61.9214 13.3301 62.7034 13.4401 63.4253 13.6501C64.1472 13.8601 64.7588 14.2001 65.2801 14.6601C65.8015 15.1201 66.2025 15.7001 66.4933 16.4101C66.7841 17.1201 66.9244 17.9601 66.9244 18.9301C66.9244 19.8601 66.7841 20.6801 66.5133 21.4001C66.2426 22.1201 65.8616 22.7101 65.3704 23.1901C64.8791 23.6701 64.3076 24.0301 63.6358 24.2701C62.9741 24.5201 62.2522 24.6401 61.4702 24.6401ZM60.9588 21.9601C61.7609 21.9601 62.3725 21.7101 62.8137 21.2101C63.2548 20.7101 63.4654 19.9501 63.4654 18.9301C63.4654 17.8801 63.2548 17.1301 62.8337 16.6701C62.4126 16.2101 61.8211 15.9801 61.0691 15.9801C60.7282 15.9801 60.4375 16.0201 60.1768 16.1001C59.9262 16.1801 59.6956 16.2701 59.485 16.3801V21.5801C59.6956 21.7001 59.9161 21.7901 60.1467 21.8601C60.3974 21.9301 60.6581 21.9601 60.9588 21.9601Z" fill="#FF4008"/>
<path d="M70.504 20.3901C70.7146 21.0101 71.0755 21.4501 71.5869 21.7101C72.1082 21.9701 72.6998 22.1001 73.3816 22.1001C74.0032 22.1001 74.5847 22.0201 75.1361 21.8501C75.6876 21.6801 76.1287 21.4901 76.4696 21.2901C76.6902 21.4401 76.8807 21.6301 77.0211 21.8701C77.1714 22.1101 77.2416 22.3601 77.2416 22.6401C77.2416 22.9801 77.1414 23.2701 76.9308 23.5301C76.7203 23.7801 76.4395 23.9901 76.0786 24.1601C75.7177 24.3301 75.2865 24.4601 74.7952 24.5401C74.304 24.6201 73.7525 24.6601 73.161 24.6601C72.2887 24.6601 71.4766 24.5401 70.7447 24.2901C70.0027 24.0501 69.3711 23.6801 68.8397 23.2101C68.3083 22.7301 67.8872 22.1301 67.5864 21.4101C67.2856 20.6901 67.1353 19.8401 67.1353 18.8601C67.1353 17.9201 67.2856 17.1001 67.5864 16.4001C67.8872 15.7101 68.2983 15.1301 68.8096 14.6701C69.321 14.2101 69.9025 13.8801 70.5642 13.6601C71.2259 13.4501 71.8977 13.3401 72.5995 13.3401C73.3515 13.3401 74.0433 13.4501 74.6749 13.6801C75.3066 13.9101 75.848 14.2301 76.2992 14.6401C76.7503 15.0501 77.1013 15.5501 77.3519 16.1201C77.6026 16.7001 77.7329 17.3201 77.7329 18.0001C77.7329 18.4701 77.6026 18.8301 77.3519 19.0601C77.1013 19.3001 76.7403 19.4501 76.2891 19.5201L70.504 20.3901ZM72.6095 15.8301C71.9779 15.8301 71.4465 16.0301 71.0254 16.4201C70.6043 16.8101 70.3537 17.3801 70.2835 18.1101L74.5245 17.4201C74.4945 17.0401 74.324 16.6701 74.0132 16.3401C73.7024 16.0001 73.2312 15.8301 72.6095 15.8301Z" fill="#FF4008"/>
<path d="M81.7334 24.29C81.583 24.33 81.3824 24.37 81.1117 24.41C80.841 24.45 80.5503 24.47 80.2194 24.47C79.5577 24.47 79.0764 24.36 78.7756 24.15C78.4748 23.94 78.3345 23.52 78.3345 22.9V16.15C78.3345 15.74 78.4347 15.38 78.6453 15.09C78.8558 14.79 79.1366 14.54 79.5075 14.32C79.9988 14.02 80.5803 13.79 81.2721 13.62C81.964 13.45 82.6858 13.37 83.4378 13.37C84.9818 13.37 85.7438 13.89 85.7438 14.92C85.7438 15.17 85.7037 15.4 85.6335 15.61C85.5634 15.82 85.4832 15.99 85.3929 16.14C85.052 16.07 84.641 16.03 84.1497 16.03C83.7185 16.03 83.2874 16.08 82.8663 16.19C82.4352 16.29 82.0642 16.43 81.7334 16.61V24.29V24.29Z" fill="#FF4008"/>
<path d="M88.5809 23.86C88.25 23.53 88.0796 23.08 88.0796 22.52V12.73C88.0796 12.17 88.25 11.72 88.5809 11.39C88.9118 11.06 89.3629 10.89 89.9244 10.89H97.2736C97.3639 11.04 97.4441 11.22 97.5142 11.44C97.5844 11.66 97.6245 11.91 97.6245 12.19C97.6245 12.68 97.5143 13.04 97.3037 13.27C97.0932 13.51 96.7924 13.62 96.4013 13.62H91.4684V16.1H96.6219C96.7122 16.25 96.7924 16.43 96.8625 16.65C96.9327 16.87 96.9728 17.12 96.9728 17.4C96.9728 17.89 96.8726 18.25 96.662 18.47C96.4515 18.7 96.1607 18.81 95.7697 18.81H91.4584V21.58H97.3438C97.434 21.73 97.5142 21.92 97.5844 22.16C97.6546 22.4 97.6947 22.65 97.6947 22.93C97.6947 23.42 97.5844 23.77 97.3739 23.99C97.1633 24.21 96.8625 24.32 96.5016 24.32H89.9044C89.3629 24.36 88.9118 24.19 88.5809 23.86Z" fill="#FF4008"/>
<path d="M102.848 13.33C103.62 13.33 104.312 13.41 104.944 13.56C105.575 13.72 106.107 13.96 106.558 14.28C106.999 14.6 107.35 15.02 107.591 15.52C107.831 16.02 107.962 16.61 107.962 17.29V22.29C107.962 22.67 107.861 22.98 107.661 23.21C107.46 23.44 107.22 23.63 106.939 23.8C106.478 24.08 105.916 24.29 105.255 24.44C104.593 24.59 103.831 24.66 102.989 24.66C101.465 24.66 100.251 24.37 99.3491 23.79C98.4468 23.21 97.9956 22.32 97.9956 21.12C97.9956 20.1 98.2964 19.33 98.908 18.8C99.5196 18.27 100.442 17.94 101.705 17.8L104.653 17.49V17.25C104.653 16.78 104.462 16.43 104.071 16.21C103.69 15.99 103.129 15.88 102.407 15.88C101.846 15.88 101.294 15.95 100.753 16.08C100.211 16.21 99.7301 16.37 99.299 16.54C99.1185 16.42 98.9681 16.24 98.8478 16C98.7175 15.76 98.6573 15.49 98.6573 15.21C98.6573 14.56 98.9982 14.1 99.68 13.82C100.111 13.66 100.612 13.54 101.174 13.45C101.735 13.37 102.297 13.33 102.848 13.33ZM102.979 22.16C103.299 22.16 103.63 22.13 103.941 22.06C104.262 21.99 104.503 21.91 104.663 21.81V19.77L102.838 19.92C102.367 19.96 101.986 20.07 101.695 20.24C101.405 20.41 101.264 20.66 101.264 21C101.264 21.35 101.394 21.63 101.665 21.84C101.936 22.06 102.367 22.16 102.979 22.16Z" fill="#FF4008"/>
<path d="M117.827 21.1901C117.827 22.2801 117.416 23.1301 116.604 23.7501C115.792 24.3601 114.589 24.6701 113.005 24.6701C112.383 24.6701 111.821 24.6301 111.31 24.5401C110.799 24.4501 110.358 24.3201 109.987 24.1401C109.616 23.9601 109.325 23.7401 109.124 23.4801C108.914 23.2101 108.814 22.9001 108.814 22.5501C108.814 22.2301 108.884 21.9501 109.014 21.7201C109.144 21.4901 109.315 21.3001 109.525 21.1601C109.957 21.4101 110.438 21.6301 110.989 21.8201C111.541 22.0101 112.172 22.1101 112.894 22.1101C113.947 22.1101 114.468 21.8101 114.468 21.2201C114.468 20.9701 114.378 20.7801 114.188 20.6401C114.007 20.5101 113.686 20.3901 113.245 20.2901L112.353 20.0901C111.14 19.8401 110.237 19.4501 109.646 18.9301C109.054 18.4101 108.753 17.6701 108.753 16.7301C108.753 15.6801 109.175 14.8501 110.027 14.2401C110.879 13.6301 112.022 13.3201 113.456 13.3201C113.987 13.3201 114.488 13.3601 114.97 13.4401C115.441 13.5201 115.852 13.6401 116.193 13.8101C116.534 13.9701 116.804 14.1801 117.005 14.4201C117.206 14.6601 117.306 14.9501 117.306 15.2701C117.306 15.5701 117.246 15.8301 117.125 16.0601C117.005 16.2901 116.855 16.4801 116.664 16.6201C116.544 16.5501 116.373 16.4701 116.143 16.3801C115.912 16.2901 115.662 16.2101 115.401 16.1401C115.13 16.0701 114.849 16.0101 114.559 15.9601C114.258 15.9201 113.987 15.8901 113.736 15.8901C113.215 15.8901 112.814 15.9601 112.523 16.1001C112.233 16.2401 112.092 16.4501 112.092 16.7301C112.092 16.9401 112.172 17.1001 112.333 17.2201C112.493 17.3401 112.794 17.4501 113.225 17.5501L114.067 17.7501C115.411 18.0501 116.373 18.4701 116.955 19.0301C117.536 19.5801 117.827 20.3001 117.827 21.1901Z" fill="#FF4008"/>
<path d="M119.913 21.6501C119.572 20.9101 119.181 19.9501 118.75 18.7601C118.309 17.5701 117.857 16.0301 117.386 14.1401C117.567 13.9501 117.807 13.7801 118.128 13.6401C118.449 13.5001 118.79 13.4301 119.161 13.4301C119.632 13.4301 120.023 13.5301 120.314 13.7301C120.615 13.9301 120.835 14.2901 121.006 14.8301C121.327 15.9101 121.657 16.9701 121.998 18.0201C122.329 19.0701 122.67 20.1201 123.011 21.1901H123.101C123.282 20.6901 123.462 20.1401 123.653 19.5401C123.843 18.9401 124.034 18.3201 124.204 17.6801C124.374 17.0401 124.545 16.3901 124.705 15.7301C124.856 15.0701 124.996 14.4301 125.116 13.8101C125.578 13.5601 126.059 13.4301 126.56 13.4301C127.031 13.4301 127.442 13.5301 127.783 13.7401C128.124 13.9501 128.295 14.2901 128.295 14.7601C128.295 15.2901 128.204 15.9701 128.014 16.7901C127.834 17.6101 127.583 18.4701 127.282 19.3601C126.981 20.2501 126.64 21.1401 126.259 22.0201C125.878 22.9001 125.497 23.6701 125.096 24.3301C124.264 25.7301 123.522 26.7801 122.85 27.4601C122.189 28.1501 121.507 28.4901 120.835 28.4901C120.284 28.4901 119.833 28.3201 119.482 27.9901C119.131 27.6601 118.91 27.2301 118.84 26.7201C119.311 26.3101 119.803 25.8201 120.314 25.2701C120.825 24.7201 121.256 24.1601 121.617 23.6001C121.367 23.5301 121.106 23.3601 120.825 23.1001C120.534 22.8501 120.234 22.3601 119.913 21.6501Z" fill="#FF4008"/>
<path d="M142.843 22.27C142.843 22.7 142.762 23.02 142.602 23.22C142.442 23.43 142.181 23.63 141.83 23.84C141.619 23.96 141.369 24.07 141.078 24.17C140.777 24.27 140.456 24.36 140.085 24.44C139.724 24.51 139.343 24.57 138.952 24.62C138.561 24.66 138.17 24.69 137.789 24.69C136.727 24.69 135.734 24.55 134.822 24.28C133.909 24.01 133.117 23.58 132.435 23.01C131.754 22.43 131.222 21.7 130.841 20.82C130.46 19.93 130.26 18.87 130.26 17.63C130.26 16.46 130.46 15.43 130.851 14.54C131.242 13.65 131.774 12.9 132.445 12.3C133.117 11.7 133.909 11.25 134.822 10.95C135.734 10.65 136.717 10.5 137.759 10.5C139.133 10.5 140.226 10.71 141.048 11.14C141.86 11.57 142.271 12.11 142.271 12.78C142.271 13.12 142.181 13.42 142 13.68C141.82 13.94 141.619 14.14 141.379 14.29C141.008 14.05 140.547 13.83 139.995 13.63C139.444 13.42 138.782 13.32 138.03 13.32C137.408 13.32 136.847 13.42 136.336 13.62C135.824 13.82 135.383 14.1 135.012 14.47C134.641 14.84 134.35 15.29 134.15 15.82C133.939 16.35 133.839 16.95 133.839 17.61C133.839 18.33 133.939 18.96 134.14 19.5C134.34 20.04 134.621 20.49 134.972 20.84C135.323 21.19 135.754 21.46 136.245 21.64C136.737 21.82 137.278 21.91 137.86 21.91C138.211 21.91 138.541 21.87 138.822 21.8C139.113 21.73 139.333 21.65 139.504 21.58V19.08H136.947C136.857 18.93 136.777 18.74 136.707 18.5C136.636 18.26 136.596 18.01 136.596 17.75C136.596 17.28 136.707 16.93 136.927 16.71C137.148 16.49 137.439 16.38 137.789 16.38H141.519C141.93 16.38 142.261 16.49 142.492 16.72C142.732 16.95 142.843 17.27 142.843 17.68V22.27Z" fill="#3E2E2E"/>
<path d="M148.367 13.33C149.139 13.33 149.831 13.41 150.462 13.56C151.094 13.72 151.625 13.96 152.077 14.28C152.518 14.6 152.869 15.02 153.109 15.52C153.35 16.02 153.48 16.61 153.48 17.29V22.29C153.48 22.67 153.38 22.98 153.179 23.21C152.979 23.44 152.738 23.63 152.458 23.8C151.996 24.08 151.435 24.29 150.773 24.44C150.111 24.59 149.349 24.66 148.507 24.66C146.983 24.66 145.77 24.37 144.868 23.79C143.965 23.21 143.514 22.32 143.514 21.12C143.514 20.1 143.815 19.33 144.427 18.8C145.038 18.27 145.961 17.94 147.224 17.8L150.172 17.49V17.25C150.172 16.78 149.981 16.43 149.59 16.21C149.209 15.99 148.648 15.88 147.926 15.88C147.364 15.88 146.813 15.95 146.271 16.08C145.73 16.21 145.249 16.37 144.818 16.54C144.637 16.42 144.487 16.24 144.366 16C144.236 15.76 144.176 15.49 144.176 15.21C144.176 14.56 144.517 14.1 145.199 13.82C145.63 13.66 146.131 13.54 146.692 13.45C147.264 13.37 147.815 13.33 148.367 13.33ZM148.497 22.16C148.818 22.16 149.149 22.13 149.46 22.06C149.781 21.99 150.021 21.91 150.182 21.81V19.77L148.357 19.92C147.886 19.96 147.505 20.07 147.214 20.24C146.923 20.41 146.783 20.66 146.783 21C146.783 21.35 146.913 21.63 147.184 21.84C147.454 22.06 147.896 22.16 148.497 22.16Z" fill="#3E2E2E"/>
<path d="M170.766 24.29C170.605 24.33 170.385 24.37 170.124 24.41C169.853 24.45 169.563 24.47 169.232 24.47C168.57 24.47 168.089 24.36 167.798 24.15C167.507 23.94 167.367 23.52 167.367 22.9V17.4C167.367 16.91 167.237 16.56 166.966 16.33C166.695 16.1 166.334 15.99 165.883 15.99C165.582 15.99 165.312 16.04 165.051 16.14C164.79 16.24 164.56 16.38 164.349 16.54C164.359 16.61 164.379 16.69 164.379 16.76C164.389 16.83 164.389 16.91 164.389 16.98V24.29C164.229 24.33 164.008 24.37 163.747 24.41C163.477 24.45 163.186 24.47 162.855 24.47C162.193 24.47 161.712 24.36 161.421 24.15C161.131 23.94 160.99 23.52 160.99 22.9V17.4C160.99 16.91 160.84 16.56 160.549 16.33C160.248 16.1 159.887 15.99 159.466 15.99C159.155 15.99 158.875 16.04 158.624 16.13C158.373 16.23 158.163 16.32 158.002 16.41V24.29C157.852 24.33 157.651 24.37 157.381 24.41C157.11 24.45 156.819 24.47 156.488 24.47C155.827 24.47 155.345 24.36 155.045 24.15C154.744 23.94 154.604 23.52 154.604 22.9V16.06C154.604 15.68 154.684 15.37 154.844 15.13C155.005 14.89 155.235 14.67 155.536 14.47C156.027 14.13 156.629 13.86 157.341 13.65C158.063 13.44 158.805 13.34 159.597 13.34C160.218 13.34 160.81 13.43 161.361 13.59C161.913 13.76 162.424 14.02 162.885 14.38C163.326 14.08 163.828 13.84 164.399 13.64C164.961 13.44 165.622 13.34 166.394 13.34C166.976 13.34 167.527 13.41 168.049 13.55C168.57 13.69 169.041 13.92 169.432 14.24C169.833 14.56 170.154 14.97 170.395 15.48C170.635 15.99 170.766 16.61 170.766 17.33V24.29V24.29Z" fill="#3E2E2E"/>
<path d="M174.826 20.39C175.037 21.01 175.398 21.45 175.909 21.71C176.431 21.97 177.022 22.1 177.704 22.1C178.325 22.1 178.907 22.02 179.458 21.85C180.01 21.68 180.451 21.49 180.792 21.29C181.012 21.44 181.203 21.63 181.343 21.87C181.494 22.11 181.564 22.36 181.564 22.64C181.564 22.98 181.464 23.27 181.253 23.53C181.043 23.78 180.762 23.99 180.401 24.16C180.04 24.33 179.609 24.46 179.118 24.54C178.626 24.62 178.075 24.66 177.483 24.66C176.611 24.66 175.799 24.54 175.067 24.29C174.325 24.05 173.693 23.68 173.162 23.21C172.631 22.73 172.209 22.13 171.909 21.41C171.608 20.69 171.458 19.84 171.458 18.86C171.458 17.92 171.608 17.1 171.909 16.4C172.209 15.71 172.621 15.13 173.132 14.67C173.643 14.21 174.225 13.88 174.886 13.66C175.548 13.45 176.22 13.34 176.922 13.34C177.674 13.34 178.366 13.45 178.997 13.68C179.629 13.91 180.17 14.23 180.621 14.64C181.073 15.05 181.424 15.55 181.674 16.12C181.925 16.7 182.055 17.32 182.055 18C182.055 18.47 181.925 18.83 181.674 19.06C181.424 19.3 181.063 19.45 180.611 19.52L174.826 20.39ZM176.932 15.83C176.3 15.83 175.769 16.03 175.348 16.42C174.927 16.81 174.676 17.38 174.606 18.11L178.847 17.42C178.817 17.04 178.646 16.67 178.335 16.34C178.025 16 177.553 15.83 176.932 15.83Z" fill="#3E2E2E"/>
</g>
<defs>
<clipPath id="clip0_201_444">
<rect width="182.045" height="36" fill="white"/>
</clipPath>
</defs>
</svg>
