<svg xmlns="http://www.w3.org/2000/svg" xmlns:xlink="http://www.w3.org/1999/xlink" viewBox="0 0 172.79 53.66"><defs><clipPath id="a"><path d="M30.48,43.1c0,2.66-2.54,4.82-5.67,4.82s-5.67-2.16-5.67-4.82S21.68,41,24.81,41,30.48,40.44,30.48,43.1Z" fill="none"/></clipPath></defs><title>playgames-logo</title><path d="M60.76,36.45H82.38a1.6,1.6,0,0,1,1.6,1.6v4.8a5.6,5.6,0,0,1-5.6,5.6H56.76a1.6,1.6,0,0,1-1.6-1.6v-4.8A5.6,5.6,0,0,1,60.76,36.45Z" fill="#ff4008"/><path d="M57.79,44.9a1,1,0,0,1,.24-.69.92.92,0,0,1,1.3,0,1,1,0,0,1,.24.69,1,1,0,0,1-.24.69.89.89,0,0,1-1.3,0A1,1,0,0,1,57.79,44.9Z" fill="#fff"/><path d="M62.4,40.76a2.65,2.65,0,0,1,.74.11,1.73,1.73,0,0,1,.63.34,2.49,2.49,0,0,1,.63-.32,2.26,2.26,0,0,1,.83-.13,2.35,2.35,0,0,1,.69.1,1.59,1.59,0,0,1,.59.31,1.41,1.41,0,0,1,.42.56,2,2,0,0,1,.16.85v3.11l-.29.06a2.73,2.73,0,0,1-.41,0,1.86,1.86,0,0,1-.36,0,.65.65,0,0,1-.28-.12.61.61,0,0,1-.17-.24,1.09,1.09,0,0,1-.06-.4V42.63a.56.56,0,0,0-.15-.43.71.71,0,0,0-.43-.13.6.6,0,0,0-.27.07.64.64,0,0,0-.22.13s0,0,0,.07v3.35l-.3.06-.4,0a2.05,2.05,0,0,1-.37,0,.56.56,0,0,1-.27-.12.61.61,0,0,1-.17-.24,1.09,1.09,0,0,1-.06-.4V42.63a.54.54,0,0,0-.17-.43.69.69,0,0,0-.41-.13.65.65,0,0,0-.29.06,1.86,1.86,0,0,0-.2.1v3.46l-.29.06a2.73,2.73,0,0,1-.41,0,1.94,1.94,0,0,1-.36,0,.56.56,0,0,1-.27-.12.46.46,0,0,1-.17-.24.9.9,0,0,1-.07-.4V42a.72.72,0,0,1,.11-.42,1.17,1.17,0,0,1,.29-.3,2.58,2.58,0,0,1,.78-.38A3.12,3.12,0,0,1,62.4,40.76Z" fill="#fff"/><path d="M72.68,43.3a3.39,3.39,0,0,1-.17,1.1,2.41,2.41,0,0,1-.5.8,2,2,0,0,1-.76.49,2.76,2.76,0,0,1-1,.17,2.61,2.61,0,0,1-1-.18,2.08,2.08,0,0,1-.76-.51,2.3,2.3,0,0,1-.49-.8,3,3,0,0,1-.18-1.07,2.93,2.93,0,0,1,.18-1,2.44,2.44,0,0,1,.49-.81,2.06,2.06,0,0,1,.76-.5,2.61,2.61,0,0,1,1-.18,2.55,2.55,0,0,1,1,.18,2.12,2.12,0,0,1,.76.51,2.36,2.36,0,0,1,.5.81A3.11,3.11,0,0,1,72.68,43.3Zm-3.22,0a1.71,1.71,0,0,0,.21.93.71.71,0,0,0,.61.32.67.67,0,0,0,.59-.33,2.1,2.1,0,0,0,0-1.83.69.69,0,0,0-.6-.32.68.68,0,0,0-.6.32A1.68,1.68,0,0,0,69.46,43.3Z" fill="#fff"/><path d="M73.46,39.28l.3-.07a2.73,2.73,0,0,1,.41,0,2.05,2.05,0,0,1,.37,0,.66.66,0,0,1,.27.12.51.51,0,0,1,.16.24A1.09,1.09,0,0,1,75,40v1a1.6,1.6,0,0,1,.44-.14,2.09,2.09,0,0,1,.45,0,2,2,0,0,1,.84.17,2.08,2.08,0,0,1,.7.48,2.44,2.44,0,0,1,.48.8,3.08,3.08,0,0,1,.17,1.09,3.13,3.13,0,0,1-.18,1.12,2,2,0,0,1-.5.8,2.06,2.06,0,0,1-.78.48,3.5,3.5,0,0,1-2.06,0,2.44,2.44,0,0,1-.72-.38,1,1,0,0,1-.41-.79Zm2.16,5.26a.81.81,0,0,0,.66-.31,1.59,1.59,0,0,0,.23-.93,1.47,1.47,0,0,0-.24-.92.76.76,0,0,0-.64-.31,1,1,0,0,0-.32,0l-.29.12v2.15a.88.88,0,0,0,.24.11A1.25,1.25,0,0,0,75.62,44.54Z" fill="#fff"/><path d="M78.84,39.57a.88.88,0,0,1,.24-.63.79.79,0,0,1,.62-.25.8.8,0,0,1,.62.25.88.88,0,0,1,.24.63.93.93,0,0,1-.24.64.8.8,0,0,1-.62.25.79.79,0,0,1-.62-.25A.93.93,0,0,1,78.84,39.57Zm1.64,6.12-.3.06a2.6,2.6,0,0,1-.4,0,2,2,0,0,1-.36,0,.56.56,0,0,1-.27-.12.53.53,0,0,1-.17-.24,1.09,1.09,0,0,1-.06-.4V41l.3-.06a2.6,2.6,0,0,1,.4,0,2,2,0,0,1,.36,0,.67.67,0,0,1,.27.11.58.58,0,0,1,.17.25,1.09,1.09,0,0,1,.06.4Z" fill="#fff"/><path d="M67.31,17.36a6,6,0,0,0-4-1.26H57.45a1,1,0,0,0-1,1V31.8h3.39V25.53h3.47a5.91,5.91,0,0,0,4-1.26,4.37,4.37,0,0,0,1.47-3.46A4.34,4.34,0,0,0,67.31,17.36Zm-7.47,1.52H63a3,3,0,0,1,1.94.51,1.72,1.72,0,0,1,.6,1.44,1.72,1.72,0,0,1-.6,1.42,3.17,3.17,0,0,1-1.94.5H59.84Z" fill="#3e2e2e"/><path d="M70.74,31.8H74V16.6a1,1,0,0,0-1-1H71.74a1,1,0,0,0-1,1Z" fill="#3e2e2e"/><path d="M84.27,21.41a3.92,3.92,0,0,0-.89-.67,4.6,4.6,0,0,0-2.23-.54,4.77,4.77,0,0,0-2.64.76,5.11,5.11,0,0,0-1.79,2.12,7.17,7.17,0,0,0-.64,3.07,7,7,0,0,0,.63,3,4.87,4.87,0,0,0,1.79,2.06,4.92,4.92,0,0,0,2.65.72,4.71,4.71,0,0,0,2.23-.53,4,4,0,0,0,.89-.68v1h3.27V21.47a1,1,0,0,0-1-1H84.27Zm0,4.7a3.7,3.7,0,0,1-.64,2.34,2.09,2.09,0,0,1-1.77.78,2.21,2.21,0,0,1-1.8-.76,3.62,3.62,0,0,1-.65-2.32,3.83,3.83,0,0,1,.66-2.4,2.07,2.07,0,0,1,1.77-.81,2.12,2.12,0,0,1,1.79.78A3.78,3.78,0,0,1,84.27,26.11Z" fill="#3e2e2e"/><path d="M94.85,27.58,92,20.47h-3.5l4.58,10.62-.28.64a3.3,3.3,0,0,1-1.1,1.4,6.64,6.64,0,0,1-2.13.8l-.35.08L90,36.66l.29,0a7.85,7.85,0,0,0,3.37-1.26,6.84,6.84,0,0,0,2.27-3l5.16-11.85H97.75Z" fill="#3e2e2e"/><path d="M109.92,25.64h3.25v3.21a10.64,10.64,0,0,1-2.57.32,4.27,4.27,0,0,1-3.4-1.29,5.89,5.89,0,0,1-1.15-3.95,5.8,5.8,0,0,1,1.12-3.85,4,4,0,0,1,3.26-1.28,6.13,6.13,0,0,1,2.1.34,7.48,7.48,0,0,1,2,1.13l.33.26,1.21-2.59-.18-.17a6.76,6.76,0,0,0-2.43-1.37,9.7,9.7,0,0,0-3.08-.49,8.45,8.45,0,0,0-4.1,1,6.74,6.74,0,0,0-2.72,2.8,9.18,9.18,0,0,0-.94,4.25,9.31,9.31,0,0,0,.94,4.3A6.63,6.63,0,0,0,106.3,31a8.59,8.59,0,0,0,4.19,1,15.29,15.29,0,0,0,3-.3,10.72,10.72,0,0,0,2.58-.83l.18-.09V23h-5.37a1,1,0,0,0-1,1Z" fill="#3e2e2e"/><path d="M126.52,21.41a3.77,3.77,0,0,0-.9-.67,4.54,4.54,0,0,0-2.23-.54,4.74,4.74,0,0,0-2.63.76,5.13,5.13,0,0,0-1.8,2.12,7.78,7.78,0,0,0,0,6.11,4.87,4.87,0,0,0,1.79,2.06,4.92,4.92,0,0,0,2.65.72,4.65,4.65,0,0,0,2.23-.53,3.81,3.81,0,0,0,.9-.68v1h3.26V21.47a1,1,0,0,0-1-1h-2.26Zm0,4.7a3.7,3.7,0,0,1-.65,2.34,2.07,2.07,0,0,1-1.76.78,2.18,2.18,0,0,1-1.8-.76,3.56,3.56,0,0,1-.65-2.32,3.89,3.89,0,0,1,.65-2.4,2.39,2.39,0,0,1,3.56,0A3.78,3.78,0,0,1,126.52,26.11Z" fill="#3e2e2e"/><path d="M148.29,21.41a3.65,3.65,0,0,0-3-1.21,4.42,4.42,0,0,0-2.26.58,3.89,3.89,0,0,0-1.23,1.08,3.42,3.42,0,0,0-3.24-1.66,4.23,4.23,0,0,0-2.18.55,3.45,3.45,0,0,0-.95.79l-.12-1.07h-3.15l.05.38a24,24,0,0,1,.17,3v8h3.28V25.52a2.94,2.94,0,0,1,.56-1.91,1.78,1.78,0,0,1,1.47-.65,1.27,1.27,0,0,1,1.1.44,2.75,2.75,0,0,1,.36,1.61V31.8h3.31V25.52a3,3,0,0,1,.55-1.91A1.75,1.75,0,0,1,144.5,23a1.26,1.26,0,0,1,1.09.42,2.85,2.85,0,0,1,.35,1.63V31.8h3.31V24.92a5.54,5.54,0,0,0-1-3.51Z" fill="#3e2e2e"/><path d="M156.72,20.2a5.49,5.49,0,0,0-2.85.75,5.25,5.25,0,0,0-2,2.11,6.56,6.56,0,0,0-.69,3.05,5.78,5.78,0,0,0,1.59,4.29A6,6,0,0,0,157.17,32a7.6,7.6,0,0,0,2.35-.38,6.34,6.34,0,0,0,2-1l.2-.16-1-2.45-.34.27a5,5,0,0,1-3,1.07,2.73,2.73,0,0,1-2.05-.71,3.24,3.24,0,0,1-.73-2h7.32v-.74a6,6,0,0,0-1.36-4.13A4.79,4.79,0,0,0,156.72,20.2Zm-2.1,4.33a2.45,2.45,0,0,1,.68-1.23,2.06,2.06,0,0,1,1.49-.53,1.87,1.87,0,0,1,1.41.51,2.4,2.4,0,0,1,.59,1.25Z" fill="#3e2e2e"/><path d="M172,26.24a4.92,4.92,0,0,0-2.48-1.2l-1.8-.4a2.26,2.26,0,0,1-.91-.39.61.61,0,0,1-.19-.49.73.73,0,0,1,.36-.65,2.28,2.28,0,0,1,1.23-.28A5.22,5.22,0,0,1,171.26,24l.34.25,1.05-2.41-.2-.16a6,6,0,0,0-2-1.07,7.42,7.42,0,0,0-2.3-.36,6.21,6.21,0,0,0-2.44.45,3.91,3.91,0,0,0-1.68,1.28,3.23,3.23,0,0,0-.61,1.92c0,1.73,1.07,2.84,3.18,3.3l1.76.4a3.16,3.16,0,0,1,1.1.43.6.6,0,0,1,.23.51.64.64,0,0,1-.36.6,2.48,2.48,0,0,1-1.29.27,6.1,6.1,0,0,1-3.71-1.2L164,27.9l-1,2.5.2.15A7.59,7.59,0,0,0,168,32a5.72,5.72,0,0,0,3.43-.93,3.09,3.09,0,0,0,1.32-2.61A3,3,0,0,0,172,26.24Z" fill="#3e2e2e"/><path d="M28.87,11.83a18.4,18.4,0,0,0-.58-2.92,17,17,0,0,0-2.61-5.48A10.72,10.72,0,0,0,21.89.09.9.9,0,0,0,20.75.4a.9.9,0,0,0,0,1A7.67,7.67,0,0,1,21.63,5a11.58,11.58,0,0,1-.7,4.1A9.09,9.09,0,0,1,19.24,12C8.76,14.42,0,23.56,0,33.65,0,45.4,11.52,53.5,24.57,53.5s24.58-8.1,24.58-19.85C49.15,23.23,39.86,13.82,28.87,11.83Z" fill="#ff3e6c"/><path d="M49.15,34.65c0,11.75-11,19-24.58,19S0,46.4,0,34.65,11,11.44,24.57,11.44,49.15,22.91,49.15,34.65Z" fill="#ffb980"/><path d="M49.15,33.65c0,11.75-11,17-24.58,17S0,45.4,0,33.65,11,11.44,24.57,11.44,49.15,21.91,49.15,33.65Z" fill="#ffd2a1"/><path d="M49.15,33.65c0,11.75-11,17-24.58,17S0,45.4,0,33.65,11,13.44,24.57,13.44,49.15,21.91,49.15,33.65Z" fill="#ffd2a1"/><path d="M35.91,20.66H13.23a9.45,9.45,0,1,0,8.43,13.7h5.82a9.45,9.45,0,1,0,8.43-13.7Z" fill="#3e2e2e"/><path d="M35.91,40.9a10.74,10.74,0,0,1-9.22-5.2H22.45a10.79,10.79,0,1,1-9.22-16.38H35.91a10.79,10.79,0,1,1,0,21.58ZM20.84,33h7.47l.37.74A8.11,8.11,0,1,0,35.91,22H13.23a8.11,8.11,0,1,0,7.24,11.76Z" fill="#ff4008"/><rect x="8.03" y="28.22" width="10.4" height="3.78" rx="1.89" fill="#00ffa3"/><rect x="8.03" y="28.22" width="10.4" height="3.78" rx="1.89" transform="translate(43.34 16.88) rotate(90)" fill="#00ffa3"/><circle cx="35.91" cy="26.8" r="1.89" fill="#00ffa3"/><circle cx="35.91" cy="33.42" r="1.89" fill="#00ffa3"/><circle cx="32.61" cy="30.11" r="1.89" fill="#00ffa3"/><circle cx="39.22" cy="30.11" r="1.89" fill="#00ffa3"/><path d="M30.48,43.1c0,2.66-2.54,4.82-5.67,4.82s-5.67-2.16-5.67-4.82S21.68,41,24.81,41,30.48,40.44,30.48,43.1Z" fill="#ce1150"/><g clip-path="url(#a)"><ellipse cx="24.81" cy="47.52" rx="4.49" ry="3.18" fill="#ff3e17"/><rect x="22.58" y="39.04" width="4.45" height="3.87" rx="1.11" fill="#fff"/></g></svg>