<svg width="32" height="32" viewBox="0 0 32 32" fill="none" xmlns="http://www.w3.org/2000/svg">
<path d="M11.1285 21.5099L11.0277 21.9709C10.9857 22.1553 10.826 22.281 10.6495 22.281C10.6243 22.281 10.5907 22.281 10.5655 22.2726L9.40581 22.0212L9.16211 23.1778C9.12009 23.3622 8.96042 23.488 8.78395 23.488C8.75874 23.488 8.72512 23.488 8.69991 23.4796L8.23771 23.379C8.02763 23.3287 7.89317 23.1275 7.93519 22.9096L8.17889 21.753L7.0192 21.5015C6.80911 21.4512 6.67465 21.2417 6.71667 21.0321L6.81751 20.5712C6.85953 20.3868 7.0192 20.261 7.19567 20.261C7.22088 20.261 7.2545 20.261 7.27971 20.2694L8.4394 20.5209L8.6831 19.3642C8.72512 19.1798 8.88479 19.0541 9.06127 19.0541C9.08648 19.0541 9.12009 19.0541 9.1453 19.0625L9.6075 19.163C9.81759 19.2133 9.95205 19.4229 9.91003 19.6324L9.66632 20.7891L10.826 21.0405C11.0445 21.0908 11.179 21.3004 11.1285 21.5099Z" fill="#D7954E"/>
<path d="M9.75858 18.0734C8.90982 17.889 8.04425 18.0398 7.31314 18.5092C6.58202 18.9786 6.08621 19.7078 5.90133 20.5543C5.53158 22.3145 6.65766 24.0579 8.414 24.4434C9.26277 24.6278 10.1283 24.4769 10.8594 24.0076C11.5906 23.5382 12.0864 22.809 12.2712 21.9624C12.641 20.2023 11.5149 18.4589 9.75858 18.0734ZM11.3132 21.5517L11.2124 22.0127C11.1536 22.2726 10.9183 22.4653 10.6494 22.4653C10.6073 22.4653 10.5653 22.457 10.5233 22.4486L9.54849 22.2307L9.35521 23.2113C9.29638 23.4711 9.06108 23.6639 8.79217 23.6639C8.75015 23.6639 8.70813 23.6555 8.66611 23.6472L8.20392 23.5466C7.89298 23.4795 7.6913 23.1694 7.75853 22.8593L7.96861 21.8786L6.9938 21.6607C6.68287 21.5937 6.48118 21.2835 6.54841 20.9734L6.64925 20.5124C6.70808 20.2526 6.94338 20.0598 7.21229 20.0598C7.25431 20.0598 7.29633 20.0598 7.33835 20.0766L8.31316 20.2945L8.52325 19.3222C8.58208 19.054 8.81738 18.8696 9.08629 18.8696C9.12831 18.8696 9.17033 18.878 9.21234 18.8864L9.67454 18.987C9.98547 19.054 10.1872 19.3641 10.1199 19.6743L9.90984 20.6549L10.8847 20.8728C11.1788 20.9315 11.3805 21.2416 11.3132 21.5517Z" fill="#D7954E"/>
<path d="M15.9102 21.7948L13.8177 23.3957C13.7589 23.4376 13.6917 23.4628 13.6244 23.4628C13.5236 23.4628 13.4312 23.4209 13.3639 23.3371L13.2211 23.1527C13.1118 23.0102 13.137 22.809 13.2799 22.7L15.3724 21.0992C15.4312 21.0572 15.4984 21.0321 15.5657 21.0321C15.6581 21.0321 15.7589 21.074 15.8262 21.1578L15.969 21.3422C16.0783 21.4847 16.0531 21.6859 15.9102 21.7948Z" fill="#D7954E"/>
<path d="M18.1456 22.2809L16.0531 23.8818C15.9942 23.9237 15.927 23.9489 15.8598 23.9489C15.7589 23.9489 15.6665 23.907 15.5993 23.8231L15.4564 23.6387C15.3472 23.4963 15.3724 23.2951 15.5152 23.1861L17.6077 21.5852C17.6666 21.5433 17.7338 21.5182 17.801 21.5182C17.8935 21.5182 17.9943 21.5601 18.0615 21.6439L18.2044 21.8283C18.3136 21.9708 18.2884 22.1803 18.1456 22.2809Z" fill="#D7954E"/>
<path d="M21.7423 24.0914C21.6919 24.326 21.549 24.5272 21.3474 24.6613C21.1457 24.787 20.902 24.8373 20.6667 24.7787C20.1793 24.6697 19.8683 24.1836 19.9692 23.6974C20.0196 23.4627 20.1625 23.2616 20.3641 23.1275C20.507 23.0353 20.6751 22.985 20.8431 22.985C20.9104 22.985 20.9776 22.9934 21.0364 23.0101C21.5322 23.1191 21.8432 23.6052 21.7423 24.0914Z" fill="#D7954E"/>
<path d="M23.3388 26.3795C23.2884 26.6142 23.1455 26.8154 22.9438 26.9495C22.7421 27.0752 22.4984 27.1255 22.2631 27.0668C21.8346 26.9746 21.5488 26.5891 21.5488 26.17C21.5488 26.1113 21.5572 26.0443 21.5656 25.9772C21.6161 25.7425 21.7589 25.5414 21.9606 25.4073C22.1035 25.3151 22.2715 25.2648 22.4396 25.2648C22.5068 25.2648 22.5741 25.2732 22.6329 25.2899C23.1287 25.3989 23.4396 25.885 23.3388 26.3795Z" fill="#D7954E"/>
<path d="M24.1374 22.5994C24.0869 22.8341 23.9441 23.0353 23.7424 23.1694C23.5407 23.2951 23.297 23.3454 23.0617 23.2867C22.5743 23.1777 22.2634 22.6916 22.3642 22.2055C22.4146 21.9708 22.5575 21.7696 22.7592 21.6355C22.902 21.5433 23.0701 21.493 23.2382 21.493C23.3054 21.493 23.3726 21.5014 23.4315 21.5182C23.9273 21.6271 24.2382 22.1133 24.1374 22.5994Z" fill="#D7954E"/>
<path d="M25.6832 24.963C25.6328 25.1977 25.49 25.3989 25.2883 25.533C25.0866 25.6671 24.8429 25.709 24.6076 25.6503C24.1202 25.5414 23.8092 25.0552 23.9101 24.5691C23.9605 24.3344 24.1034 24.1333 24.3051 23.9992C24.5067 23.8734 24.7504 23.8231 24.9857 23.8818C25.4731 23.9908 25.7841 24.4769 25.6832 24.963Z" fill="#D7954E"/>
<path d="M26.8599 26.7399C26.0868 29.0449 23.9271 30.5787 21.532 30.5787C21.1287 30.5787 20.7169 30.5368 20.3051 30.4446C18.5404 30.0506 17.137 28.8856 16.3974 27.3685L13.91 26.8153C12.9184 27.6284 11.6662 28.0977 10.3301 28.0977C9.92669 28.0977 9.51492 28.0558 9.10314 27.9636C6.13668 27.3099 4.20385 24.4433 4.67446 21.4846C4.74168 24.1416 6.61568 26.522 9.31323 27.1171C9.73341 27.2093 10.162 27.2596 10.5822 27.2596C11.8931 27.2596 13.1789 26.807 14.2041 25.9856L16.5151 26.4968C17.3218 28.081 18.7757 29.2041 20.5152 29.5897C20.9354 29.6819 21.364 29.7321 21.7841 29.7321C23.0951 29.7321 24.3893 29.2795 25.4145 28.4581C26.0111 27.9804 26.4986 27.4021 26.8599 26.7399Z" fill="#D7954E"/>
<path d="M11.1285 21.5099L11.0277 21.9709C10.9857 22.1553 10.826 22.281 10.6495 22.281C10.6243 22.281 10.5907 22.281 10.5655 22.2726L9.40581 22.0212L9.16211 23.1778C9.12009 23.3622 8.96042 23.488 8.78395 23.488C8.75874 23.488 8.72512 23.488 8.69991 23.4796L8.23771 23.379C8.02763 23.3287 7.89317 23.1275 7.93519 22.9096L8.17889 21.753L7.0192 21.5015C6.80911 21.4512 6.67465 21.2417 6.71667 21.0321L6.81751 20.5712C6.85953 20.3868 7.0192 20.261 7.19567 20.261C7.22088 20.261 7.2545 20.261 7.27971 20.2694L8.4394 20.5209L8.6831 19.3642C8.72512 19.1798 8.88479 19.0541 9.06127 19.0541C9.08648 19.0541 9.12009 19.0541 9.1453 19.0625L9.6075 19.163C9.81759 19.2133 9.95205 19.4229 9.91003 19.6324L9.66632 20.7891L10.826 21.0405C11.0445 21.0908 11.179 21.3004 11.1285 21.5099Z" fill="#F3C247"/>
<path d="M9.75858 18.0734C8.90982 17.889 8.04425 18.0398 7.31314 18.5092C6.58202 18.9786 6.08621 19.7078 5.90133 20.5543C5.53158 22.3145 6.65766 24.0579 8.414 24.4434C9.26277 24.6278 10.1283 24.4769 10.8594 24.0076C11.5906 23.5382 12.0864 22.809 12.2712 21.9624C12.641 20.2023 11.5149 18.4589 9.75858 18.0734ZM11.3132 21.5517L11.2124 22.0127C11.1536 22.2726 10.9183 22.4653 10.6494 22.4653C10.6073 22.4653 10.5653 22.457 10.5233 22.4486L9.54849 22.2307L9.35521 23.2113C9.29638 23.4711 9.06108 23.6639 8.79217 23.6639C8.75015 23.6639 8.70813 23.6555 8.66611 23.6472L8.20392 23.5466C7.89298 23.4795 7.6913 23.1694 7.75853 22.8593L7.96862 21.8786L6.9938 21.6607C6.68287 21.5937 6.48118 21.2835 6.54841 20.9734L6.64925 20.5124C6.70808 20.2526 6.94338 20.0598 7.21229 20.0598C7.25431 20.0598 7.29633 20.0598 7.33835 20.0766L8.31316 20.2945L8.52325 19.3222C8.58208 19.054 8.81738 18.8696 9.08629 18.8696C9.12831 18.8696 9.17033 18.878 9.21235 18.8864L9.67454 18.987C9.98547 19.054 10.1872 19.3641 10.1199 19.6743L9.90984 20.6549L10.8847 20.8728C11.1788 20.9315 11.3805 21.2416 11.3132 21.5517Z" fill="#F3C247"/>
<path d="M15.9102 21.7948L13.8177 23.3957C13.7589 23.4376 13.6917 23.4628 13.6244 23.4628C13.5236 23.4628 13.4312 23.4209 13.3639 23.3371L13.2211 23.1527C13.1118 23.0102 13.137 22.809 13.2799 22.7L15.3724 21.0992C15.4312 21.0572 15.4984 21.0321 15.5657 21.0321C15.6581 21.0321 15.7589 21.074 15.8262 21.1578L15.969 21.3422C16.0783 21.4847 16.0531 21.6859 15.9102 21.7948Z" fill="#F3C247"/>
<path d="M18.1456 22.2809L16.0531 23.8818C15.9942 23.9237 15.927 23.9489 15.8598 23.9489C15.7589 23.9489 15.6665 23.907 15.5993 23.8231L15.4564 23.6387C15.3472 23.4963 15.3724 23.2951 15.5152 23.1861L17.6077 21.5852C17.6666 21.5433 17.7338 21.5182 17.801 21.5182C17.8935 21.5182 17.9943 21.5601 18.0615 21.6439L18.2044 21.8283C18.3136 21.9708 18.2884 22.1803 18.1456 22.2809Z" fill="#F3C247"/>
<path d="M21.7423 24.0914C21.6919 24.326 21.549 24.5272 21.3474 24.6613C21.1457 24.787 20.902 24.8373 20.6667 24.7787C20.1793 24.6697 19.8683 24.1836 19.9692 23.6974C20.0196 23.4627 20.1625 23.2616 20.3641 23.1275C20.507 23.0353 20.6751 22.985 20.8431 22.985C20.9104 22.985 20.9776 22.9934 21.0364 23.0101C21.5322 23.1191 21.8432 23.6052 21.7423 24.0914Z" fill="#F3C247"/>
<path d="M23.3388 26.3795C23.2884 26.6142 23.1455 26.8154 22.9438 26.9495C22.7421 27.0752 22.4984 27.1255 22.2631 27.0668C21.8346 26.9746 21.5488 26.5891 21.5488 26.17C21.5488 26.1113 21.5572 26.0443 21.5656 25.9772C21.6161 25.7425 21.7589 25.5414 21.9606 25.4073C22.1035 25.3151 22.2715 25.2648 22.4396 25.2648C22.5068 25.2648 22.5741 25.2732 22.6329 25.2899C23.1287 25.3989 23.4396 25.885 23.3388 26.3795Z" fill="#F3C247"/>
<path d="M24.1374 22.5994C24.0869 22.8341 23.9441 23.0353 23.7424 23.1694C23.5407 23.2951 23.297 23.3454 23.0617 23.2867C22.5743 23.1777 22.2634 22.6916 22.3642 22.2055C22.4146 21.9708 22.5575 21.7696 22.7592 21.6355C22.902 21.5433 23.0701 21.493 23.2382 21.493C23.3054 21.493 23.3726 21.5014 23.4315 21.5182C23.9273 21.6271 24.2382 22.1133 24.1374 22.5994Z" fill="#F3C247"/>
<path d="M25.6832 24.963C25.6328 25.1977 25.49 25.3989 25.2883 25.533C25.0866 25.6671 24.8429 25.709 24.6076 25.6503C24.1202 25.5414 23.8092 25.0552 23.9101 24.5691C23.9605 24.3344 24.1034 24.1333 24.3051 23.9992C24.5067 23.8734 24.7504 23.8231 24.9857 23.8818C25.4731 23.9908 25.7841 24.4769 25.6832 24.963Z" fill="#F3C247"/>
<path d="M24.0114 18.6602C23.7761 18.92 23.5408 19.1296 23.3055 19.314C23.2718 19.3391 23.2466 19.3559 23.2214 19.381C23.1878 19.4062 23.1626 19.4229 23.129 19.4481C22.3559 20.0013 21.6079 20.2276 20.7928 20.4455C20.4398 20.7472 19.8348 21.0155 18.7507 21.0155C18.7171 21.0155 18.6919 21.0155 18.6583 21.0155C17.8263 21.0071 17.2801 20.8478 16.9271 20.6718C16.8767 20.6634 16.8431 20.6634 16.8179 20.655C16.7675 20.6634 16.6582 20.6802 16.4986 20.6802C16.1036 20.6802 15.2632 20.588 14.1035 20.0013C12.364 19.1128 11.4228 17.9059 11.011 16.7827C11.0026 16.7492 10.9858 16.7157 10.9774 16.6821C10.969 16.6486 10.9522 16.6151 10.9438 16.5816C10.8514 16.2798 10.7925 15.9781 10.7673 15.7015C10.6749 15.6931 10.574 15.6931 10.4816 15.6931C8.08658 15.6931 5.92686 17.2186 5.15373 19.5235C5.10331 19.6828 5.05289 19.842 5.01087 20.0097C5.00246 20.0599 4.98566 20.1019 4.97725 20.1521C4.95204 20.2695 4.93524 20.3784 4.91843 20.4958C4.47304 23.4461 6.39746 26.2791 9.35552 26.9329C9.76729 27.0251 10.1791 27.067 10.5824 27.067C11.9102 27.067 13.1707 26.5976 14.1624 25.7846L16.6498 26.3378C17.3977 27.8465 18.7927 29.0199 20.5575 29.4138C20.9693 29.506 21.381 29.548 21.7844 29.548C24.1626 29.548 26.3055 28.0476 27.0955 25.7678C27.1543 25.6086 27.1963 25.441 27.2383 25.2733C27.2551 25.2063 27.272 25.1476 27.2804 25.0805C27.3056 24.98 27.3224 24.8794 27.3392 24.7788C27.7426 22.1973 26.3392 19.6995 24.0114 18.6602ZM12.4564 21.9961C12.2632 22.8929 11.7337 23.664 10.9606 24.1586C10.406 24.519 9.76729 24.7034 9.12022 24.7034C8.86811 24.7034 8.62441 24.6782 8.3723 24.6196C6.75881 24.2591 5.64954 22.8175 5.64954 21.225C5.64954 20.9903 5.67475 20.7472 5.72517 20.5126C5.91845 19.6157 6.44788 18.8446 7.22101 18.3501C7.99414 17.8556 8.91013 17.6879 9.80931 17.8891C11.6581 18.2998 12.8514 20.1438 12.4564 21.9961ZM13.9355 23.5467C13.843 23.6138 13.7422 23.6473 13.6245 23.6473C13.4649 23.6473 13.3136 23.5718 13.2212 23.4461L13.0783 23.2617C12.9102 23.0354 12.9523 22.7169 13.1707 22.5493L15.2632 20.9484C15.3557 20.8813 15.4565 20.8478 15.5742 20.8478C15.7338 20.8478 15.8851 20.9233 15.9775 21.049L16.1204 21.2334C16.2885 21.4597 16.2465 21.7782 16.028 21.9458L13.9355 23.5467ZM18.2633 22.4319L16.1708 24.0328C16.0784 24.0999 15.9775 24.1334 15.8599 24.1334C15.7002 24.1334 15.549 24.058 15.4565 23.9323L15.3137 23.7479C15.1456 23.5216 15.1876 23.2031 15.4061 23.0354L17.4986 21.4345C17.591 21.3675 17.6919 21.334 17.8095 21.334C17.9692 21.334 18.1205 21.4094 18.2129 21.5351L18.3558 21.7195C18.5238 21.9458 18.4818 22.2643 18.2633 22.4319ZM22.1878 22.1721C22.2466 21.8871 22.4147 21.6441 22.6584 21.4848C22.9021 21.3256 23.1962 21.2753 23.4819 21.334C24.0702 21.4681 24.4484 22.0464 24.3223 22.6331C24.2635 22.9181 24.0954 23.1611 23.8517 23.3204C23.6752 23.4377 23.4735 23.4964 23.2718 23.4964C23.1962 23.4964 23.1122 23.488 23.0365 23.4713C22.4399 23.3372 22.0617 22.7588 22.1878 22.1721ZM20.6331 24.9632C20.0449 24.8375 19.6667 24.2508 19.7928 23.664C19.8516 23.3791 20.0197 23.136 20.2634 22.9768C20.5071 22.8175 20.8012 22.7672 21.0869 22.8343C21.6752 22.96 22.0533 23.5467 21.9273 24.1334C21.8685 24.4184 21.7004 24.6615 21.4567 24.8207C21.2802 24.9381 21.0785 24.9883 20.8684 24.9883C20.7928 24.9883 20.7088 24.98 20.6331 24.9632ZM23.5156 26.4132C23.4567 26.6982 23.2887 26.9413 23.045 27.1005C22.8685 27.2179 22.6668 27.2765 22.4567 27.2765C22.3811 27.2765 22.297 27.2681 22.2214 27.2514C21.6332 27.1257 21.255 26.5389 21.381 25.9522C21.4147 25.8097 21.4651 25.6756 21.5491 25.5583C21.6332 25.441 21.734 25.3404 21.8516 25.2649C22.0953 25.1057 22.3895 25.0554 22.6752 25.1141C23.2634 25.2398 23.6416 25.8265 23.5156 26.4132ZM25.8686 25.0051C25.8097 25.2901 25.6417 25.5332 25.398 25.6924C25.2215 25.8097 25.0198 25.8684 24.8097 25.8684C24.7341 25.8684 24.65 25.86 24.5744 25.8433C23.9862 25.7175 23.608 25.1308 23.734 24.5441C23.7677 24.4016 23.8181 24.2675 23.9021 24.1502C23.9862 24.0328 24.087 23.9323 24.2046 23.8568C24.4483 23.6976 24.7425 23.6473 25.0282 23.7143C25.6164 23.8317 25.9862 24.41 25.8686 25.0051Z" fill="#F3C247"/>
<path d="M21.087 22.8343C20.8012 22.7672 20.5071 22.8259 20.2634 22.9767C20.0197 23.136 19.8516 23.3791 19.7928 23.664C19.6667 24.2507 20.0449 24.8375 20.6332 24.9632C20.7088 24.9799 20.7928 24.9883 20.8685 24.9883C21.0701 24.9883 21.2718 24.9297 21.4567 24.8207C21.7004 24.6614 21.8685 24.4184 21.9273 24.1334C22.0534 23.5467 21.6752 22.96 21.087 22.8343ZM21.7424 24.0915C21.692 24.3262 21.5491 24.5273 21.3475 24.6614C21.1458 24.7872 20.9021 24.8375 20.6668 24.7788C20.1794 24.6698 19.8684 24.1837 19.9693 23.6976C20.0197 23.4629 20.1626 23.2617 20.3642 23.1276C20.5071 23.0354 20.6752 22.9851 20.8432 22.9851C20.9105 22.9851 20.9777 22.9935 21.0365 23.0103C21.5323 23.1192 21.8433 23.6054 21.7424 24.0915Z" fill="#3E2E2E"/>
<path d="M24.1369 22.5997C24.0864 22.8343 23.9436 23.0355 23.7419 23.1696C23.5402 23.2953 23.2965 23.3456 23.0612 23.2869C22.5738 23.178 22.2629 22.6919 22.3637 22.2057C22.4141 21.971 22.557 21.7699 22.7587 21.6358C22.9015 21.5436 23.0696 21.4933 23.2377 21.4933C23.3049 21.4933 23.3721 21.5017 23.431 21.5184C23.9268 21.6274 24.2377 22.1135 24.1369 22.5997Z" fill="#39AD36"/>
<path d="M23.4815 21.334C23.1958 21.2753 22.9016 21.3256 22.6579 21.4849C22.4142 21.6441 22.2462 21.8872 22.1873 22.1722C22.0613 22.7589 22.4394 23.3456 23.0277 23.4713C23.1033 23.4881 23.1874 23.4965 23.263 23.4965C23.4647 23.4965 23.6664 23.4378 23.8428 23.3204C24.0865 23.1612 24.2546 22.9181 24.3134 22.6331C24.4479 22.0464 24.0697 21.4681 23.4815 21.334ZM24.137 22.5996C24.0865 22.8343 23.9437 23.0355 23.742 23.1696C23.5403 23.2953 23.2966 23.3456 23.0613 23.2869C22.5739 23.178 22.263 22.6918 22.3638 22.2057C22.4142 21.971 22.5571 21.7698 22.7588 21.6357C22.9016 21.5435 23.0697 21.4932 23.2378 21.4932C23.305 21.4932 23.3722 21.5016 23.4311 21.5184C23.9269 21.6274 24.2378 22.1135 24.137 22.5996Z" fill="#3E2E2E"/>
<path d="M22.6753 25.114C22.3896 25.0554 22.0955 25.1056 21.8518 25.2649C21.7257 25.3403 21.6249 25.4409 21.5492 25.5583C21.4736 25.6756 21.4148 25.8097 21.3812 25.9522C21.2551 26.5389 21.6333 27.1256 22.2215 27.2513C22.2972 27.2681 22.3812 27.2765 22.4568 27.2765C22.6585 27.2765 22.8602 27.2178 23.0451 27.1005C23.2888 26.9412 23.4569 26.6982 23.5157 26.4132C23.6417 25.8265 23.2636 25.2398 22.6753 25.114ZM23.3392 26.3797C23.2888 26.6143 23.1459 26.8155 22.9442 26.9496C22.7426 27.0753 22.4989 27.1256 22.2636 27.0669C21.835 26.9747 21.5492 26.5892 21.5492 26.1701C21.5492 26.1114 21.5577 26.0444 21.5661 25.9773C21.6165 25.7426 21.7593 25.5415 21.961 25.4074C22.1039 25.3152 22.272 25.2649 22.44 25.2649C22.5073 25.2649 22.5745 25.2733 22.6333 25.29C23.1291 25.399 23.4401 25.8851 23.3392 26.3797Z" fill="#3E2E2E"/>
<path d="M23.3393 26.3797C23.2889 26.6143 23.146 26.8155 22.9443 26.9496C22.7426 27.0753 22.4989 27.1256 22.2636 27.0669C21.835 26.9747 21.5493 26.5892 21.5493 26.1701C21.5493 26.1114 21.5577 26.0444 21.5661 25.9773C21.6165 25.7426 21.7594 25.5415 21.9611 25.4074C22.104 25.3152 22.272 25.2649 22.4401 25.2649C22.5073 25.2649 22.5746 25.2733 22.6334 25.29C23.1292 25.399 23.4401 25.8851 23.3393 26.3797Z" fill="#E5AE1D"/>
<path d="M21.7418 24.0914C21.6914 24.326 21.5486 24.5272 21.3469 24.6613C21.1452 24.787 20.9015 24.8373 20.6662 24.7787C20.1788 24.6697 19.8678 24.1836 19.9687 23.6974C20.0191 23.4627 20.162 23.2616 20.3637 23.1275C20.5065 23.0353 20.6746 22.985 20.8427 22.985C20.9099 22.985 20.9771 22.9934 21.0359 23.0101C21.5317 23.1191 21.8427 23.6052 21.7418 24.0914Z" fill="#CB2C23"/>
<path d="M25.6833 24.963C25.6328 25.1977 25.49 25.3989 25.2883 25.533C25.0866 25.6671 24.8429 25.709 24.6076 25.6503C24.1202 25.5414 23.8092 25.0552 23.9101 24.5691C23.9605 24.3344 24.1034 24.1333 24.3051 23.9992C24.5068 23.8734 24.7505 23.8231 24.9858 23.8818C25.4732 23.9908 25.7841 24.4769 25.6833 24.963Z" fill="#1780C2"/>
<path d="M25.0279 23.6974C24.7421 23.6388 24.448 23.6891 24.2043 23.8399C24.0783 23.9154 23.9774 24.0159 23.9018 24.1333C23.8262 24.2506 23.7673 24.3847 23.7337 24.5272C23.6077 25.1139 23.9858 25.7007 24.5741 25.8264C24.6497 25.8431 24.7337 25.8515 24.8094 25.8515C25.0111 25.8515 25.2127 25.7929 25.3976 25.6755C25.6413 25.5163 25.8094 25.2732 25.8682 24.9882C25.9859 24.4099 25.6161 23.8316 25.0279 23.6974ZM25.6833 24.9631C25.6329 25.1978 25.4901 25.3989 25.2884 25.533C25.0867 25.6671 24.843 25.709 24.6077 25.6504C24.1203 25.5414 23.8093 25.0553 23.9102 24.5691C23.9606 24.3345 24.1035 24.1333 24.3052 23.9992C24.5068 23.8735 24.7505 23.8232 24.9858 23.8818C25.4733 23.9908 25.7842 24.4769 25.6833 24.9631Z" fill="#3E2E2E"/>
<path d="M15.9097 21.7948L13.8172 23.3957C13.7584 23.4376 13.6912 23.4628 13.6239 23.4628C13.5231 23.4628 13.4307 23.4209 13.3634 23.3371L13.2206 23.1527C13.1113 23.0102 13.1365 22.809 13.2794 22.7L15.3719 21.0992C15.4307 21.0572 15.4979 21.0321 15.5652 21.0321C15.6576 21.0321 15.7585 21.074 15.8257 21.1578L15.9685 21.3422C16.0778 21.4847 16.0526 21.6859 15.9097 21.7948Z" fill="#CB2C23"/>
<path d="M16.1203 21.2249L15.9774 21.0405C15.8766 20.9148 15.7337 20.8394 15.5741 20.8394C15.4648 20.8394 15.3556 20.8729 15.2631 20.9399L13.1706 22.5408C12.9521 22.7085 12.9101 23.027 13.0782 23.2533L13.2211 23.4377C13.3219 23.5634 13.4648 23.6388 13.6244 23.6388C13.7337 23.6388 13.8429 23.6053 13.9354 23.5382L16.0279 21.9373C16.2464 21.7697 16.2884 21.4512 16.1203 21.2249ZM15.9102 21.7949L13.8177 23.3958C13.7589 23.4377 13.6917 23.4628 13.6244 23.4628C13.5236 23.4628 13.4312 23.4209 13.3639 23.3371L13.2211 23.1527C13.1118 23.0102 13.137 22.809 13.2799 22.7001L15.3724 21.0992C15.4312 21.0573 15.4984 21.0321 15.5657 21.0321C15.6581 21.0321 15.7589 21.074 15.8262 21.1579L15.969 21.3423C16.0783 21.4847 16.0531 21.6859 15.9102 21.7949Z" fill="#3E2E2E"/>
<path d="M18.1451 22.2809L16.0526 23.8818C15.9938 23.9237 15.9265 23.9489 15.8593 23.9489C15.7585 23.9489 15.666 23.907 15.5988 23.8231L15.4559 23.6387C15.3467 23.4963 15.3719 23.2951 15.5148 23.1861L17.6072 21.5852C17.6661 21.5433 17.7333 21.5182 17.8005 21.5182C17.893 21.5182 17.9938 21.5601 18.061 21.6439L18.2039 21.8283C18.3131 21.9708 18.2879 22.1803 18.1451 22.2809Z" fill="#3BA93E"/>
<path d="M18.3557 21.7194L18.2128 21.535C18.1119 21.4093 17.9691 21.3339 17.8094 21.3339C17.7002 21.3339 17.5909 21.3674 17.4985 21.4344L15.406 23.0437C15.1875 23.2113 15.1455 23.5298 15.3136 23.7562L15.4564 23.9406C15.5573 24.0663 15.7001 24.1417 15.8598 24.1417C15.969 24.1417 16.0783 24.1082 16.1707 24.0411L18.2632 22.4402C18.4817 22.2642 18.5237 21.9457 18.3557 21.7194ZM18.1456 22.281L16.0531 23.8819C15.9942 23.9238 15.927 23.9489 15.8598 23.9489C15.7589 23.9489 15.6665 23.907 15.5993 23.8232L15.4564 23.6388C15.3472 23.4963 15.3724 23.2952 15.5152 23.1862L17.6077 21.5853C17.6666 21.5434 17.7338 21.5183 17.801 21.5183C17.8935 21.5183 17.9943 21.5602 18.0615 21.644L18.2044 21.8284C18.3136 21.9709 18.2884 22.1804 18.1456 22.281Z" fill="#3E2E2E"/>
<path d="M11.1285 21.5099L11.0277 21.9709C10.9857 22.1553 10.826 22.281 10.6495 22.281C10.6243 22.281 10.5907 22.281 10.5655 22.2726L9.40581 22.0212L9.16211 23.1778C9.12009 23.3622 8.96042 23.488 8.78395 23.488C8.75874 23.488 8.72512 23.488 8.69991 23.4796L8.23771 23.379C8.02763 23.3287 7.89317 23.1275 7.93519 22.9096L8.17889 21.753L7.0192 21.5015C6.80911 21.4512 6.67465 21.2417 6.71667 21.0321L6.81751 20.5712C6.85953 20.3868 7.0192 20.261 7.19567 20.261C7.22088 20.261 7.2545 20.261 7.27971 20.2694L8.4394 20.5209L8.6831 19.3642C8.72512 19.1798 8.88479 19.0541 9.06127 19.0541C9.08648 19.0541 9.12009 19.0541 9.1453 19.0625L9.6075 19.163C9.81759 19.2133 9.95205 19.4229 9.91003 19.6324L9.66632 20.7891L10.826 21.0405C11.0445 21.0908 11.179 21.3004 11.1285 21.5099Z" fill="#D7954E"/>
<path d="M9.75858 18.0734C8.90982 17.889 8.04425 18.0398 7.31314 18.5092C6.58202 18.9786 6.08621 19.7078 5.90133 20.5543C5.53158 22.3145 6.65766 24.0579 8.414 24.4434C9.26277 24.6278 10.1283 24.4769 10.8594 24.0076C11.5906 23.5382 12.0864 22.809 12.2712 21.9624C12.641 20.2023 11.5149 18.4589 9.75858 18.0734ZM11.3132 21.5517L11.2124 22.0127C11.1536 22.2726 10.9183 22.4653 10.6494 22.4653C10.6073 22.4653 10.5653 22.457 10.5233 22.4486L9.54849 22.2307L9.35521 23.2113C9.29638 23.4711 9.06108 23.6639 8.79217 23.6639C8.75015 23.6639 8.70813 23.6555 8.66611 23.6472L8.20392 23.5466C7.89298 23.4795 7.6913 23.1694 7.75853 22.8593L7.96862 21.8786L6.9938 21.6607C6.68287 21.5937 6.48118 21.2835 6.54841 20.9734L6.64925 20.5124C6.70808 20.2526 6.94338 20.0598 7.21229 20.0598C7.25431 20.0598 7.29633 20.0598 7.33835 20.0766L8.31316 20.2945L8.52325 19.3222C8.58208 19.054 8.81738 18.8696 9.08629 18.8696C9.12831 18.8696 9.17033 18.878 9.21235 18.8864L9.67454 18.987C9.98547 19.054 10.1872 19.3641 10.1199 19.6743L9.90984 20.6549L10.8847 20.8728C11.1788 20.9315 11.3805 21.2416 11.3132 21.5517Z" fill="#D7954E"/>
<path d="M9.8004 17.8889C8.90121 17.6878 7.98522 17.8554 7.21209 18.3499C6.43897 18.8445 5.90954 19.6156 5.71626 20.5124C5.66584 20.7555 5.64062 20.9902 5.64062 21.2248C5.64062 22.8173 6.7499 24.259 8.36339 24.6194C8.61549 24.6781 8.8592 24.7032 9.1113 24.7032C9.75838 24.7032 10.3971 24.5188 10.9517 24.1584C11.7248 23.6639 12.2542 22.8928 12.4475 21.9959C12.8509 20.1436 11.6576 18.2996 9.8004 17.8889ZM12.271 21.9624C12.0862 22.8173 11.5904 23.5382 10.8592 24.0075C10.1281 24.4769 9.26257 24.6278 8.41381 24.4434C6.65746 24.0578 5.53138 22.3145 5.90114 20.5543C6.08601 19.6994 6.58183 18.9786 7.31294 18.5092C8.04405 18.0398 8.90962 17.8889 9.75838 18.0733C11.5147 18.4589 12.6408 20.2023 12.271 21.9624Z" fill="#3E2E2E"/>
<path d="M11.1285 21.5099L11.0277 21.9709C10.9857 22.1553 10.826 22.281 10.6495 22.281C10.6243 22.281 10.5907 22.281 10.5655 22.2726L9.40581 22.0212L9.16211 23.1778C9.12009 23.3622 8.96042 23.488 8.78395 23.488C8.75874 23.488 8.72512 23.488 8.69991 23.4796L8.23771 23.379C8.02763 23.3287 7.89317 23.1275 7.93519 22.9096L8.17889 21.753L7.0192 21.5015C6.80911 21.4512 6.67465 21.2417 6.71667 21.0321L6.81751 20.5712C6.85953 20.3868 7.0192 20.261 7.19567 20.261C7.22088 20.261 7.2545 20.261 7.27971 20.2694L8.4394 20.5209L8.6831 19.3642C8.72512 19.1798 8.88479 19.0541 9.06127 19.0541C9.08648 19.0541 9.12009 19.0541 9.1453 19.0625L9.6075 19.163C9.81759 19.2133 9.95205 19.4229 9.91003 19.6324L9.66632 20.7891L10.826 21.0405C11.0445 21.0908 11.179 21.3004 11.1285 21.5099Z" fill="#906967"/>
<path d="M10.8677 20.8645L9.89292 20.6466L10.103 19.666C10.1702 19.3558 9.96856 19.0457 9.65762 18.9787L9.19543 18.8781C9.15341 18.8697 9.11139 18.8613 9.06937 18.8613C8.80046 18.8613 8.56516 19.0541 8.50633 19.3139L8.29624 20.2862L7.32143 20.0683C7.27941 20.0599 7.23739 20.0515 7.19537 20.0515C6.92646 20.0515 6.69116 20.2443 6.63233 20.5041L6.53149 20.9651C6.46426 21.2752 6.66595 21.5854 6.97688 21.6524L7.9517 21.8703L7.74161 22.851C7.67438 23.1611 7.87606 23.4712 8.187 23.5383L8.64919 23.6389C8.69121 23.6472 8.73323 23.6556 8.77525 23.6556C9.04416 23.6556 9.27946 23.4628 9.33829 23.203L9.54838 22.2307L10.5232 22.4487C10.5652 22.457 10.6072 22.4654 10.6492 22.4654C10.9182 22.4654 11.1535 22.2727 11.2123 22.0128L11.3131 21.5518C11.3804 21.2417 11.1787 20.9316 10.8677 20.8645ZM11.1283 21.5099L11.0274 21.9709C10.9854 22.1553 10.8257 22.281 10.6492 22.281C10.624 22.281 10.5904 22.281 10.5652 22.2727L9.40552 22.0212L9.16181 23.1779C9.11979 23.3623 8.96013 23.488 8.78365 23.488C8.75844 23.488 8.72483 23.488 8.69962 23.4796L8.23742 23.379C8.02733 23.3287 7.89287 23.1276 7.93489 22.9097L8.17859 21.753L7.0189 21.5015C6.80881 21.4513 6.67435 21.2417 6.71637 21.0322L6.81721 20.5712C6.85923 20.3868 7.0189 20.2611 7.19537 20.2611C7.22058 20.2611 7.2542 20.2611 7.27941 20.2694L8.4391 20.5209L8.68281 19.3642C8.72483 19.1798 8.88449 19.0541 9.06097 19.0541C9.08618 19.0541 9.11979 19.0541 9.14501 19.0625L9.6072 19.1631C9.81729 19.2134 9.95175 19.4229 9.90973 19.6324L9.66603 20.7891L10.8257 21.0406C11.0442 21.0908 11.1787 21.3004 11.1283 21.5099Z" fill="#3E2E2E"/>
<path d="M8.92676 19.624L9.59904 19.7748L9.33013 19.3641L8.92676 19.624Z" fill="#DCD6C1"/>
<path d="M7.27136 21.25L7.41422 20.5795L7.00244 20.8393L7.27136 21.25Z" fill="#DCD6C1"/>
<path d="M10.3887 21.9374L10.5315 21.2668L10.8004 21.6775L10.3887 21.9374Z" fill="#DCD6C1"/>
<path d="M8.26318 22.7336L8.93547 22.8845L8.5321 23.1443L8.26318 22.7336Z" fill="#DCD6C1"/>
<path d="M17.0275 11.8542C16.851 11.3345 16.4728 10.9071 15.977 10.664C15.6829 10.5215 15.3719 10.4545 15.061 10.4545C14.2963 10.4545 13.5568 10.8819 13.1954 11.6028C12.9517 12.0973 12.9181 12.6588 13.0946 13.1785C13.2711 13.6982 13.6492 14.1256 14.145 14.3687C15.1703 14.8716 16.4224 14.4525 16.9266 13.4299C17.1703 12.9354 17.2039 12.3739 17.0275 11.8542ZM15.5064 12.7343C15.4644 12.8181 15.3972 12.8935 15.3215 12.9354C15.2459 12.9857 15.1535 13.0109 15.061 13.0109C14.9854 13.0109 14.9098 12.9941 14.8425 12.9606C14.7249 12.9019 14.6324 12.8013 14.5904 12.6756C14.5484 12.5499 14.5568 12.4158 14.6156 12.2984C14.7333 12.0554 15.0358 11.9548 15.2795 12.0721C15.3972 12.1308 15.4896 12.2314 15.5316 12.3571C15.5736 12.4828 15.5652 12.6169 15.5064 12.7343Z" fill="#E8DCCD"/>
<path d="M22.1369 16.4809C21.4898 16.5479 20.9436 16.2965 20.9015 15.9361C20.8679 15.5673 21.3553 15.2237 22.0024 15.1566C22.6495 15.0895 23.1957 15.341 23.2377 15.7014C23.2714 16.0702 22.7755 16.4222 22.1369 16.4809Z" fill="#E8DCCD"/>
<path d="M23.171 12.0218C22.9945 11.4938 22.6164 11.0747 22.1206 10.8316C21.8264 10.6891 21.5155 10.6221 21.2046 10.6221C20.4398 10.6221 19.7003 11.0495 19.339 11.7704C19.0953 12.2649 19.0617 12.8264 19.2381 13.3461C19.4146 13.8741 19.7928 14.2932 20.2886 14.5363C21.3138 15.0392 22.566 14.6201 23.0702 13.5975C23.3139 13.103 23.3475 12.5415 23.171 12.0218ZM21.65 12.9019C21.6079 12.9857 21.5407 13.0611 21.4651 13.103C21.3895 13.1533 21.297 13.1785 21.2046 13.1785C21.1289 13.1785 21.0533 13.1617 20.9861 13.1282C20.8684 13.0695 20.776 12.9689 20.734 12.8432C20.692 12.7175 20.7004 12.5834 20.7592 12.466C20.8768 12.223 21.1794 12.1224 21.4231 12.2397C21.5407 12.2984 21.6332 12.399 21.6752 12.5247C21.7172 12.6504 21.7088 12.7845 21.65 12.9019Z" fill="#E8DCCD"/>
<path d="M24.9606 14.1089C24.9606 14.1089 24.4564 12.0135 24.1959 11.0412C24.1286 11.0077 24.0614 10.949 23.9858 10.8652C23.8597 10.9574 23.6748 11.0496 23.4311 11.0496C22.9689 11.0496 22.4899 10.7143 21.9941 10.0606C21.8933 10.1612 21.7504 10.2534 21.5655 10.2534C21.3975 10.2534 21.2294 10.1695 21.0781 10.0019C20.9521 10.1276 20.7588 10.2701 20.5319 10.2701C20.305 10.2701 20.1033 10.136 19.9268 9.87618C19.6243 10.1947 18.9688 10.7563 18.1117 10.7563C17.9352 10.7563 17.7503 10.7311 17.5738 10.6808C16.7839 10.4629 16.4478 10.0271 16.3133 9.7337C16.2461 9.7756 16.162 9.80075 16.0696 9.80075C15.9015 9.80075 15.7503 9.70855 15.6074 9.53254C15.5318 9.55768 15.4393 9.58283 15.3217 9.58283C15.1536 9.58283 14.9267 9.53254 14.6998 9.29785C14.5402 9.46548 14.2544 9.68341 13.8259 9.68341C13.6074 9.68341 13.3721 9.62474 13.1368 9.50739C13.0863 9.62474 12.9939 9.7337 12.851 9.80913C12.8678 10.0354 12.8174 10.3958 12.3384 10.6305L12.3216 10.6389H12.3048C12.2964 10.6389 12.2628 10.6473 12.2292 10.6473C11.9098 11.5693 11.0443 14.1676 10.9518 15.0896C10.9434 15.2153 10.935 15.3578 10.9434 15.5003C10.9434 15.5338 10.9434 15.5589 10.9518 15.5925C10.9518 15.626 10.9602 15.6511 10.9602 15.6847C10.9854 15.9612 11.0443 16.263 11.1535 16.5815C11.1619 16.615 11.1787 16.6485 11.1871 16.6821C11.1955 16.7156 11.2123 16.7491 11.2291 16.7826C11.6241 17.8052 12.5065 18.9451 14.1872 19.8084C15.2965 20.37 16.0864 20.4706 16.4982 20.4706C16.5486 20.4706 16.5906 20.4706 16.6242 20.4706C16.3889 20.2946 16.3133 20.1353 16.3049 20.1185C16.2881 20.0682 16.3049 20.018 16.3553 19.9928C16.4057 19.9761 16.4562 19.9928 16.4814 20.0431C16.4814 20.0431 16.4898 20.0515 16.4982 20.0766C16.5318 20.1353 16.641 20.2778 16.8763 20.4203C16.91 20.437 16.9436 20.4622 16.9856 20.4789C17.0696 20.5209 17.1705 20.5711 17.2965 20.6131C17.4562 20.6633 17.6495 20.7136 17.8764 20.7555C18.1033 20.7891 18.3638 20.8142 18.6579 20.8226C19.3134 20.831 19.784 20.7472 20.1285 20.6131C20.2798 20.5544 20.4059 20.4873 20.5151 20.4119C20.5823 20.3616 20.6496 20.3197 20.7 20.2694C20.9017 20.085 21.0109 19.8839 21.0949 19.7414C21.1118 19.7162 21.1202 19.6911 21.137 19.6743C21.1454 19.6492 21.1622 19.6324 21.1706 19.6156C21.1958 19.5737 21.2546 19.557 21.2966 19.5905C21.3387 19.6156 21.3555 19.6743 21.3218 19.7162C21.305 19.7497 21.2798 19.7917 21.2546 19.8336C21.2042 19.9341 21.137 20.0515 21.0361 20.1856C21.6748 20.0096 22.2799 19.8 22.8933 19.381C22.9269 19.3558 22.9605 19.339 22.9942 19.3139C23.0278 19.2888 23.0614 19.272 23.0866 19.2468C23.3303 19.0625 23.574 18.8445 23.8261 18.5847C23.8513 18.5596 23.8681 18.5344 23.8933 18.5093C23.9185 18.4841 23.9354 18.459 23.9606 18.4338C24.0614 18.3165 24.1707 18.1991 24.2715 18.065C25.6665 16.33 24.9606 14.1089 24.9606 14.1089ZM13.0275 11.519C13.5821 10.4042 14.9435 9.94324 16.0612 10.4964C16.6074 10.7646 17.0108 11.2256 17.2041 11.7956C17.3974 12.3655 17.3554 12.9774 17.0864 13.5138C16.6915 14.3101 15.8847 14.7711 15.0528 14.7711C14.7166 14.7711 14.3721 14.6956 14.0527 14.5364C13.5065 14.2682 13.1031 13.8072 12.9099 13.2372C12.7166 12.6673 12.7586 12.0554 13.0275 11.519ZM14.6578 16.2965C14.6494 16.2965 14.6494 16.2965 14.6578 16.2965C14.5654 16.3133 14.4645 16.3217 14.3637 16.33C14.3217 16.33 14.2796 16.33 14.2376 16.33C13.9519 16.3217 13.6998 16.2462 13.5065 16.1456C13.4309 16.1037 13.3637 16.0534 13.3048 16.0032C13.1788 15.8942 13.1115 15.7601 13.1199 15.6176C13.1368 15.2488 13.6578 14.9806 14.2965 15.0057C14.9267 15.0309 15.4309 15.3494 15.4141 15.7182C15.3973 15.9864 15.0864 16.2127 14.6578 16.2965ZM20.3134 16.5983C20.305 16.6234 20.1621 17.1431 19.5655 17.3777C19.5151 17.4029 19.4562 17.4197 19.389 17.4364C19.347 17.4448 19.305 17.4532 19.2546 17.4616C19.2209 17.4699 19.1873 17.4699 19.1537 17.4783C19.1117 17.4783 19.0781 17.4867 19.0445 17.4867C18.8428 17.4867 18.6831 17.428 18.5655 17.3526C18.5487 17.3442 18.5403 17.3358 18.5235 17.3275C18.5066 17.3191 18.4898 17.3023 18.4814 17.2939C18.4646 17.2855 18.4562 17.2688 18.4394 17.2604C18.431 17.252 18.4226 17.2436 18.4142 17.2353C18.3806 17.1933 18.347 17.1598 18.3218 17.1179C18.305 17.0844 18.2797 17.0592 18.2713 17.0257C18.2629 17.0509 18.2461 17.076 18.2293 17.0928C18.2125 17.1179 18.1957 17.1514 18.1705 17.1766C18.1537 17.2017 18.1285 17.2269 18.1033 17.2604C17.9688 17.4029 17.7671 17.5202 17.473 17.5202C17.4142 17.5202 17.3554 17.5202 17.2881 17.5035C16.6999 17.4113 16.4142 17.0676 16.2881 16.8497C16.2629 16.8078 16.2461 16.7743 16.2377 16.7407C16.2209 16.6988 16.2125 16.6653 16.2041 16.6653C16.2041 16.6569 16.2041 16.6485 16.2041 16.6402C16.2041 16.5983 16.2293 16.5647 16.2713 16.548C16.3217 16.5312 16.3721 16.5647 16.3889 16.615C16.3889 16.6234 16.3973 16.6485 16.4142 16.6905C16.431 16.724 16.4478 16.7575 16.473 16.7994C16.4982 16.8329 16.5234 16.8748 16.557 16.9084C16.6915 17.076 16.9268 17.2604 17.3217 17.3191C17.5823 17.361 17.7671 17.3023 17.8932 17.2017C17.9268 17.1766 17.952 17.1514 17.9772 17.1263C18.0024 17.1011 18.0276 17.076 18.0444 17.0425C18.1453 16.9084 18.1705 16.7659 18.1705 16.7575V16.7491L18.0781 15.5589C17.8764 15.5254 17.6495 15.3662 17.4814 15.2237C17.1789 14.9722 16.7839 14.4945 16.8259 14.2514C16.8848 13.8994 17.3133 13.7066 18.0024 13.7234C18.2041 13.7066 19.1369 13.6563 19.2294 14.067C19.3218 14.4777 18.7419 15.3913 18.2797 15.5505C18.2713 15.5505 18.2713 15.5505 18.2629 15.5589L18.347 16.7491C18.347 16.7575 18.3554 16.7575 18.3554 16.7659C18.3554 16.7826 18.4226 17.0341 18.6411 17.1933C18.7588 17.2772 18.9268 17.3358 19.1621 17.3107C19.1789 17.3107 19.2041 17.3023 19.2209 17.3023C19.9605 17.1682 20.1201 16.5983 20.1285 16.5731C20.1453 16.5228 20.1958 16.4977 20.2462 16.5061C20.2966 16.4977 20.3218 16.548 20.3134 16.5983ZM22.137 16.4809C21.4899 16.548 20.9437 16.2965 20.9017 15.9361C20.8681 15.5673 21.3555 15.2237 22.0025 15.1566C22.6496 15.0896 23.1958 15.341 23.2379 15.7014C23.2715 16.0702 22.7757 16.4222 22.137 16.4809ZM23.2295 13.6814C22.8345 14.4777 22.0277 14.9387 21.1958 14.9387C20.8596 14.9387 20.5151 14.8633 20.1958 14.704C19.6495 14.4358 19.2462 13.9748 19.0529 13.4049C18.8596 12.8349 18.9016 12.223 19.1621 11.6866C19.7168 10.5719 21.0781 10.1109 22.1958 10.6641C22.742 10.9323 23.1454 11.3933 23.3387 11.9632C23.5404 12.5332 23.4984 13.1366 23.2295 13.6814Z" fill="#E8DCCD"/>
<path d="M14.2545 3.32167C13.8344 3.45577 13.6495 3.82457 13.5991 4.13469C13.5823 4.13469 13.557 4.1263 13.5402 4.1263C13.5318 4.1263 13.5234 4.1263 13.515 4.1263C13.389 4.1263 13.2881 4.16821 13.2125 4.26041C13.1537 4.33585 13.1201 4.41966 13.1033 4.50348H13.0948C13.0192 4.50348 12.952 4.52862 12.8932 4.55377C12.7503 4.41128 12.515 4.22688 12.2209 4.22688C12.162 4.22688 12.0948 4.23527 12.036 4.25203C11.7335 4.33584 11.5234 4.50348 11.4057 4.74654C11.2797 5.00638 11.2965 5.30811 11.3385 5.52604H11.3217C11.0948 5.52604 10.9015 5.60985 10.7671 5.76072C10.7166 5.81101 10.683 5.87807 10.6494 5.93674C10.641 5.91159 10.6326 5.88645 10.6242 5.85292C10.6158 5.83616 10.6158 5.81939 10.6074 5.80263C10.5906 5.75234 10.5738 5.70205 10.557 5.65176C10.2628 4.74654 9.99393 3.52283 10.1284 2.60923C10.1368 2.5757 10.1368 2.54218 10.1452 2.50027C10.1536 2.45836 10.162 2.41645 10.1704 2.37454C10.1788 2.33264 10.1872 2.29073 10.204 2.2572C10.2124 2.21529 10.2292 2.18177 10.2376 2.13986C10.246 2.10633 10.2628 2.08119 10.2712 2.04766C10.2796 2.0309 10.2881 2.00575 10.2965 1.98899V1.98061C10.3049 1.97222 10.3049 1.95546 10.3133 1.94708C10.3217 1.9387 10.3217 1.92194 10.3301 1.91355C10.3385 1.89679 10.3469 1.88841 10.3553 1.87165C10.3637 1.85488 10.3805 1.82974 10.3889 1.81297C10.3973 1.79621 10.4141 1.77945 10.4309 1.76268C10.4393 1.7543 10.4477 1.74592 10.4561 1.72916C10.4645 1.71239 10.4729 1.70401 10.4897 1.68725C10.5065 1.67049 10.5149 1.65372 10.5318 1.64534C10.5402 1.63696 10.5486 1.62858 10.557 1.6202C10.557 1.6202 10.557 1.6202 10.5654 1.6202C10.5738 1.61181 10.5906 1.59505 10.599 1.58667C10.599 1.58667 10.599 1.58667 10.6074 1.58667C10.7587 1.59505 12.6579 1.62858 14.2545 3.32167Z" fill="#E8DCCD"/>
<path d="M10.624 5.85291C10.6324 5.87805 10.6408 5.91158 10.6492 5.93672C10.6492 5.91158 10.6324 5.87805 10.624 5.85291Z" fill="#3E2E2E"/>
<path d="M13.5402 4.12635C13.5318 4.12635 13.5234 4.12635 13.515 4.12635C13.389 4.12635 13.2881 4.16826 13.2125 4.26045C13.1537 4.33589 13.1201 4.4197 13.1032 4.50352H13.0948C13.0192 4.50352 12.952 4.52867 12.8932 4.55381C12.7503 4.41132 12.515 4.22693 12.2209 4.22693C12.162 4.22693 12.0948 4.23531 12.036 4.25207C11.7335 4.33589 11.5234 4.50352 11.4057 4.74659C11.2797 5.00642 11.2965 5.30816 11.3385 5.52608H11.3217C11.0948 5.52608 10.9015 5.6099 10.7671 5.76077C10.7166 5.81106 10.683 5.87811 10.6494 5.93678C10.641 5.91164 10.6326 5.88649 10.6242 5.85296C10.6158 5.8362 10.6158 5.81944 10.6074 5.80267C10.5906 5.75238 10.5738 5.70209 10.557 5.6518C10.2628 4.74659 9.99393 3.52287 10.1284 2.60927C10.1368 2.57575 10.1368 2.54222 10.1452 2.50031C10.1536 2.4584 10.162 2.41649 10.1704 2.37459C10.1788 2.33268 10.1872 2.29077 10.204 2.25724C10.2124 2.21534 10.2292 2.18181 10.2376 2.1399C10.246 2.10637 10.2628 2.08123 10.2712 2.0477C10.2796 2.03094 10.2881 2.00579 10.2965 1.98903V1.98065C10.3049 1.97227 10.3049 1.9555 10.3133 1.94712C10.3217 1.93874 10.3217 1.92198 10.3301 1.9136C10.3385 1.89683 10.3469 1.88845 10.3553 1.87169C10.3637 1.85492 10.3805 1.82978 10.3889 1.81302C10.3973 1.79625 10.4141 1.77949 10.4309 1.76273C10.4393 1.75435 10.4477 1.74596 10.4561 1.7292C10.4645 1.71244 10.4729 1.70406 10.4897 1.68729C10.5065 1.67053 10.5149 1.65377 10.5318 1.64538C10.5402 1.637 10.5486 1.62862 10.557 1.62024C10.557 1.62024 10.557 1.62024 10.5654 1.62024C11.0276 1.88845 12.4394 2.735 13.5402 4.12635Z" fill="#E38569"/>
<path d="M26.9688 2.55894C26.0023 2.60923 24.5653 3.89162 23.725 4.73817C23.683 4.47834 23.5989 4.22689 23.4561 4.07602C23.2628 3.86648 23.0443 3.73237 22.8174 3.68208C23.5485 3.06184 24.725 2.3075 26.0612 2.3075C26.2881 2.3075 26.5234 2.33264 26.7671 2.38293C26.7587 2.36617 26.8763 2.37455 26.9688 2.55894Z" fill="#E8DCCD"/>
<path d="M14.7421 8.42614C14.7001 8.50157 14.574 8.51833 14.4479 8.45966C14.3219 8.40099 14.2547 8.28365 14.2967 8.20821C14.3387 8.13278 14.4648 8.11601 14.5908 8.17469C14.7085 8.23336 14.7757 8.3507 14.7421 8.42614Z" fill="#D6BA9B"/>
<path d="M24.5745 9.59958C24.4065 9.6834 24.2468 9.71693 24.1039 9.71693C23.7342 9.71693 23.4737 9.50739 23.4653 9.499C23.4233 9.46548 23.4233 9.40681 23.4569 9.3649C23.4905 9.32299 23.5493 9.32299 23.5913 9.35652C23.6081 9.37328 24.0031 9.6834 24.5073 9.44033C24.9947 9.19727 24.8687 8.66084 24.8687 8.64408C24.8603 8.59379 24.8855 8.5435 24.9359 8.52673C24.9863 8.51835 25.0367 8.5435 25.0535 8.59379C25.0872 8.82847 25.0704 9.34814 24.5745 9.59958Z" fill="#D6BA9B"/>
<path d="M27.3136 21.0237C26.7421 19.9173 25.8597 18.9954 24.7841 18.3835C26.2379 16.506 25.6328 14.2681 25.5404 13.9496C25.4984 13.7568 25.2463 12.7175 25.011 11.7955C25.1034 11.8207 25.1875 11.8374 25.2799 11.8374C25.4564 11.8374 25.8009 11.7788 26.0446 11.3765C26.2463 11.0496 26.2631 10.7646 26.2295 10.5551C26.5236 10.3455 26.8094 9.97672 26.8346 9.33134C26.8598 8.72786 26.6749 8.21658 26.3303 7.86455C26.5572 7.43709 26.5993 6.98448 26.4564 6.55702C26.6665 6.28043 26.8514 5.97869 27.0026 5.64342C27.4816 4.63763 27.5993 3.64021 27.6329 3.26304C27.6749 2.70985 27.5825 2.30753 27.3388 2.03932C27.2043 1.88845 27.0278 1.79625 26.8514 1.76273C26.5909 1.71244 26.3219 1.68729 26.053 1.68729C25.0026 1.68729 23.8933 2.09799 22.8345 2.88587C22.6832 2.99483 22.5403 3.11217 22.3891 3.2379C22.1538 3.26304 21.9437 3.34686 21.7588 3.44744C21.4983 3.18761 21.1537 3.0535 20.7672 3.0535C20.6915 3.0535 20.6159 3.06188 20.5403 3.07026C20.2546 2.51707 19.6411 1.71244 18.431 1.51966C18.3133 1.5029 18.1957 1.49452 18.078 1.49452C17.2881 1.49452 16.641 1.95551 16.2797 2.74338C16.1284 2.69309 15.9855 2.65956 15.8343 2.65956C15.557 2.65956 15.288 2.76014 15.0611 2.94454C14.9267 2.89425 14.7754 2.86072 14.6326 2.85234C14.0107 2.20695 13.288 1.72082 12.4812 1.39394C11.5232 1.01676 10.7585 1 10.6157 1H10.5988H10.5316H10.3888L10.2795 1.0922L10.2207 1.14249C9.59882 1.67053 9.38033 2.62604 9.5568 3.99224C9.68285 4.96451 9.98538 5.85296 10.1366 6.28043C10.1282 6.34748 10.1282 6.41453 10.1198 6.4732C9.7837 7.00963 9.70807 7.50414 9.88454 7.93999C9.96858 8.15791 10.1198 8.35069 10.3215 8.49318V8.51832C10.2711 8.58537 10.2207 8.66919 10.1787 8.75301C9.91815 9.24752 9.96858 9.72528 10.3047 10.027C10.54 10.2366 10.8089 10.3455 11.0947 10.3455C11.1367 10.3455 11.1871 10.3455 11.2291 10.3371C11.2711 10.379 11.3131 10.4126 11.3552 10.4377C11.3888 10.5718 11.4476 10.6892 11.5232 10.7897C11.5316 10.7981 11.5316 10.7981 11.54 10.8065C11.1451 11.9716 10.4308 14.1759 10.3467 15.0644C10.3467 15.0811 10.3467 15.0895 10.3467 15.1063H10.061V15.123C8.80048 15.2069 7.57356 15.6846 6.58193 16.4809C5.46426 17.3777 4.68272 18.6433 4.3886 20.0514C4.36339 20.152 4.34658 20.261 4.32977 20.3783C4.25414 20.613 4.18691 20.8477 4.13649 21.0824C3.42219 24.4686 5.58191 27.8212 8.96855 28.5672C9.41394 28.6678 9.87614 28.718 10.3215 28.718C11.6577 28.718 12.9771 28.2822 14.0443 27.4776L15.9855 27.905C16.8679 29.5059 18.3806 30.6458 20.1705 31.0398C20.6159 31.1403 21.0781 31.1906 21.5235 31.1906C22.9353 31.1906 24.3135 30.7045 25.4144 29.8244C26.532 28.9276 27.3136 27.662 27.6077 26.2538C27.6329 26.1533 27.6497 26.0443 27.6665 25.927C27.7421 25.6923 27.8094 25.4576 27.8598 25.2229C28.1707 23.798 27.969 22.3145 27.3136 21.0237ZM26.053 2.29915C26.2799 2.29915 26.5152 2.3243 26.7589 2.37459C26.7589 2.37459 26.885 2.38297 26.969 2.55898C27.0362 2.67633 27.0867 2.88587 27.0615 3.26304C27.0194 3.84137 26.7925 5.29978 25.9018 6.37262C25.8934 6.36424 25.885 6.35586 25.8766 6.3391C25.5824 5.94516 25.2211 5.86134 24.9606 5.86134C24.8177 5.86134 24.6916 5.88649 24.5908 5.91163C24.574 5.88649 24.5656 5.86973 24.5488 5.84458C24.49 5.76915 24.4059 5.72724 24.3303 5.71048C24.3303 5.62666 24.3051 5.55122 24.2631 5.49255C24.221 5.43388 24.137 5.36683 23.9857 5.36683C23.9185 5.36683 23.8429 5.38359 23.7673 5.40874C23.7673 5.21596 23.7589 4.97289 23.7168 4.72982C23.6748 4.46999 23.5908 4.21855 23.4479 4.06768C23.2546 3.85814 23.0361 3.72403 22.8092 3.67374C23.5404 3.0535 24.7169 2.29915 26.053 2.29915ZM22.5571 3.64859H22.5487C22.5487 3.64859 22.5487 3.64859 22.5571 3.64859ZM10.1451 2.50869C10.1535 2.46679 10.1619 2.42488 10.1703 2.38297C10.1787 2.34106 10.1871 2.29915 10.2039 2.26563C10.2123 2.22372 10.2291 2.19019 10.2375 2.14828C10.2459 2.11476 10.2627 2.08961 10.2711 2.05609C10.2795 2.03932 10.2879 2.01418 10.2963 1.99741V1.98903C10.3047 1.98065 10.3047 1.96389 10.3131 1.95551C10.3215 1.94712 10.3215 1.93036 10.3299 1.92198C10.3383 1.90522 10.3467 1.89683 10.3551 1.88007C10.3635 1.86331 10.3804 1.83816 10.3888 1.8214C10.3972 1.80464 10.414 1.78787 10.4308 1.77111C10.4392 1.76273 10.4476 1.75435 10.456 1.73758C10.4644 1.72082 10.4728 1.71244 10.4896 1.69568C10.5064 1.67891 10.5148 1.66215 10.5316 1.65377C10.54 1.64539 10.5484 1.637 10.5568 1.62862C10.5568 1.62862 10.5568 1.62862 10.5652 1.62862C10.5736 1.62024 10.5904 1.60348 10.5988 1.5951C10.5988 1.5951 10.5988 1.5951 10.6072 1.5951C10.7501 1.5951 12.6493 1.62862 14.246 3.31333C13.8258 3.44744 13.6409 3.81623 13.5905 4.12635C13.5737 4.12635 13.5485 4.11797 13.5317 4.11797C13.5233 4.11797 13.5149 4.11797 13.5065 4.11797C13.3804 4.11797 13.2796 4.15987 13.204 4.25207C13.1451 4.32751 13.1115 4.41132 13.0947 4.49514H13.0863C13.0107 4.49514 12.9434 4.52028 12.8846 4.54543C12.7418 4.40294 12.5065 4.21855 12.2123 4.21855C12.1535 4.21855 12.0863 4.22693 12.0275 4.24369C11.7249 4.32751 11.5148 4.49514 11.3972 4.73821C11.2711 4.99804 11.2879 5.29978 11.33 5.5177H11.3131C11.0863 5.5177 10.893 5.60151 10.7585 5.75238C10.7081 5.80267 10.6745 5.86973 10.6409 5.9284C10.6325 5.90325 10.6241 5.87811 10.6157 5.84458C10.6072 5.82782 10.6072 5.81106 10.5988 5.79429C10.582 5.744 10.5652 5.69371 10.5484 5.64342C10.2543 4.73821 9.98538 3.51449 10.1198 2.60089C10.1366 2.57575 10.1366 2.54222 10.1451 2.50869ZM11.1031 9.74204C10.9854 9.74204 10.851 9.70013 10.7081 9.57441C10.3972 9.29781 10.9518 8.66081 10.9518 8.66081C10.9518 8.66081 10.8341 8.3926 11.0694 8.17467C11.0694 8.17467 9.81731 7.93161 10.7249 6.63245C10.7249 6.63245 10.7165 6.53188 10.7249 6.39777C10.7249 6.3391 10.7333 6.28043 10.7501 6.21337C10.8005 5.97031 10.9434 5.71886 11.3131 5.71886C11.3972 5.71886 11.4896 5.72724 11.5905 5.76077C11.5905 5.76077 11.1535 4.70468 12.0863 4.44485C12.1283 4.43647 12.1787 4.42809 12.2207 4.42809C12.5821 4.42809 12.8762 4.8304 12.8762 4.8304C12.8762 4.8304 12.9603 4.6963 13.0947 4.6963C13.1535 4.6963 13.2124 4.72144 13.288 4.78011C13.288 4.78011 13.204 4.31912 13.5065 4.31912C13.5569 4.31912 13.6241 4.33589 13.7082 4.36941C13.725 4.3778 13.7418 4.38618 13.7586 4.39456C13.7586 4.39456 13.7418 3.62345 14.3973 3.48934C14.4309 3.48096 14.4645 3.48096 14.5065 3.47258C14.5317 3.47258 14.5485 3.47258 14.5737 3.47258H14.5905C14.5989 3.47258 14.6158 3.47258 14.6242 3.47258C14.9855 3.48934 15.1788 3.7827 15.1788 3.7827C15.1788 3.7827 15.2964 3.49773 15.557 3.35524C15.557 3.36362 15.557 3.372 15.557 3.38038L15.6158 3.92519C15.6242 3.97548 15.6578 4.009 15.7082 4.009H15.7166C15.767 4.00062 15.8091 3.95872 15.8007 3.90843L15.7418 3.36362C15.7418 3.33847 15.725 3.31333 15.6998 3.29657C15.7418 3.28818 15.7923 3.2798 15.8427 3.2798C15.9183 3.2798 15.9939 3.29657 16.078 3.32171C16.0696 3.33847 16.0696 3.35524 16.0696 3.372L16.1284 3.91681C16.1368 3.9671 16.1704 4.00062 16.2208 4.00062H16.2292C16.2797 3.99224 16.3133 3.95033 16.3133 3.90004L16.2629 3.41391C16.3805 3.48096 16.4982 3.58154 16.6326 3.71565C16.6326 3.71565 16.8259 2.11476 18.0864 2.11476C18.1705 2.11476 18.2545 2.12314 18.3469 2.1399C19.8428 2.37459 20.1957 3.82461 20.1957 3.82461C20.1957 3.82461 20.4646 3.68212 20.7756 3.68212C21.0781 3.68212 21.4227 3.81623 21.6159 4.34427C21.6159 4.34427 21.9101 4.009 22.3218 3.89166C22.3807 3.8749 22.4311 3.86652 22.4899 3.85814C22.5151 3.85814 22.5487 3.84975 22.5739 3.84975C22.5908 3.84975 22.6076 3.84975 22.6328 3.84975C22.8513 3.86652 23.0866 3.9671 23.3219 4.21016C23.4647 4.36103 23.532 4.63763 23.5656 4.91422C23.6076 5.31654 23.5824 5.71886 23.5824 5.71886C23.5824 5.71886 23.8261 5.57637 23.9942 5.57637C24.1118 5.57637 24.1958 5.6518 24.1286 5.89487C24.1286 5.89487 24.137 5.89487 24.1454 5.89487C24.221 5.89487 24.5068 5.91163 24.4563 6.19661C24.4563 6.19661 24.6832 6.07089 24.969 6.07089C25.2211 6.07089 25.5152 6.16308 25.7589 6.50673C25.7673 6.51511 25.7757 6.52349 25.7757 6.54026C25.7841 6.54864 25.7841 6.55702 25.7925 6.55702C25.8009 6.5654 25.8009 6.57378 25.8093 6.59055C25.8261 6.61569 25.8429 6.64922 25.8597 6.67436C26.2295 7.43709 25.448 8.06571 25.448 8.06571C25.448 8.06571 26.2967 8.18306 26.2547 9.33972C26.2211 10.2868 25.3471 10.2868 25.3471 10.2868C25.3471 10.2868 25.885 10.5634 25.5572 11.0915C25.4732 11.2172 25.3891 11.2675 25.2967 11.2675C25.0194 11.2675 24.7421 10.8065 24.7421 10.8065C24.7421 10.8065 24.616 10.9406 24.4479 10.9406C24.4227 10.9406 24.3891 10.9406 24.3639 10.9322C24.3303 10.9238 24.2883 10.9071 24.2547 10.8819C24.2126 10.8484 24.1622 10.8065 24.1118 10.7395C24.0866 10.7059 24.0614 10.664 24.0362 10.6137C24.0362 10.6137 23.8345 10.9071 23.4479 10.9071C23.1034 10.9071 22.6244 10.6724 22.0193 9.79233C22.0193 9.79233 21.8512 10.1108 21.5907 10.1108C21.4479 10.1108 21.2882 10.0186 21.1117 9.74204C21.1117 9.74204 20.868 10.1276 20.5571 10.1276C20.3806 10.1276 20.1789 10.0019 19.9856 9.59955C19.9856 9.59955 19.2293 10.6137 18.1369 10.6137C17.9772 10.6137 17.8175 10.597 17.6494 10.5467C16.5066 10.2282 16.4225 9.4403 16.4225 9.4403C16.4225 9.4403 16.2881 9.65822 16.0948 9.65822C15.9771 9.65822 15.8427 9.58279 15.6998 9.33972C15.6998 9.33972 15.557 9.44868 15.3553 9.44868C15.1788 9.44868 14.9519 9.36487 14.725 9.05475C14.725 9.05475 14.4477 9.54926 13.8594 9.54926C13.6325 9.54926 13.3636 9.47383 13.0443 9.27267C13.0443 9.27267 13.0611 9.65822 12.6661 9.73366C12.6661 9.73366 12.8594 10.203 12.3216 10.488C12.3048 10.4964 12.2964 10.5048 12.2796 10.5131C12.2796 10.5131 12.2543 10.5215 12.2123 10.5215C12.1871 10.5215 12.1535 10.5215 12.1199 10.5048C12.0106 10.4712 11.9098 10.3455 11.977 9.99349C11.977 9.99349 11.9266 10.0103 11.8594 10.0103C11.7333 10.0103 11.5484 9.9432 11.6073 9.54088C11.5905 9.50735 11.3804 9.74204 11.1031 9.74204ZM10.9518 15.1147C11.0358 14.1927 11.9098 11.586 12.2291 10.6724C12.2712 10.6724 12.2964 10.664 12.3048 10.664H12.3216L12.3384 10.6556C12.8258 10.421 12.8762 10.0605 12.851 9.83424C12.9939 9.7588 13.0863 9.64984 13.1367 9.5325C13.372 9.64984 13.6073 9.70851 13.8258 9.70851C14.246 9.70851 14.5401 9.49059 14.6998 9.32296C14.9267 9.54926 15.1536 9.60793 15.3217 9.60793C15.4309 9.60793 15.5317 9.58279 15.6074 9.55764C15.7418 9.73366 15.9015 9.82586 16.0696 9.82586C16.162 9.82586 16.2461 9.80071 16.3133 9.7588C16.4561 10.0522 16.7923 10.488 17.5738 10.7059C17.7503 10.7562 17.9352 10.7814 18.1116 10.7814C18.9688 10.7814 19.6243 10.2198 19.9268 9.90129C20.1033 10.1611 20.305 10.2952 20.5319 10.2952C20.7672 10.2952 20.9521 10.1527 21.0781 10.027C21.2294 10.1946 21.389 10.2785 21.5655 10.2785C21.7504 10.2785 21.8933 10.1863 21.9941 10.0857C22.4899 10.7395 22.9689 11.0747 23.4311 11.0747C23.6748 11.0747 23.8597 10.9825 23.9857 10.8903C24.053 10.9741 24.1286 11.0244 24.1958 11.0663C24.4648 12.0386 24.9606 14.134 24.9606 14.134C24.9606 14.134 25.6665 16.3551 24.2715 18.0901C24.1622 18.2242 24.0614 18.3416 23.9605 18.4589C23.9353 18.4841 23.9185 18.5092 23.8933 18.5344C23.8681 18.5595 23.8513 18.5847 23.8261 18.6098C23.574 18.878 23.3303 19.0959 23.0866 19.272C23.053 19.2971 23.0193 19.3222 22.9941 19.339C22.9605 19.3641 22.9269 19.3893 22.8933 19.4061C22.2798 19.8168 21.6832 20.0263 21.0361 20.2107C21.1369 20.085 21.2042 19.9592 21.2546 19.8587C21.2798 19.8168 21.305 19.7748 21.3218 19.7413C21.347 19.6994 21.3386 19.6407 21.2966 19.6156C21.2546 19.5905 21.1958 19.5988 21.1705 19.6407C21.1621 19.6575 21.1453 19.6827 21.1369 19.6994C21.1285 19.7246 21.1117 19.7413 21.0949 19.7665C21.0109 19.9173 20.9016 20.1101 20.6999 20.2945C20.6495 20.3448 20.5823 20.3951 20.5151 20.437C20.4058 20.5124 20.2798 20.5795 20.1285 20.6382C19.784 20.7723 19.3134 20.8561 18.6579 20.8477C18.3553 20.8477 18.0948 20.8226 17.8763 20.7806C17.6494 20.7471 17.4562 20.6968 17.2965 20.6382C17.1788 20.5962 17.0696 20.5543 16.9856 20.5041C16.9435 20.4873 16.9099 20.4621 16.8763 20.4454C16.641 20.3029 16.5318 20.1688 16.4982 20.1017C16.4898 20.085 16.4814 20.0766 16.4814 20.0682C16.4561 20.0179 16.4057 20.0012 16.3553 20.0179C16.3049 20.0347 16.2881 20.0934 16.3049 20.1436C16.3133 20.1604 16.3889 20.3197 16.6242 20.4957C16.5906 20.4957 16.5486 20.4957 16.4982 20.4957C16.0864 20.4957 15.2964 20.4035 14.1872 19.8335C12.4981 18.9702 11.6241 17.8387 11.2291 16.8078C11.2123 16.7742 11.2039 16.7407 11.1871 16.7072C11.1787 16.6736 11.1619 16.6401 11.1535 16.6066C11.0442 16.2881 10.9854 15.9864 10.9602 15.7098C10.9602 15.6762 10.9518 15.6511 10.9518 15.6176C10.9518 15.584 10.9518 15.5505 10.9434 15.5254C10.935 15.3829 10.935 15.2404 10.9518 15.1147ZM21.5319 30.5788C21.1285 30.5788 20.7168 30.5369 20.305 30.4447C18.5402 30.0507 17.1368 28.8857 16.3973 27.3686L13.9099 26.8154C12.9182 27.6284 11.6661 28.0978 10.3299 28.0978C9.92656 28.0978 9.51478 28.0559 9.10301 27.9637C6.13654 27.3099 4.20372 24.4434 4.67432 21.4847C4.74155 24.1417 6.61555 26.5221 9.3131 27.1172C9.73328 27.2094 10.1619 27.2596 10.582 27.2596C11.893 27.2596 13.1787 26.807 14.204 25.9856L16.515 26.4969C17.3217 28.081 18.7755 29.2042 20.5151 29.5897C20.9352 29.6819 21.3638 29.7322 21.784 29.7322C23.095 29.7322 24.3891 29.2796 25.4144 28.4582C26.0026 27.9888 26.49 27.4021 26.8598 26.7484C26.0866 29.0533 23.9269 30.5788 21.5319 30.5788ZM27.3388 24.7787C27.322 24.8793 27.3052 24.9798 27.28 25.0804C27.2631 25.1475 27.2547 25.2145 27.2379 25.2732C27.1959 25.4408 27.1455 25.6001 27.0951 25.7677C26.3051 28.0475 24.1622 29.5478 21.784 29.5478C21.3806 29.5478 20.9689 29.5059 20.5571 29.4137C18.7923 29.0198 17.3889 27.8547 16.6494 26.3377L14.162 25.7845C13.1703 26.5975 11.9098 27.0669 10.582 27.0669C10.1787 27.0669 9.76689 27.025 9.35511 26.9328C6.40546 26.279 4.48104 23.446 4.91802 20.4957C4.93483 20.3783 4.95164 20.2694 4.97685 20.152C4.98525 20.1017 5.00206 20.0514 5.01046 20.0095C5.05248 19.8419 5.0945 19.6827 5.15332 19.5234C5.92645 17.2185 8.08617 15.693 10.4812 15.693C10.5736 15.693 10.6661 15.693 10.7669 15.7014C10.7921 15.978 10.851 16.2797 10.9434 16.5814C10.9518 16.615 10.9602 16.6485 10.977 16.682C10.9854 16.7156 11.0022 16.7491 11.0106 16.7826C11.4224 17.9057 12.3636 19.1211 14.1031 20.0012C15.2628 20.5962 16.1032 20.6801 16.4982 20.6801C16.6578 20.6801 16.7671 20.6633 16.8175 20.6549C16.8427 20.6549 16.8763 20.6633 16.9267 20.6717C17.2797 20.8477 17.8259 20.9986 18.6579 21.0153C18.6915 21.0153 18.7167 21.0153 18.7503 21.0153C19.8344 21.0153 20.4394 20.7471 20.7924 20.4454C21.6075 20.2275 22.3555 20.0095 23.1286 19.448C23.1622 19.4228 23.1874 19.4061 23.221 19.3809C23.2462 19.3558 23.2798 19.339 23.3051 19.3139C23.5404 19.1295 23.7757 18.9115 24.011 18.6601C26.3388 19.6994 27.7421 22.1971 27.3388 24.7787Z" fill="#3E2E2E"/>
<path d="M27.0619 3.26298C27.0199 3.84131 26.793 5.29971 25.9022 6.37256C25.8938 6.36418 25.8854 6.3558 25.877 6.33904C25.5829 5.9451 25.2215 5.86128 24.961 5.86128C24.8182 5.86128 24.6921 5.88643 24.5913 5.91157C24.5745 5.88643 24.566 5.86966 24.5492 5.84452C24.4904 5.76908 24.4064 5.72718 24.3307 5.71041C24.3307 5.6266 24.3055 5.55116 24.2635 5.49249C24.2215 5.43382 24.1375 5.36677 23.9862 5.36677C23.919 5.36677 23.8433 5.38353 23.7677 5.40867C23.7677 5.2159 23.7593 4.97283 23.7173 4.72976C24.5576 3.88322 25.9947 2.60083 26.9611 2.55054C27.0367 2.67626 27.0871 2.8858 27.0619 3.26298Z" fill="#E38569"/>
<path d="M25.44 8.04898C25.44 8.04898 26.2299 7.42036 25.8518 6.65763C25.835 6.63249 25.8182 6.59896 25.8014 6.57381C25.793 6.56543 25.793 6.55705 25.7846 6.54029C25.7846 6.53191 25.7762 6.52352 25.7677 6.52352C25.7593 6.51514 25.7509 6.49838 25.7509 6.49C25.5072 6.14635 25.2131 6.05415 24.961 6.05415C24.6753 6.05415 24.4484 6.17988 24.4484 6.17988C24.4988 5.90328 24.2131 5.87814 24.1375 5.87814C24.1291 5.87814 24.1206 5.87814 24.1206 5.87814C24.1879 5.63507 24.1038 5.55964 23.9862 5.55964C23.8181 5.55964 23.5744 5.70212 23.5744 5.70212C23.5744 5.70212 23.608 5.29981 23.5576 4.89749C23.524 4.62089 23.4568 4.3443 23.3139 4.19343C23.0786 3.94198 22.8433 3.8414 22.6248 3.83302C22.608 3.83302 22.5912 3.83302 22.566 3.83302C22.5408 3.83302 22.5072 3.83302 22.482 3.8414C22.4231 3.84978 22.3643 3.85817 22.3139 3.87493C21.9021 3.98389 21.608 4.32754 21.608 4.32754C21.4147 3.79949 21.0701 3.66539 20.7676 3.66539C20.4567 3.66539 20.1878 3.80788 20.1878 3.80788C20.1878 3.80788 19.8348 2.35785 18.339 2.12317C18.2465 2.1064 18.1625 2.09802 18.0785 2.09802C16.8179 2.09802 16.6247 3.69891 16.6247 3.69891C16.4902 3.56481 16.3726 3.46423 16.2549 3.39718L16.3053 3.88331C16.3137 3.9336 16.2717 3.98389 16.2213 3.98389H16.2129C16.1625 3.98389 16.1288 3.95036 16.1204 3.90007L16.0616 3.35527C16.0616 3.3385 16.0616 3.32174 16.07 3.30498C15.986 3.27145 15.9104 3.26307 15.8347 3.26307C15.7843 3.26307 15.7423 3.27145 15.6919 3.27983C15.7171 3.2966 15.7255 3.32174 15.7339 3.34689L15.7927 3.89169C15.8011 3.94198 15.7591 3.99227 15.7087 3.99227H15.7003C15.6498 3.99227 15.6162 3.95874 15.6078 3.90845L15.549 3.36365C15.549 3.35527 15.549 3.34689 15.549 3.3385C15.2969 3.48099 15.1708 3.76597 15.1708 3.76597C15.1708 3.76597 14.9776 3.47261 14.6162 3.45585C14.6078 3.45585 14.591 3.45585 14.5826 3.45585H14.5658C14.5406 3.45585 14.5238 3.45585 14.4986 3.45585C14.4565 3.45585 14.4229 3.46423 14.3893 3.47261C13.7338 3.60672 13.7506 4.37783 13.7506 4.37783C13.7338 4.36944 13.717 4.36106 13.7002 4.35268C13.6162 4.31915 13.5574 4.30239 13.4985 4.30239C13.196 4.30239 13.28 4.76338 13.28 4.76338C13.2044 4.70471 13.1456 4.67957 13.0868 4.67957C12.9523 4.67957 12.8683 4.81367 12.8683 4.81367C12.8683 4.81367 12.5741 4.41135 12.2128 4.41135C12.1708 4.41135 12.1287 4.41973 12.0783 4.42812C11.1455 4.69633 11.5825 5.74403 11.5825 5.74403C11.4733 5.71889 11.3808 5.70212 11.3052 5.70212C10.9354 5.70212 10.7926 5.95357 10.7422 6.19664C10.7253 6.26369 10.7169 6.32236 10.7169 6.38104C10.7085 6.51514 10.7169 6.61572 10.7169 6.61572C9.80095 7.91488 11.0615 8.15794 11.0615 8.15794C10.8262 8.37587 10.9438 8.64408 10.9438 8.64408C10.9438 8.64408 10.3892 9.28108 10.7001 9.55767C10.8346 9.6834 10.9691 9.72531 11.0951 9.72531C11.3724 9.72531 11.5825 9.49062 11.5825 9.49062C11.5237 9.89294 11.7086 9.95999 11.8346 9.95999C11.9018 9.95999 11.9523 9.94323 11.9523 9.94323C11.8766 10.2953 11.9859 10.421 12.0951 10.4545C12.1287 10.4629 12.1624 10.4713 12.1876 10.4713C12.2296 10.4713 12.2548 10.4629 12.2548 10.4629C12.2716 10.4545 12.28 10.4461 12.2968 10.4377C12.8262 10.1528 12.6414 9.6834 12.6414 9.6834C13.0363 9.60796 13.0195 9.22241 13.0195 9.22241C13.3389 9.42357 13.6078 9.499 13.8347 9.499C14.4229 9.499 14.7002 9.00449 14.7002 9.00449C14.9187 9.31461 15.1456 9.39842 15.3305 9.39842C15.5322 9.39842 15.6751 9.28946 15.6751 9.28946C15.8179 9.53253 15.9524 9.60796 16.07 9.60796C16.2633 9.60796 16.3978 9.39004 16.3978 9.39004C16.3978 9.39004 16.4902 10.1695 17.6247 10.4964C17.7928 10.5467 17.9524 10.5635 18.1121 10.5635C19.2046 10.5635 19.9609 9.54929 19.9609 9.54929C20.1542 9.95161 20.3558 10.0773 20.5323 10.0773C20.8433 10.0773 21.087 9.69178 21.087 9.69178C21.2634 9.96837 21.4315 10.0606 21.566 10.0606C21.8265 10.0606 21.9945 9.74207 21.9945 9.74207C22.5996 10.6221 23.087 10.8568 23.4232 10.8568C23.8097 10.8568 24.0114 10.5635 24.0114 10.5635C24.0366 10.6138 24.0618 10.6557 24.087 10.6892C24.1291 10.7562 24.1795 10.7982 24.2299 10.8317C24.2719 10.8568 24.3055 10.8736 24.3391 10.882C24.3644 10.8904 24.398 10.8904 24.4232 10.8904C24.5912 10.8904 24.7173 10.7562 24.7173 10.7562C24.7173 10.7562 24.9946 11.2172 25.2719 11.2172C25.3644 11.2172 25.4484 11.1669 25.5324 11.0412C25.8602 10.5132 25.3224 10.2366 25.3224 10.2366C25.3224 10.2366 26.1879 10.2366 26.2299 9.28946C26.2804 8.15794 25.44 8.04898 25.44 8.04898ZM12.9859 7.80591C12.9271 7.80591 12.3304 7.79753 12.0447 7.48741C11.9187 7.35331 11.8934 7.2192 11.9018 7.10186C11.9018 7.06833 11.9103 7.0348 11.9187 7.00966C11.9271 6.97613 11.9439 6.95099 11.9523 6.92584C11.9775 6.87555 12.0111 6.83364 12.0447 6.80012C12.0783 6.76659 12.1371 6.76659 12.1792 6.80012C12.2128 6.83364 12.2128 6.89232 12.1792 6.93422C12.1708 6.94261 12.1456 6.96775 12.1287 7.00128C12.1119 7.02642 12.1035 7.05157 12.0951 7.08509C12.0867 7.11862 12.0867 7.15215 12.0867 7.18567C12.0951 7.24434 12.1203 7.30302 12.1792 7.37007C12.4145 7.6299 12.9775 7.6299 12.9859 7.6299C13.0363 7.6299 13.0783 7.67181 13.0783 7.7221C13.0783 7.76401 13.0363 7.80591 12.9859 7.80591ZM14.3893 8.76142C14.3893 8.7698 14.3809 8.77818 14.3809 8.78657C14.3053 8.94582 14.0364 8.97934 13.7927 8.85362C13.7338 8.82847 13.6834 8.78656 13.633 8.75304C13.5994 8.71951 13.5658 8.69437 13.5405 8.66084C13.5153 8.62731 13.4985 8.60217 13.4817 8.56864C13.4481 8.49321 13.4481 8.41777 13.4817 8.35072C13.5574 8.19147 13.8263 8.15794 14.07 8.28367C14.2212 8.3591 14.3305 8.46806 14.3725 8.57702C14.3809 8.61055 14.3893 8.6357 14.3977 8.66922C14.3977 8.70275 14.3977 8.72789 14.3893 8.76142ZM14.7423 8.42615C14.7002 8.50159 14.5742 8.51835 14.4481 8.45968C14.3221 8.40101 14.2548 8.28367 14.2969 8.20823C14.3389 8.1328 14.4649 8.11603 14.591 8.17471C14.7086 8.23338 14.7759 8.35072 14.7423 8.42615ZM14.8683 5.77756C14.6666 5.90328 14.4901 5.96195 14.3305 5.96195C14.2464 5.96195 14.1624 5.94519 14.0952 5.91167C14.0195 5.86976 13.9523 5.81947 13.9103 5.75241C13.8935 5.72727 13.8767 5.70212 13.8599 5.67698C13.8431 5.65183 13.8263 5.61831 13.8179 5.59316C13.7422 5.43391 13.7338 5.28304 13.7338 5.27466C13.7254 5.22437 13.7674 5.17408 13.8179 5.17408C13.8683 5.1657 13.9187 5.20761 13.9187 5.2579C13.9187 5.2579 13.9271 5.3501 13.9607 5.45068C13.9691 5.4842 13.9859 5.50935 13.9943 5.54287C14.0111 5.56802 14.028 5.60154 14.0448 5.62669C14.0784 5.67698 14.1288 5.71889 14.1792 5.74403C14.3221 5.81947 14.5238 5.77756 14.7759 5.61831C14.8179 5.59316 14.8767 5.60154 14.9019 5.65183C14.9187 5.69374 14.9103 5.75241 14.8683 5.77756ZM17.6751 7.96516C17.6583 7.99031 17.6247 8.00707 17.5995 8.00707C17.5827 8.00707 17.5659 7.99869 17.5491 7.99031L17.1877 7.74724C17.07 7.83106 16.9188 7.90649 16.7423 7.9484L16.5322 8.36748C16.5154 8.40101 16.4818 8.41777 16.4482 8.41777C16.4314 8.41777 16.423 8.41777 16.4062 8.40939C16.3641 8.38425 16.3389 8.33396 16.3641 8.28367L16.5154 7.98193C16.4902 7.98193 16.4566 7.98193 16.4314 7.98193C16.3389 7.98193 16.2297 7.97355 16.1204 7.9484C14.9944 7.7221 15.0952 6.9007 15.0952 6.89232C15.1036 6.84203 15.1456 6.8085 15.2045 6.81688C15.2549 6.82526 15.2885 6.86717 15.2801 6.92584C15.2801 6.95099 15.2045 7.57961 16.1541 7.78077C16.591 7.87297 16.9104 7.73886 17.1205 7.57961L17.1289 7.57123C17.3222 7.42036 17.423 7.26111 17.4314 7.24434C17.4566 7.20244 17.5154 7.18567 17.5575 7.21082C17.5995 7.23596 17.6163 7.29463 17.5911 7.33654C17.5911 7.33654 17.507 7.47903 17.339 7.6299L17.6499 7.83944C17.6919 7.86459 17.7003 7.92326 17.6751 7.96516ZM22.2887 6.14635C22.2803 6.1715 22.2551 6.18826 22.2382 6.19664C22.213 6.2134 22.1794 6.22179 22.1458 6.22179C22.1122 6.22179 22.0786 6.22179 22.045 6.2134C22.0029 6.20502 21.9609 6.18826 21.9189 6.1715C21.7592 6.09606 21.6668 5.95357 21.7172 5.86138C21.7508 5.79432 21.8433 5.76918 21.9441 5.79432C21.9777 5.8027 22.0113 5.81109 22.045 5.81947C22.0618 5.82785 22.0702 5.82785 22.087 5.83623C22.1122 5.84461 22.1374 5.86138 22.1542 5.87814C22.2719 5.96195 22.3307 6.07092 22.2887 6.14635ZM22.3979 5.392C22.3475 5.4842 22.2298 5.53449 22.087 5.52611C22.0534 5.52611 22.0198 5.52611 21.9861 5.51773C21.9525 5.50935 21.9189 5.50935 21.8853 5.49258C21.8349 5.47582 21.7845 5.45906 21.734 5.43391C21.4483 5.29981 21.2886 5.04836 21.3727 4.88911C21.4315 4.76338 21.6164 4.72147 21.8265 4.77176C21.8601 4.78014 21.8853 4.78853 21.9189 4.79691C21.9525 4.80529 21.9861 4.82205 22.0114 4.83882C22.0198 4.83882 22.0198 4.8472 22.0282 4.8472C22.3139 4.9813 22.482 5.23275 22.3979 5.392ZM24.5744 9.59958C24.4064 9.6834 24.2467 9.71693 24.1038 9.71693C23.7341 9.71693 23.4736 9.50739 23.4652 9.499C23.4232 9.46548 23.4232 9.40681 23.4568 9.3649C23.4904 9.32299 23.5492 9.32299 23.5912 9.35652C23.608 9.37328 24.003 9.6834 24.5072 9.44033C24.9946 9.19726 24.8686 8.66084 24.8686 8.64408C24.8602 8.59379 24.8854 8.5435 24.9358 8.52673C24.9862 8.51835 25.0366 8.5435 25.0534 8.59379C25.0871 8.82847 25.0703 9.34813 24.5744 9.59958Z" fill="#D6BA9B"/>
<path d="M22.2884 6.14638C22.28 6.17153 22.2547 6.18829 22.2379 6.19667C22.2127 6.21344 22.1791 6.22182 22.1455 6.22182C22.1119 6.22182 22.0783 6.22182 22.0447 6.21344C22.0026 6.20506 21.9606 6.18829 21.9186 6.17153C21.7589 6.09609 21.6665 5.95361 21.7169 5.86141C21.7505 5.79435 21.843 5.76921 21.9438 5.79435C21.9774 5.80274 22.011 5.81112 22.0447 5.8195C22.0615 5.82788 22.0699 5.82788 22.0867 5.83626C22.1119 5.84464 22.1371 5.86141 22.1539 5.87817C22.2716 5.96199 22.3304 6.07095 22.2884 6.14638Z" fill="#E8DCCD"/>
<path d="M17.0279 11.8541C16.8515 11.3344 16.4733 10.907 15.9775 10.6639C15.6834 10.5214 15.3724 10.4543 15.0615 10.4543C14.2968 10.4543 13.5573 10.8818 13.1959 11.6026C12.9522 12.0971 12.9186 12.6587 13.0951 13.1784C13.2715 13.698 13.6497 14.1255 14.1455 14.3686C15.1708 14.8715 16.4229 14.4524 16.9271 13.4298C17.1708 12.9353 17.2044 12.3737 17.0279 11.8541ZM15.5069 12.7341C15.4649 12.818 15.3976 12.8934 15.322 12.9353C15.2464 12.9856 15.1539 13.0107 15.0615 13.0107C14.9859 13.0107 14.9102 12.994 14.843 12.9605C14.7254 12.9018 14.6329 12.8012 14.5909 12.6755C14.5489 12.5498 14.5573 12.4156 14.6161 12.2983C14.7338 12.0552 15.0363 11.9547 15.28 12.072C15.3976 12.1307 15.4901 12.2313 15.5321 12.357C15.5741 12.4827 15.5657 12.6168 15.5069 12.7341Z" fill="white"/>
<path d="M17.2044 11.7956C17.0111 11.2256 16.5994 10.7646 16.0615 10.4964C14.9439 9.94322 13.5825 10.4042 13.0278 11.519C12.7589 12.0554 12.7169 12.6673 12.9102 13.2372C13.1035 13.8072 13.5152 14.2681 14.0531 14.5364C14.3724 14.6956 14.717 14.771 15.0531 14.771C15.8851 14.771 16.6918 14.3101 17.0868 13.5138C17.3557 12.969 17.3977 12.3655 17.2044 11.7956ZM16.9187 13.43C16.4145 14.4525 15.1623 14.8716 14.1371 14.3687C13.6413 14.1257 13.2631 13.6982 13.0867 13.1785C12.9102 12.6589 12.9438 12.0973 13.1875 11.6028C13.5489 10.8736 14.2884 10.4545 15.0531 10.4545C15.364 10.4545 15.675 10.5216 15.9691 10.664C16.4649 10.9071 16.8431 11.3346 17.0195 11.8542C17.2044 12.3739 17.1708 12.9355 16.9187 13.43Z" fill="#3E2E2E"/>
<path d="M23.1705 12.0218C22.994 11.4938 22.6159 11.0747 22.1201 10.8316C21.8259 10.6891 21.515 10.6221 21.2041 10.6221C20.4394 10.6221 19.6998 11.0495 19.3385 11.7704C19.0948 12.2649 19.0612 12.8264 19.2376 13.3461C19.4141 13.8741 19.7923 14.2932 20.2881 14.5363C21.3133 15.0392 22.5655 14.6201 23.0697 13.5975C23.3134 13.103 23.347 12.5415 23.1705 12.0218ZM21.6495 12.9019C21.6075 12.9857 21.5402 13.0611 21.4646 13.103C21.389 13.1533 21.2965 13.1785 21.2041 13.1785C21.1284 13.1785 21.0528 13.1617 20.9856 13.1282C20.8679 13.0695 20.7755 12.9689 20.7335 12.8432C20.6915 12.7175 20.6999 12.5834 20.7587 12.466C20.8763 12.223 21.1789 12.1224 21.4226 12.2397C21.5402 12.2984 21.6327 12.399 21.6747 12.5247C21.7167 12.6504 21.7083 12.7845 21.6495 12.9019Z" fill="white"/>
<path d="M23.3473 11.9632C23.154 11.3932 22.7422 10.9322 22.2044 10.664C21.0867 10.1108 19.7253 10.5718 19.1707 11.6866C18.9018 12.223 18.8598 12.8349 19.0615 13.4048C19.2547 13.9748 19.6665 14.4358 20.2043 14.704C20.5237 14.8632 20.8682 14.9387 21.2044 14.9387C22.0363 14.9387 22.8431 14.4777 23.238 13.6814C23.4986 13.1366 23.5406 12.5331 23.3473 11.9632ZM23.07 13.5976C22.5658 14.6201 21.3136 15.0392 20.2884 14.5363C19.7926 14.2933 19.4144 13.8658 19.2379 13.3461C19.0615 12.8265 19.0951 12.2649 19.3388 11.7704C19.7001 11.0412 20.4396 10.6221 21.2044 10.6221C21.5153 10.6221 21.8262 10.6892 22.1204 10.8316C22.6162 11.0747 22.9943 11.5022 23.1708 12.0218C23.3473 12.5415 23.3137 13.1031 23.07 13.5976Z" fill="#3E2E2E"/>
<path d="M15.5072 12.7343C15.4652 12.8181 15.3979 12.8936 15.3223 12.9355C15.2467 12.9858 15.1542 13.0109 15.0618 13.0109C14.9862 13.0109 14.9105 12.9941 14.8433 12.9606C14.7257 12.9019 14.6332 12.8014 14.5912 12.6756C14.5492 12.5499 14.5576 12.4158 14.6164 12.2985C14.7341 12.0554 15.0366 11.9548 15.2803 12.0722C15.3979 12.1308 15.4904 12.2314 15.5324 12.3571C15.5744 12.4829 15.566 12.617 15.5072 12.7343Z" fill="#3E2E2E"/>
<path d="M21.6498 12.9019C21.6078 12.9857 21.5405 13.0612 21.4649 13.1031C21.3893 13.1534 21.2968 13.1785 21.2044 13.1785C21.1287 13.1785 21.0531 13.1618 20.9859 13.1282C20.8682 13.0696 20.7758 12.969 20.7338 12.8432C20.6918 12.7175 20.7002 12.5834 20.759 12.4661C20.8766 12.223 21.1792 12.1224 21.4229 12.2398C21.5405 12.2984 21.633 12.399 21.675 12.5247C21.717 12.6505 21.7086 12.7846 21.6498 12.9019Z" fill="#3E2E2E"/>
<path d="M18.2714 15.5337C18.263 15.5337 18.263 15.5337 18.2546 15.5421C18.2209 15.5505 18.1873 15.5589 18.1537 15.5589C18.1285 15.5589 18.0949 15.5589 18.0697 15.5505C17.868 15.517 17.6411 15.3577 17.473 15.2152C17.1705 14.9638 16.7755 14.486 16.8175 14.243C16.8764 13.8909 17.305 13.6982 17.994 13.7149C18.1957 13.6982 19.1285 13.6479 19.221 14.0586C19.3134 14.4693 18.7336 15.3829 18.2714 15.5337Z" fill="#3E2E2E"/>
<path d="M20.3139 16.5982C20.3055 16.6234 20.1627 17.143 19.566 17.3777C19.5156 17.4029 19.4568 17.4196 19.3895 17.4364C19.3475 17.4448 19.3055 17.4532 19.2551 17.4615C19.2215 17.4699 19.1879 17.4699 19.1542 17.4783C19.1122 17.4783 19.0786 17.4867 19.045 17.4867C18.8433 17.4867 18.6836 17.428 18.566 17.3526C18.5492 17.3442 18.5408 17.3358 18.524 17.3274C18.5072 17.3191 18.4904 17.3023 18.482 17.2939C18.4652 17.2855 18.4568 17.2688 18.4399 17.2604C18.4315 17.252 18.4231 17.2436 18.4147 17.2352C18.3811 17.1933 18.3475 17.1598 18.3223 17.1179C18.3055 17.0844 18.2803 17.0592 18.2719 17.0257C18.2635 17.0508 18.2467 17.076 18.2299 17.0928C18.213 17.1179 18.1962 17.1514 18.171 17.1766C18.1542 17.2017 18.129 17.2269 18.1038 17.2604C17.9693 17.4029 17.7677 17.5202 17.4735 17.5202C17.4147 17.5202 17.3559 17.5202 17.2887 17.5035C16.7004 17.4113 16.4147 17.0676 16.2886 16.8497C16.2634 16.8078 16.2466 16.7743 16.2382 16.7407C16.2214 16.6988 16.213 16.6653 16.2046 16.6653C16.2046 16.6569 16.2046 16.6485 16.2046 16.6401C16.2046 16.5982 16.2298 16.5647 16.2718 16.548C16.3222 16.5312 16.3727 16.5647 16.3895 16.615C16.3895 16.6234 16.3979 16.6485 16.4147 16.6904C16.4315 16.724 16.4483 16.7575 16.4735 16.7994C16.4987 16.8329 16.5239 16.8748 16.5575 16.9084C16.692 17.076 16.9273 17.2604 17.3223 17.3191C17.5828 17.361 17.7677 17.3023 17.8937 17.2017C17.9273 17.1766 17.9525 17.1514 17.9777 17.1263C18.003 17.1011 18.0282 17.076 18.045 17.0425C18.1458 16.9084 18.171 16.7659 18.171 16.7575V16.7491L18.0786 15.5589C18.1038 15.5673 18.1374 15.5673 18.1626 15.5673C18.1962 15.5673 18.2299 15.5589 18.2635 15.5505L18.3475 16.7407C18.3475 16.7491 18.3559 16.7491 18.3559 16.7575C18.3559 16.7743 18.4231 17.0257 18.6416 17.185C18.7593 17.2688 18.9274 17.3274 19.1627 17.3023C19.1795 17.3023 19.2047 17.2939 19.2215 17.2939C19.961 17.1598 20.1207 16.5899 20.1291 16.5647C20.1459 16.5144 20.1963 16.4893 20.2467 16.4977C20.2971 16.4977 20.3223 16.548 20.3139 16.5982Z" fill="#3E2E2E"/>
<path d="M22.1374 16.4809C21.4903 16.5479 20.944 16.2965 20.902 15.9361C20.8684 15.5673 21.3558 15.2237 22.0029 15.1566C22.65 15.0895 23.1962 15.341 23.2382 15.7014C23.2718 16.0702 22.776 16.4222 22.1374 16.4809Z" fill="#E38569"/>
<path d="M15.4061 15.7097C15.3977 15.9863 15.0868 16.2126 14.6582 16.2964C14.5657 16.3132 14.4649 16.3216 14.3641 16.33C14.322 16.33 14.28 16.33 14.238 16.33C13.9523 16.3216 13.7002 16.2461 13.5069 16.1456C13.4313 16.1037 13.364 16.0534 13.3052 16.0031C13.1792 15.8941 13.1119 15.76 13.1203 15.6175C13.1371 15.2487 13.6582 14.9805 14.2968 15.0057C14.9187 15.0224 15.4229 15.3409 15.4061 15.7097Z" fill="#E38569"/>
<path d="M14.8685 5.77765C14.6668 5.90337 14.4903 5.96204 14.3306 5.96204C14.2466 5.96204 14.1626 5.94528 14.0953 5.91175C14.0197 5.86985 13.9525 5.81956 13.9105 5.7525C13.8937 5.72736 13.8768 5.70221 13.86 5.67707C13.8432 5.65192 13.8264 5.6184 13.818 5.59325C13.7424 5.434 13.734 5.28313 13.734 5.27475C13.7256 5.22446 13.7676 5.17417 13.818 5.17417C13.8684 5.16579 13.9189 5.2077 13.9189 5.25799C13.9189 5.25799 13.9273 5.35018 13.9609 5.45076C13.9693 5.48429 13.9861 5.50943 13.9945 5.54296C14.0113 5.56811 14.0281 5.60163 14.0449 5.62678C14.0785 5.67707 14.129 5.71898 14.1794 5.74412C14.3222 5.81956 14.5239 5.77765 14.776 5.6184C14.818 5.59325 14.8769 5.60163 14.9021 5.65192C14.9189 5.69383 14.9105 5.7525 14.8685 5.77765Z" fill="#3E2E2E"/>
<path d="M24.5741 9.59958C24.406 9.6834 24.2463 9.71693 24.1035 9.71693C23.7337 9.71693 23.4732 9.50739 23.4648 9.499C23.4228 9.46548 23.4228 9.40681 23.4564 9.3649C23.49 9.32299 23.5488 9.32299 23.5908 9.35652C23.6076 9.37328 24.0026 9.6834 24.5068 9.44033C24.9942 9.19727 24.8682 8.66084 24.8682 8.64408C24.8598 8.59379 24.885 8.5435 24.9354 8.52673C24.9858 8.51835 25.0362 8.5435 25.0531 8.59379C25.0867 8.82847 25.0699 9.34814 24.5741 9.59958Z" fill="#3E2E2E"/>
<path d="M13.0784 7.71364C13.0784 7.76393 13.0363 7.80584 12.9859 7.80584C12.9271 7.80584 12.3304 7.79746 12.0447 7.48734C11.9187 7.35324 11.8935 7.21913 11.9019 7.10179C11.9019 7.06826 11.9103 7.03473 11.9187 7.00959C11.9271 6.97606 11.9439 6.95092 11.9523 6.92577C11.9775 6.87548 12.0111 6.83357 12.0447 6.80005C12.0783 6.76652 12.1372 6.76652 12.1792 6.80005C12.2128 6.83357 12.2128 6.89225 12.1792 6.93415C12.1708 6.94254 12.1456 6.96768 12.1288 7.00121C12.1119 7.02635 12.1035 7.0515 12.0951 7.08502C12.0867 7.11855 12.0867 7.15208 12.0867 7.1856C12.0951 7.24427 12.1203 7.30295 12.1792 7.37C12.4145 7.62983 12.9775 7.62983 12.9859 7.62983C13.0363 7.62145 13.0784 7.66336 13.0784 7.71364Z" fill="#3E2E2E"/>
<path d="M14.3973 8.66923C14.3973 8.70276 14.3973 8.73629 14.3889 8.76143C14.3889 8.76981 14.3804 8.77819 14.3804 8.78658C14.3048 8.94583 14.0359 8.97935 13.7922 8.85363C13.7334 8.82848 13.683 8.78658 13.6325 8.75305C13.5989 8.71952 13.5653 8.69438 13.5401 8.66085C13.5149 8.62732 13.4981 8.60218 13.4813 8.56865C13.4477 8.49322 13.4477 8.41778 13.4813 8.35073C13.5569 8.19148 13.8258 8.15795 14.0695 8.28368C14.2208 8.35911 14.33 8.46807 14.372 8.57703C14.3889 8.61056 14.3973 8.63571 14.3973 8.66923Z" fill="#E8DCCD"/>
<path d="M22.3977 5.39196C22.3473 5.48416 22.2296 5.53445 22.0868 5.52607C22.0532 5.52607 22.0196 5.52607 21.9859 5.51769C21.9523 5.50931 21.9187 5.50931 21.8851 5.49254C21.8347 5.47578 21.7843 5.45902 21.7338 5.43387C21.4481 5.29977 21.2884 5.04832 21.3725 4.88907C21.4313 4.76334 21.6162 4.72143 21.8263 4.77172C21.8599 4.7801 21.8851 4.78849 21.9187 4.79687C21.9523 4.80525 21.9859 4.82201 22.0111 4.83878C22.0196 4.83878 22.0196 4.84716 22.028 4.84716C22.3137 4.98126 22.4817 5.23271 22.3977 5.39196Z" fill="#E8DCCD"/>
<path d="M14.7421 8.42614C14.7001 8.50157 14.574 8.51833 14.4479 8.45966C14.3219 8.40099 14.2547 8.28365 14.2967 8.20821C14.3387 8.13278 14.4648 8.11601 14.5908 8.17469C14.7085 8.23336 14.7757 8.3507 14.7421 8.42614Z" fill="#E8DCCD"/>
<path d="M17.6745 7.96512C17.6577 7.99026 17.6241 8.00703 17.5989 8.00703C17.5821 8.00703 17.5653 7.99865 17.5485 7.99026L17.1871 7.7472C17.0695 7.83101 16.9182 7.90645 16.7417 7.94836L16.5316 8.36744C16.5148 8.40096 16.4812 8.41773 16.4476 8.41773C16.4308 8.41773 16.4224 8.41773 16.4056 8.40935C16.3636 8.3842 16.3383 8.33391 16.3636 8.28362L16.5148 7.98188C16.4896 7.98188 16.456 7.98188 16.4308 7.98188C16.3383 7.98188 16.2291 7.9735 16.1198 7.94836C14.9938 7.72205 15.0946 6.90065 15.0946 6.89227C15.103 6.84198 15.145 6.80845 15.2039 6.81684C15.2543 6.82522 15.2879 6.86712 15.2795 6.9258C15.2795 6.95094 15.2039 7.57956 16.1535 7.78072C16.5904 7.87292 16.9098 7.73881 17.1199 7.57956L17.1283 7.57118C17.3216 7.42031 17.4224 7.26106 17.4308 7.2443C17.456 7.20239 17.5148 7.18563 17.5569 7.21077C17.5989 7.23592 17.6157 7.29459 17.5905 7.3365C17.5905 7.3365 17.5064 7.47898 17.3384 7.62985L17.6493 7.83939C17.6913 7.86454 17.6997 7.92321 17.6745 7.96512Z" fill="#3E2E2E"/>
</svg>
