<svg xmlns="http://www.w3.org/2000/svg" xmlns:xlink="http://www.w3.org/1999/xlink" viewBox="0 0 60 60"><defs><clipPath id="a"><path d="M35.91,46.27c0,2.66-2.54,4.82-5.67,4.82s-5.67-2.16-5.67-4.82,2.53-2.07,5.67-2.07S35.91,43.61,35.91,46.27Z" fill="none"/></clipPath></defs><title>playgames-icon</title><rect width="60" height="60" fill="none"/><path d="M34.29,15a18.18,18.18,0,0,0-.57-2.92A17.44,17.44,0,0,0,31.11,6.6a10.62,10.62,0,0,0-3.79-3.34.91.91,0,0,0-1.18,1.27,7.67,7.67,0,0,1,.92,3.68,11.37,11.37,0,0,1-.71,4.1,8.89,8.89,0,0,1-1.68,2.9C14.19,17.59,5.43,26.73,5.43,36.82,5.43,48.56,17,56.67,30,56.67s24.57-8.11,24.57-19.85C54.57,26.4,45.29,17,34.29,15Z" fill="#ff3e6c"/><path d="M54.57,37.82c0,11.74-11,19-24.57,19s-24.57-7.27-24.57-19S16.43,14.61,30,14.61,54.57,26.08,54.57,37.82Z" fill="#ffb980"/><path d="M54.57,36.82c0,11.74-11,17-24.57,17s-24.57-5.27-24.57-17S16.43,14.61,30,14.61,54.57,25.08,54.57,36.82Z" fill="#ffd2a1"/><path d="M54.57,36.82c0,11.74-11,17-24.57,17s-24.57-5.27-24.57-17S16.43,16.61,30,16.61,54.57,25.08,54.57,36.82Z" fill="#ffd2a1"/><path d="M41.34,23.83H18.66a9.45,9.45,0,1,0,8.43,13.7h5.82a9.45,9.45,0,1,0,8.43-13.7Z" fill="#3e2e2e"/><path d="M41.34,44.07a10.72,10.72,0,0,1-9.22-5.2H27.88a10.79,10.79,0,1,1-9.22-16.38H41.34a10.79,10.79,0,0,1,0,21.58ZM26.27,36.19h7.46l.38.73a8.11,8.11,0,1,0,7.23-11.76H18.66a8.12,8.12,0,1,0,7.23,11.76Z" fill="#ff4008"/><rect x="13.46" y="31.39" width="10.4" height="3.78" rx="1.89" fill="#00ffa3"/><rect x="13.46" y="31.39" width="10.4" height="3.78" rx="1.89" transform="translate(51.93 14.62) rotate(90)" fill="#00ffa3"/><circle cx="41.34" cy="29.97" r="1.89" fill="#00ffa3"/><circle cx="41.34" cy="36.58" r="1.89" fill="#00ffa3"/><circle cx="38.03" cy="33.28" r="1.89" fill="#00ffa3"/><circle cx="44.65" cy="33.28" r="1.89" fill="#00ffa3"/><path d="M35.91,46.27c0,2.66-2.54,4.82-5.67,4.82s-5.67-2.16-5.67-4.82,2.53-2.07,5.67-2.07S35.91,43.61,35.91,46.27Z" fill="#ce1150"/><g clip-path="url(#a)"><ellipse cx="30.24" cy="50.69" rx="4.49" ry="3.18" fill="#ff3e17"/><rect x="28.01" y="42.21" width="4.45" height="3.87" rx="1.11" fill="#fff"/></g></svg>